<?xml version="1.0" encoding="UTF-8"?>
<svg width="374px" height="325px" viewBox="0 0 374 325" version="1.1" xmlns="http://www.w3.org/2000/svg" xmlns:xlink="http://www.w3.org/1999/xlink">
    <!-- Generator: Sketch 63.1 (92452) - https://sketch.com -->
    <title>Cleaning couple`</title>
    <desc>Created with Sketch.</desc>
    <defs>
        <path d="M7.08878322,105.503065 C7.08878322,105.503065 5.04576224,105.482032 2.60307692,105.471516 L9.30008392,6.45164516 C9.81281119,3.21267742 10.1099301,1.33817742 10.1099301,1.33817742 L7.08878322,105.503065 L7.08878322,105.503065 Z" id="path-1"></path>
    </defs>
    <g id="Services-Wireframe" stroke="none" stroke-width="1" fill="none" fill-rule="evenodd">
        <g id="Services-Prototype" transform="translate(-546.000000, -96.000000)">
            <g id="Cleaning-couple`" transform="translate(546.000000, 96.000000)">
                <g id="Cleaning-couple">
                    <path d="M275.258317,227.422697 C274.385366,227.696117 272.160918,228.035262 269.058261,228.371778 C264.21496,228.902842 257.210317,229.447052 249.729758,229.830891 C242.564723,230.201584 234.984247,230.411907 228.476555,230.309375 C227.903352,230.304117 227.340667,230.288342 226.775352,230.272568 C220.719911,230.120084 216.058037,229.862439 212.545198,229.610052 C211.172667,229.50752 209.971044,229.39973 208.935072,229.297197 C204.917394,228.908101 203.34503,228.574213 203.34503,228.574213 C202.432639,224.475552 210.733562,173.840391 213.355044,164.859617 C215.968639,155.863068 225.44489,142.894052 225.44489,142.894052 C225.526401,141.547988 225.665758,140.007375 225.826149,138.353713 C226.23896,134.365472 226.846345,129.69631 227.45373,125.397842 C228.484443,118.165375 229.504639,111.992407 229.504639,111.992407 C246.682317,112.497181 254.462625,110.412359 254.473142,110.401842 C254.473142,110.401842 255.2751,112.087052 256.205897,114.263891 L256.213785,114.269149 C257.612611,117.555439 259.316443,121.95381 258.977254,123.323536 C258.572331,124.964052 256.421506,127.480036 255.248806,128.757746 C254.783408,129.270407 254.473142,129.578004 254.473142,129.578004 C254.757114,133.33752 259.434765,165.419601 263.076443,177.939052 C266.718121,190.453246 275.258317,227.422697 275.258317,227.422697" id="Fill-1037" fill="#A6DDEB"></path>
                    <path d="M258.977254,123.323536 C258.572331,124.964052 256.421506,127.480036 255.248806,128.757746 C250.350289,130.319391 249.632471,128.886568 249.632471,128.886568 C256.503016,126.948972 256.332107,116.54852 256.213785,114.269149 C257.612611,117.555439 259.316443,121.95381 258.977254,123.323536" id="Fill-1038" fill="#66C8CE"></path>
                    <path d="M237.079855,128.886568 C237.079855,128.886568 233.248862,133.584649 228.476555,131.473536 C228.476555,131.473536 228.058485,143.90623 227.127688,146.24081 C226.210037,148.583278 218.46917,163.447826 214.146485,188.331617 C210.972834,206.616536 209.495128,222.282939 208.935072,229.297197 C204.917394,228.908101 203.34503,228.574213 203.34503,228.574213 C202.432639,224.475552 210.733562,173.840391 213.355044,164.859617 C215.968639,155.863068 225.44489,142.894052 225.44489,142.894052 C225.526401,141.547988 225.665758,140.007375 225.826149,138.353713 C226.23896,134.365472 226.846345,129.69631 227.45373,125.397842 C229.060275,127.056762 232.233925,129.404488 237.079855,128.886568" id="Fill-1039" fill="#66C8CE"></path>
                    <path d="M216.08696,159.396488 C216.08696,159.396488 215.287632,162.585504 214.146485,162.919391 C213.010597,163.258536 206.98145,157.230165 199.464079,149.605972 C191.959855,141.984407 185.018317,131.854746 185.018317,131.854746 C186.71689,125.831633 201.738485,107.85431 201.738485,107.85431 C201.738485,107.85431 205.343352,109.72881 208.459156,113.538278 C209.150681,114.387455 209.723883,115.176165 210.19717,115.907036 C212.182345,118.898875 212.553086,120.825955 212.553086,120.825955 C208.914037,125.718584 201.441366,130.724262 201.441366,130.724262 C201.441366,130.724262 206.721142,139.970568 209.687072,145.42581 L209.69759,145.444213 L210.052555,146.083068 C213.134177,151.767036 216.08696,159.396488 216.08696,159.396488" id="Fill-1040" fill="#F1B5AB"></path>
                    <path d="M254.473142,110.401842 C254.473142,110.401842 253.011212,110.801455 249.961142,111.203697 C249.67717,111.237875 249.380051,111.274681 249.067156,111.322004 C245.554317,111.742649 240.274541,112.131746 233.070065,112.071278 C232.772946,112.071278 232.46531,112.060762 232.157674,112.060762 C231.297869,112.03973 230.414401,112.023955 229.504639,111.992407 C229.504639,111.992407 228.476555,118.212697 227.437953,125.492488 C226.904191,129.296697 226.362541,133.395359 225.962876,137.039197 C225.918177,137.486133 225.870848,137.92781 225.826149,138.353713 C225.763044,138.072407 225.692051,137.775326 225.615799,137.459842 C223.60696,128.907601 219.799632,112.862617 219.799632,112.862617 C217.982737,115.444326 212.553086,120.825955 212.553086,120.825955 C212.553086,120.825955 211.724834,118.883101 210.515324,116.716778 C209.90531,115.644133 209.205897,114.513649 208.459156,113.538278 C206.218932,110.622681 201.441366,108.225004 201.441366,108.225004 C202.243324,107.254891 212.781841,93.0607457 217.859156,89.9952941 C220.13882,88.6150522 222.923324,87.2216651 225.597394,86.0359715 C225.881366,85.8992618 226.162709,85.7862135 226.446681,85.6626489 C229.423128,84.3691651 232.178709,83.388536 233.864135,83.0336167 C233.864135,83.0336167 238.497086,83.3964231 240.771492,83.8486167 C241.512974,83.9984715 242.370149,84.203536 243.248359,84.526907 C243.587548,84.6452135 243.937254,84.7792941 244.268555,84.937036 C245.764667,85.5942941 247.202932,86.6169876 248.110065,88.194407 C249.758681,91.0547941 250.941897,91.4701812 251.115436,95.4741973 C251.281086,99.4703264 254.462625,110.375552 254.473142,110.401842" id="Fill-1041" fill="#F7981D"></path>
                    <path d="M233.070065,112.071278 L232.725618,112.502439 L232.617813,112.512955 L232.178709,112.179068 L232.157674,112.060762 L225.597394,86.0359715 C225.881366,85.8992618 226.162709,85.7862135 226.446681,85.6626489 L233.064806,111.947713 L233.070065,112.071278" id="Fill-1042" fill="#90D6E9"></path>
                    <path d="M256.250597,75.0886812 C253.163716,78.2724393 247.118792,79.1926005 241.841646,77.6151812 C241.347324,77.4732135 240.855632,77.3075844 240.382345,77.107778 C240.129925,77.0052457 239.880135,76.8974554 239.632974,76.7896651 C235.812499,75.0334715 232.972779,71.6893425 231.513478,69.6781328 C230.806177,68.6948747 230.414401,68.0323586 230.414401,68.0323586 C229.3311,68.0113264 228.423967,67.6117135 227.693002,66.9781167 C224.679744,64.3727457 224.621897,57.7554715 227.011995,56.653907 C229.962149,55.2894393 230.414401,58.9306489 230.414401,58.9306489 C230.414401,58.9306489 231.663352,53.2703425 234.337422,49.7947618 C234.574065,49.484536 234.821226,49.1927135 235.086792,48.9166651 C237.6031,46.3165522 241.547156,42.6990038 243.087967,41.3161328 L243.093226,41.3161328 C243.49552,40.9375522 243.734792,40.7272296 243.734792,40.7272296 C252.495855,42.6543102 255.56696,41.4055199 255.56696,41.4055199 C255.56696,41.4055199 255.674765,41.736778 255.866709,42.2915038 C255.948219,42.5465199 256.061282,42.8541167 256.174345,43.2116651 C257.262904,46.4085683 259.500499,53.1388909 260.694233,57.1113586 C262.274485,62.4614393 259.779212,71.4448425 256.250597,75.0886812" id="Fill-1043" fill="#F1B5AB"></path>
                    <path d="M226.317841,259.402246 C225.752527,273.733101 226.317841,315.592552 226.317841,315.592552 C226.317841,315.592552 225.326569,315.592552 224.524611,315.592552 L223.588555,315.592552 C223.251995,315.587294 209.258485,269.077084 208.687911,257.919472 C208.112079,246.775004 214.830121,238.128117 214.830121,238.128117 L212.545198,229.610052 C213.628499,229.691552 214.822233,229.765165 216.123772,229.846665 C219.063408,230.012294 222.584135,230.164778 226.775352,230.272568 C227.340667,230.288342 227.903352,230.304117 228.476555,230.309375 C228.07689,234.231891 226.799016,247.377052 226.317841,259.402246" id="Fill-1044" fill="#A6DDEB"></path>
                    <path d="M287.203548,312.527101 L284.029897,313.194875 L283.906317,313.221165 C283.906317,313.221165 272.526401,294.210633 266.152806,285.11681 C259.779212,276.015101 253.405618,264.63402 252.377534,256.21323 C251.352079,247.792439 253.863128,236.527036 253.863128,236.527036 L249.729758,229.830891 C251.622904,229.728359 253.481869,229.631084 255.285618,229.518036 C260.610093,229.173633 265.432359,228.763504 269.058261,228.371778 C269.705086,232.567713 271.971604,247.366536 273.998848,259.628342 C276.386317,274.082762 287.203548,312.527101 287.203548,312.527101" id="Fill-1045" fill="#A6DDEB"></path>
                    <path d="M225.316051,159.853939 C224.498317,160.306133 221.093282,157.795407 218.582233,158.597262 C218.582233,158.597262 223.133674,160.984423 222.568359,162.343633 C222.095072,163.484633 218.216751,161.773133 217.207072,161.234181 C217.998513,161.907213 220.236107,164.820181 219.728639,165.527391 C219.152806,166.334504 215.511128,162.935165 215.511128,162.935165 C215.511128,162.935165 216.996723,165.984842 216.08696,166.899746 C215.174569,167.806762 214.146485,162.919391 214.146485,162.919391 C214.146485,162.919391 215.16931,160.61373 216.08696,159.396488 C217.388499,157.640294 219.034485,154.729955 220.97496,155.521294 C222.912806,156.32052 226.128527,159.396488 225.316051,159.853939" id="Fill-1046" fill="#F1B5AB"></path>
                    <path d="M277.75359,131.970423 C277.214569,136.97873 275.276723,139.216036 272.418597,139.754988 C271.051324,140.017891 269.473702,139.889068 267.738317,139.478939 C262.392806,138.224891 260.344527,131.181713 258.525002,124.459278 C256.702848,117.74473 252.2671,103.639972 251.470401,98.4160844 C250.67896,93.1737941 251.018149,89.984778 251.018149,89.984778 C251.018149,89.984778 249.769198,89.8769876 248.862065,89.0725038 L248.712191,88.8411489 C248.664862,88.4047296 249.632471,87.8999554 250.479128,87.5371489 C249.148667,88.0024876 247.134569,88.5835038 246.692834,88.0550683 C246.024974,87.2847618 249.758681,84.2508586 249.979548,84.0799715 C249.740275,84.1667296 245.41496,85.991278 244.870681,85.4365522 C244.342177,84.9081167 248.738485,82.1502618 249.26173,81.8216328 C248.701674,82.0582457 243.761086,84.1378102 243.248359,83.2781167 C242.704079,82.3658425 248.120583,79.0427457 249.877002,78.3802296 C251.633422,77.7282296 253.174233,79.4134393 253.174233,79.4134393 C253.174233,79.4134393 255.685282,78.9559876 255.56696,80.8804393 C255.56696,80.8804393 257.843995,82.0319554 257.386485,84.6452135 C256.934233,87.2532135 255.685282,89.984778 255.685282,89.984778 C255.90089,90.3291812 265.808359,105.806294 270.015352,111.829407 C274.230233,117.863036 278.555548,124.572326 277.75359,131.970423" id="Fill-1047" fill="#F1B5AB"></path>
                    <path d="M283.901058,313.215907 L285.152639,316.744068 L300.513422,316.744068 C300.513422,316.744068 292.888247,308.775472 283.901058,313.215907" id="Fill-1048" fill="#D24C27"></path>
                    <path d="M241.841646,77.6151812 L241.65496,80.3625199 L241.229002,86.8010199 C238.723212,88.0550683 233.937758,84.8713102 233.937758,83.7303102 C233.937758,83.2123909 233.438177,80.2757618 232.891268,77.2155683 C232.233925,73.5375522 231.513478,69.6781328 231.513478,69.6781328 C232.972779,71.6893425 235.812499,75.0334715 239.632974,76.7896651 C240.345534,77.1182941 241.081758,77.3943425 241.841646,77.6151812" id="Fill-1049" fill="#F1B5AB"></path>
                    <path d="M262.166681,38.2217618 L262.156163,38.397907 C262.014177,40.6352135 258.906261,42.0732941 255.866709,42.2915038 C255.674765,41.736778 255.56696,41.4055199 255.56696,41.4055199 C255.56696,41.4055199 252.495855,42.6543102 243.734792,40.7272296 C243.734792,40.7272296 238.27096,45.6224876 235.086792,48.9166651 C233.248862,50.8095683 231.978876,53.8513586 231.232135,56.080778 C230.687855,57.7291812 230.414401,58.9306489 230.414401,58.9306489 C230.414401,58.9306489 230.025254,55.7626651 227.574681,56.4462135 L227.011995,56.653907 C225.799855,57.2112618 225.226653,59.1751489 225.337086,61.3309554 C225.415967,62.9767296 225.918177,64.7460683 226.846345,66.0474393 C227.104023,66.3944715 227.385366,66.7020683 227.693002,66.9781167 C227.340667,67.6327457 226.956779,68.5161005 226.557114,69.6781328 C224.387883,75.8800199 231.108555,81.1170522 234.629282,84.4138586 C237.316499,86.9245844 239.945869,92.9529554 238.249925,97.488036 L238.249925,97.4985522 C237.731939,98.9050844 236.798513,100.172278 235.30766,101.142391 C229.049758,105.241052 223.133674,102.622536 223.133674,102.622536 C226.664918,99.8909715 224.387883,93.7442941 219.378932,90.8996812 C214.377869,88.0550683 212.098205,85.8887457 211.990401,78.2382618 C211.874709,70.5746328 220.97496,64.3911489 220.97496,64.3911489 L223.430792,59.6404876 L223.470233,59.5511005 L223.52282,59.4485683 L224.73496,57.1113586 C224.10917,54.1694715 222.568359,46.7529715 225.316051,40.7272296 C228.066373,34.6988586 236.114876,30.6080844 246.800639,31.6255199 C257.510065,32.6455844 262.166681,35.6111328 262.166681,38.2217618" id="Fill-1050" fill="#721813"></path>
                    <path d="M231.232135,56.080778 C230.687855,57.7291812 230.414401,58.9306489 230.414401,58.9306489 C230.414401,58.9306489 229.962149,55.2894393 227.011995,56.653907 C224.874317,57.6371651 224.700779,63.0661167 226.846345,66.0474393 C224.571939,64.7118909 222.031967,62.4877296 223.430792,59.6404876 L223.470233,59.5511005 L223.52282,59.4485683 C225.726233,55.3341328 230.096247,55.754778 231.232135,56.080778" id="Fill-1051" fill="#983222"></path>
                    <path d="M249.961142,111.166891 L249.961142,111.203697 C249.995324,111.437681 249.853338,111.650633 249.611436,111.700584 L249.524667,111.711101 L249.077674,111.356181 L249.067156,111.322004 L243.248359,84.526907 C243.587548,84.6452135 243.937254,84.7792941 244.268555,84.937036 L249.961142,111.166891" id="Fill-1052" fill="#90D6E9"></path>
                    <path d="M201.441366,130.724262 C201.441366,130.724262 206.721142,139.970568 209.687072,145.42581 C204.972611,138.863746 198.898765,132.201778 198.898765,132.201778 C202.114485,129.830391 207.951688,119.911052 210.19717,115.907036 C212.182345,118.898875 212.553086,120.825955 212.553086,120.825955 C208.914037,125.718584 201.441366,130.724262 201.441366,130.724262" id="Fill-1053" fill="#F5948D"></path>
                    <path d="M225.316051,159.853939 C224.498317,160.306133 221.093282,157.795407 218.582233,158.597262 C218.582233,158.597262 223.133674,160.984423 222.568359,162.343633 C222.095072,163.484633 218.216751,161.773133 217.207072,161.234181 C217.998513,161.907213 220.236107,164.820181 219.728639,165.527391 C219.152806,166.334504 215.511128,162.935165 215.511128,162.935165 C215.511128,162.935165 216.996723,165.984842 216.08696,166.899746 C215.174569,167.806762 214.146485,162.919391 214.146485,162.919391 C214.146485,162.919391 215.16931,160.61373 216.08696,159.396488 C217.388499,157.640294 219.034485,154.729955 220.97496,155.521294 C222.912806,156.32052 226.128527,159.396488 225.316051,159.853939" id="Fill-1054" fill="#F5948D"></path>
                    <path d="M272.418597,139.754988 C271.051324,140.017891 269.473702,139.889068 267.738317,139.478939 C262.392806,138.224891 260.344527,131.181713 258.525002,124.459278 C256.702848,117.74473 252.2671,103.639972 251.470401,98.4160844 C250.67896,93.1737941 251.018149,89.984778 251.018149,89.984778 C251.018149,89.984778 249.769198,89.8769876 248.862065,89.0725038 L248.712191,88.8411489 C249.487855,89.0514715 251.859548,89.5036651 253.673813,87.7579876 C253.673813,87.7579876 252.377534,93.1369876 253.673813,99.7358586 C254.956946,106.33473 259.505758,116.403923 264.288583,123.878262 C267.538485,128.968068 270.712135,135.469665 272.418597,139.754988" id="Fill-1055" fill="#F5948D"></path>
                    <path d="M241.841646,77.6151812 L241.65496,80.3625199 C237.763492,80.3283425 234.737086,78.6273586 232.891268,77.2155683 C232.233925,73.5375522 231.513478,69.6781328 231.513478,69.6781328 C232.972779,71.6893425 235.812499,75.0334715 239.632974,76.7896651 C240.345534,77.1182941 241.081758,77.3943425 241.841646,77.6151812" id="Fill-1056" fill="#F5948D"></path>
                    <path d="M240.382345,77.107778 C240.129925,77.0052457 239.880135,76.8974554 239.632974,76.7896651 C235.812499,75.0334715 232.972779,71.6893425 231.513478,69.6781328 C230.806177,68.6948747 230.414401,68.0323586 230.414401,68.0323586 C229.3311,68.0113264 228.423967,67.6117135 227.693002,66.9781167 C224.679744,64.3727457 224.621897,57.7554715 227.011995,56.653907 C229.962149,55.2894393 230.414401,58.9306489 230.414401,58.9306489 C230.414401,58.9306489 231.663352,53.2703425 234.337422,49.7947618 C232.528415,54.3245844 232.157674,58.938536 233.490765,65.6846328 C234.400527,70.2722941 237.705646,74.4025038 240.382345,77.107778" id="Fill-1057" fill="#F5948D"></path>
                    <path d="M256.174345,43.2116651 C252.167184,43.5402941 246.190625,42.5281167 243.093226,41.3161328 C243.49552,40.9375522 243.734792,40.7272296 243.734792,40.7272296 C252.495855,42.6543102 255.56696,41.4055199 255.56696,41.4055199 C255.56696,41.4055199 255.674765,41.736778 255.866709,42.2915038 C255.948219,42.5465199 256.061282,42.8541167 256.174345,43.2116651" id="Fill-1058" fill="#F5948D"></path>
                    <path d="M195.864471,133.547842 L195.414848,133.137713 C195.385925,132.885326 195.569981,132.65923 195.819772,132.638197 C198.83303,132.335859 202.351128,129.53331 202.38531,129.501762 L203.024247,129.567488 L202.955883,130.211601 C202.80338,130.335165 199.193254,133.213955 195.90917,133.542584 L195.864471,133.547842" id="Fill-1059" fill="#983222"></path>
                    <path d="M248.722709,65.1614554 C248.480806,65.1614554 248.233646,65.1561973 247.973338,65.1483102 L247.752471,64.9143264 L247.989114,64.6961167 C251.217981,64.8144231 252.485338,64.1413909 252.85082,63.8811167 C251.875324,62.0066167 249.71924,54.8346167 249.735016,54.4428909 L249.974289,54.2273102 L250.189897,54.4455199 C250.26352,54.9871005 252.39331,62.2327135 253.334625,63.8206489 L253.308331,64.0861812 C253.27152,64.1308747 252.332834,65.1614554 248.722709,65.1614554" id="Fill-1060" fill="#983222"></path>
                    <path d="M234.629282,52.6498909 C235.688918,51.4221328 238.436611,47.6442135 243.889925,49.403036 C243.889925,49.403036 243.416639,50.1128747 239.272751,51.0882457 C235.123604,52.0662457 234.629282,52.6498909 234.629282,52.6498909" id="Fill-1061" fill="#721813"></path>
                    <path d="M249.84282,50.0129715 C249.84282,50.0129715 252.177702,48.1884231 255.130485,48.6800522 C258.083268,49.1690522 258.330429,50.7964231 258.330429,50.7964231 C258.330429,50.7964231 255.824639,50.1786005 249.84282,50.0129715" id="Fill-1062" fill="#721813"></path>
                    <path d="M239.256974,67.8036328 C239.767072,67.8825038 242.257086,69.6544715 247.197674,69.6781328 C252.133002,69.7017941 254.801813,68.4109393 254.801813,68.4109393 C254.801813,68.4109393 252.472191,73.7951973 247.032023,74.176407 C241.589226,74.5549876 239.256974,67.8036328 239.256974,67.8036328" id="Fill-1063" fill="#FFFFFF"></path>
                    <path d="M228.865702,65.1614554 L228.839408,65.1614554 L228.639576,64.9116973 C228.936695,62.3825683 226.954149,58.8859554 226.935744,58.851778 L227.019883,58.5415522 L227.330149,58.6256812 C227.416918,58.775536 229.407352,62.2879231 229.091827,64.9616489 L228.865702,65.1614554" id="Fill-1064" fill="#983222"></path>
                    <path d="M228.005897,63.2080844 C227.582569,63.2080844 227.109282,63.1002941 226.922597,62.6586167 C226.578149,61.8488747 227.735072,60.813036 227.866541,60.6973586 L228.187324,60.7183909 L228.166289,61.0391328 C227.892834,61.2757457 227.15924,62.0513102 227.343296,62.4824715 C227.514205,62.8873425 228.379268,62.7480038 228.668499,62.6665038 L228.947212,62.8242457 L228.792079,63.1029231 C228.763156,63.1134393 228.408191,63.2080844 228.005897,63.2080844" id="Fill-1065" fill="#983222"></path>
                    <path d="M241.470904,55.510278 C241.470904,56.7879876 241.013394,57.8238264 240.448079,57.8238264 C239.888023,57.8238264 239.433142,56.7879876 239.433142,55.510278 C239.433142,54.2273102 239.888023,53.1914715 240.448079,53.1914715 C241.013394,53.1914715 241.470904,54.2273102 241.470904,55.510278" id="Fill-1066" fill="#1E1724"></path>
                    <path d="M254.473142,55.0528264 C254.473142,56.5829231 254.018261,57.8238264 253.458205,57.8238264 C252.898149,57.8238264 252.440639,56.5829231 252.440639,55.0528264 C252.440639,53.5201005 252.898149,52.2791973 253.458205,52.2791973 C254.018261,52.2791973 254.473142,53.5201005 254.473142,55.0528264" id="Fill-1067" fill="#1E1724"></path>
                    <path d="M227.437953,125.492488 C226.904191,129.296697 226.362541,133.395359 225.962876,137.039197 L225.615799,137.459842 C223.60696,128.907601 219.799632,112.862617 219.799632,112.862617 C217.982737,115.444326 212.553086,120.825955 212.553086,120.825955 C212.553086,120.825955 211.724834,118.883101 210.515324,116.716778 C213.420779,114.376939 219.917953,108.716633 220.97496,104.178923 C220.97496,104.178923 221.469282,118.591278 227.437953,125.492488" id="Fill-1068" fill="#E18726"></path>
                    <path d="M234.629282,84.4138586 C237.316499,86.9245844 239.945869,92.9529554 238.249925,97.488036 C238.086904,94.0361167 236.956275,88.2548747 231.513478,85.6626489 C223.478121,81.8426651 219.983688,70.0435683 224.387883,62.9767296 C224.724443,62.4325199 225.042597,61.8856812 225.337086,61.3309554 C225.415967,62.9767296 225.918177,64.7460683 226.846345,66.0474393 C227.104023,66.3944715 227.385366,66.7020683 227.693002,66.9781167 C227.340667,67.6327457 226.956779,68.5161005 226.557114,69.6781328 C224.387883,75.8800199 231.108555,81.1170522 234.629282,84.4138586" id="Fill-1069" fill="#661513"></path>
                    <path d="M262.156163,38.397907 C262.014177,40.6352135 258.906261,42.0732941 255.866709,42.2915038 C255.674765,41.736778 255.56696,41.4055199 255.56696,41.4055199 C255.56696,41.4055199 252.495855,42.6543102 243.734792,40.7272296 C243.734792,40.7272296 238.27096,45.6224876 235.086792,48.9166651 C233.248862,50.8095683 231.978876,53.8513586 231.232135,56.080778 C230.687855,57.7291812 230.414401,58.9306489 230.414401,58.9306489 C230.414401,58.9306489 230.025254,55.7626651 227.574681,56.4462135 C229.588779,51.4484231 231.08752,46.6346651 235.30766,43.2747618 C241.23952,38.5687941 249.898037,34.4543586 262.156163,38.397907" id="Fill-1070" fill="#661513"></path>
                    <path d="M268.469282,279.879778 C274.821841,292.357165 280.932499,306.590746 284.029897,313.194875 L283.906317,313.221165 C283.906317,313.221165 272.526401,294.210633 266.152806,285.11681 C259.779212,276.015101 253.405618,264.63402 252.377534,256.21323 C251.352079,247.792439 253.863128,236.527036 253.863128,236.527036 L249.729758,229.830891 C251.622904,229.728359 253.481869,229.631084 255.285618,229.518036 L256.934233,236.871439 C254.428443,245.975778 259.892275,263.043455 268.469282,279.879778" id="Fill-1071" fill="#66C8CE"></path>
                    <polyline id="Fill-1072" fill="#7A1715" points="286.062401 314.278036 285.933562 314.175504 286.062401 314.278036"></polyline>
                    <path d="M224.524611,315.592552 L223.588555,315.592552 C223.251995,315.587294 209.258485,269.077084 208.687911,257.919472 C208.112079,246.775004 214.830121,238.128117 214.830121,238.128117 L212.545198,229.610052 C213.628499,229.691552 214.822233,229.765165 216.123772,229.846665 C216.144806,234.068891 216.08696,241.193568 216.08696,241.193568 C216.08696,241.193568 211.874709,246.43323 214.146485,264.860117 C216.160583,281.128568 222.952247,309.225036 224.524611,315.592552" id="Fill-1073" fill="#66C8CE"></path>
                    <path d="M180.011995,311.044326 L176.543855,311.291455 L175.923324,311.336149 C175.923324,311.336149 172.728639,305.938746 166.473366,296.384842 C160.212834,286.823052 155.816527,277.07723 150.807576,263.879488 C145.803883,250.679117 152.017086,240.517907 152.017086,240.517907 C152.017086,240.517907 146.558513,229.029036 142.459324,217.195762 C138.828163,206.708552 132.162709,187.992472 130.690261,183.880665 C130.498317,183.354859 130.395772,183.063036 130.395772,183.063036 C130.395772,183.063036 128.460555,193.071762 127.329925,200.007149 C127.22738,200.63023 127.095911,201.466262 126.948667,202.488955 C125.373674,212.834197 121.411212,241.424923 121.411212,241.424923 C126.186149,253.255568 123.906485,266.001117 119.812555,276.241197 C115.713366,286.478649 103.208079,310.252988 103.208079,310.252988 L102.916219,310.310826 L100.131716,310.823488 C100.131716,310.823488 103.768135,227.880149 103.99952,210.704681 C104.225646,193.529213 104.336079,157.122375 104.336079,157.122375 L107.75952,144.597665 L107.738485,144.413633 C107.712191,144.234859 107.678009,143.90623 107.630681,143.448778 C107.501841,142.355101 107.302009,140.546326 107.04959,138.206488 C107.012779,137.896262 106.983855,137.583407 106.947044,137.260036 C106.039911,128.994359 104.591128,115.255036 103.636667,104.178923 C103.302737,100.245891 103.024023,96.6493747 102.861002,93.7442941 C102.697981,90.8339554 102.716387,87.8394876 102.855744,84.9081167 C103.034541,80.8515199 103.449981,76.8869393 103.925897,73.3955844 C104.935576,65.9738264 106.229226,60.5948264 106.229226,60.5948264 L106.276555,60.5790522 C108.88752,60.0111812 111.627324,59.3775844 114.330317,58.7413586 C113.904359,61.9961005 113.567799,67.3566973 113.312751,72.872407 C113.120806,76.9079715 112.973562,81.019778 112.863128,84.4611812 C112.721142,89.3222618 112.64752,92.8346489 112.64752,92.8346489 L147.121198,92.2615199 C147.121198,89.3485522 147.32103,86.3908909 147.639184,83.5015844 C148.067772,79.6737135 148.725114,75.966778 149.445562,72.5937296 C150.681366,66.8098586 152.119632,62.0066167 152.974177,59.3565522 C155.195995,59.8402941 157.528247,60.3582135 159.802653,60.8708747 C159.147939,63.5735199 158.385422,67.9981812 157.651827,73.0406651 C157.136471,76.5688264 156.642149,80.4045844 156.213562,84.1430683 C155.543072,90.0321005 155.022457,95.7108102 154.856806,99.6596167 C154.641198,105.03073 154.904135,115.018423 155.232806,123.865117 C155.422121,128.926004 155.632471,133.610939 155.787604,136.849907 C155.798121,137.16802 155.816527,137.470359 155.832303,137.76481 C155.932219,139.962681 156.008471,141.300859 156.008471,141.300859 C156.008471,141.300859 156.079464,141.887133 156.213562,142.95452 C156.26089,143.233197 156.295072,143.535536 156.334513,143.858907 C158.10145,157.403681 166.302457,220.747584 167.722317,235.961794 C169.315716,253.029472 180.011995,311.044326 180.011995,311.044326" id="Fill-1074" fill="#A6DDEB"></path>
                    <path d="M126.948667,202.488955 C125.373674,212.834197 121.411212,241.424923 121.411212,241.424923 C126.186149,253.255568 123.906485,266.001117 119.812555,276.241197 C115.713366,286.478649 103.208079,310.252988 103.208079,310.252988 L102.916219,310.310826 C106.802429,300.877859 117.78531,273.641084 119.423408,262.812101 C121.411212,249.616988 119.423408,239.829101 119.423408,239.829101 L126.948667,202.488955" id="Fill-1075" fill="#66C8CE"></path>
                    <path d="M176.543855,311.291455 L175.923324,311.336149 C175.923324,311.336149 172.728639,305.938746 166.473366,296.384842 C160.212834,286.823052 155.816527,277.07723 150.807576,263.879488 C145.803883,250.679117 152.017086,240.517907 152.017086,240.517907 C152.017086,240.517907 146.558513,229.029036 142.459324,217.195762 C138.828163,206.708552 132.162709,187.992472 130.690261,183.880665 L130.882205,182.94473 L155.832303,239.603004 C153.047799,257.580326 158.848191,269.184875 161.969254,280.789423 C164.446121,289.98052 172.89166,304.897649 176.543855,311.291455" id="Fill-1076" fill="#66C8CE"></path>
                    <path d="M152.974177,59.3565522 L152.803268,59.8955038 C150.981114,65.6399393 147.121198,79.3214231 147.121198,92.2615199 L112.64752,92.8346489 C112.64752,92.8346489 113.1471,67.7484231 114.330317,58.7413586 C115.808023,58.3943264 117.372499,58.0288909 118.95538,57.6555683 C123.351688,56.6249876 127.89524,55.5786328 131.039967,55.0791167 C131.116219,56.4725038 131.245058,57.7370683 131.429114,58.1314231 C131.883995,59.1567457 132.946261,61.1705844 136.33289,60.6789554 C139.730037,60.1873264 140.868555,58.5836167 140.868555,58.2471005 C140.868555,58.1629715 140.921142,57.5845844 140.997394,56.7538102 C141.039464,56.7643264 146.492779,57.9395038 152.974177,59.3565522" id="Fill-1077" fill="#F79738"></path>
                    <path d="M103.134457,80.5938747 C102.774233,84.850278 102.616471,89.3853586 102.861002,93.7442941 C103.024023,96.6493747 103.302737,100.245891 103.636667,104.178923 L103.426317,104.092165 L103.415799,104.092165 C102.043268,104.060617 100.733841,103.86081 99.4875198,103.537439 C93.0113799,101.883778 88.5256736,97.159407 88.5256736,97.159407 C88.2969184,81.6822941 91.8754918,69.5887457 93.30324,67.4566005 C95.1963869,64.6146167 96.4874079,62.6796489 105.485114,60.7499393 C105.745422,60.6947296 106.010988,60.6395199 106.276555,60.5790522 L106.229226,60.5948264 C106.229226,60.5948264 104.044219,69.7175683 103.134457,80.5938747" id="Fill-1078" fill="#F79738"></path>
                    <path d="M180.69302,79.634278 C180.682485,87.1454231 178.23717,100.256407 178.23717,100.256407 C175.331716,101.539375 166.694233,102.790794 161.732611,103.429649 C159.571268,103.710955 158.106709,103.873955 158.106709,103.873955 C156.607967,108.748181 155.351128,123.079036 155.277506,123.844084 L155.277506,123.878262 L155.232806,123.865117 C154.948834,116.317165 154.722709,107.951584 154.785813,102.320197 C154.806848,101.344826 154.830513,100.456213 154.856806,99.6596167 C155.277506,89.6114554 157.954205,68.4424876 159.802653,60.8708747 C166.631128,62.4088586 180.711408,65.3034231 180.69302,79.634278" id="Fill-1079" fill="#F79738"></path>
                    <path d="M166.883548,84.1430683 C164.716946,90.5395038 162.413618,100.424665 161.732611,103.429649 C159.571268,103.710955 158.106709,103.873955 158.106709,103.873955 C156.607967,108.748181 155.351128,123.079036 155.277506,123.844084 L155.277506,123.878262 L155.232806,123.865117 C154.948834,116.317165 154.722709,107.951584 154.785813,102.320197 L154.856806,102.165084 C160.701897,89.4300522 166.883548,84.1430683 166.883548,84.1430683" id="Fill-1080" fill="#E18726"></path>
                    <path d="M103.636667,104.178923 L103.426317,104.092165 L103.415799,104.092165 C102.043268,104.060617 100.733841,103.86081 99.4875198,103.537439 C99.3823449,102.675117 99.8372261,87.8552618 103.134457,80.5938747 C102.774233,84.850278 102.616471,89.3853586 102.861002,93.7442941 C103.024023,96.6493747 103.302737,100.245891 103.636667,104.178923" id="Fill-1081" fill="#E18726"></path>
                    <path d="M152.974177,59.3565522 L152.803268,59.8955038 C148.385925,61.541278 141.504862,63.5630038 134.49496,63.4446973 C126.175632,63.3158747 121.16931,59.7403909 118.95538,57.6555683 C123.351688,56.6249876 127.89524,55.5786328 131.039967,55.0791167 C131.116219,56.4725038 131.245058,57.7370683 131.429114,58.1314231 C131.883995,59.1567457 132.946261,61.1705844 136.33289,60.6789554 C139.730037,60.1873264 140.868555,58.5836167 140.868555,58.2471005 C140.868555,58.1629715 140.921142,57.5845844 140.997394,56.7538102 C141.039464,56.7643264 146.492779,57.9395038 152.974177,59.3565522" id="Fill-1082" fill="#E18726"></path>
                    <path d="M155.832303,137.76481 C146.747827,139.80231 138.081422,140.480601 130.561422,140.480601 C119.62324,140.480601 111.054121,139.032004 107.04959,138.206488 C107.012779,137.896262 106.983855,137.583407 106.947044,137.260036 C113.346932,138.606101 133.256527,141.929197 155.787604,136.849907 C155.798121,137.16802 155.816527,137.470359 155.832303,137.76481" id="Fill-1083" fill="#CC4527"></path>
                    <path d="M156.334513,143.858907 C151.535911,144.786955 143.526848,145.94373 132.749058,146.143536 L132.749058,178.165149 C132.749058,178.420165 132.543967,178.622601 132.291548,178.622601 C132.044387,178.622601 131.834037,178.420165 131.834037,178.165149 L131.834037,146.164568 C130.953198,146.169826 130.077618,146.185601 129.244107,146.185601 C117.845785,146.185601 110.991016,145.107697 107.738485,144.413633 C107.712191,144.234859 107.678009,143.90623 107.630681,143.448778 C110.964723,144.17702 118.837058,145.470504 132.28366,145.239149 C143.282317,145.060375 151.409702,143.885197 156.213562,142.95452 C156.26089,143.233197 156.295072,143.535536 156.334513,143.858907" id="Fill-1084" fill="#CC4527"></path>
                    <path d="M158.106709,31.2784876 C156.34503,35.7215522 151.107324,36.0659554 151.107324,36.0659554 C151.107324,36.0659554 151.052107,36.2736489 150.944303,36.6496005 L150.944303,36.6601167 C150.279072,38.8422135 147.583967,46.5873425 141.659995,50.052407 C139.84573,51.1224231 137.744862,51.7849393 135.286401,51.7586489 C133.669338,51.7481328 132.202149,51.4563102 130.871688,50.9751973 C122.50766,47.9702135 119.704751,37.3147457 119.704751,37.3147457 L119.447072,37.3147457 C115.48724,37.1832941 113.949058,32.7165683 113.949058,28.9018425 C113.949058,27.9106973 114.056862,26.9642457 114.251436,26.1439876 L114.251436,26.1361005 C114.380275,25.6076651 114.540667,25.1370683 114.732611,24.7427135 C115.134904,23.9513747 115.660779,23.4781489 116.289198,23.5412457 C118.629338,23.7883747 119.136806,27.4663909 119.236723,29.5827618 C119.220946,30.0770199 119.220946,30.5660199 119.24724,31.060278 C119.24724,31.060278 119.310345,30.821036 119.436555,30.4056489 C120.017646,28.3550038 121.897646,21.9401651 123.454233,18.3173586 C125.336862,13.950536 125.84696,12.8568586 127.784806,13.6481973 C129.717394,14.439536 141.778317,16.0406167 143.826597,14.8943586 C143.826597,14.8943586 146.408639,15.9670038 148.122988,19.1980844 C148.443772,19.8921489 148.733002,20.6125038 148.998569,21.3381167 C149.669058,23.1968425 150.200191,25.116036 150.57882,26.7171167 L150.607744,26.827536 C150.660331,27.0825522 150.718177,27.3270522 150.773394,27.5662941 L150.78917,27.6556812 C151.16517,29.348778 151.336079,30.4871489 151.336079,30.4871489 C151.336079,30.4871489 153.158233,25.1449554 155.314317,24.5691973 C155.614065,24.4903264 155.913813,24.4903264 156.213562,24.5350199 C158.062009,24.8268425 159.629114,27.4558747 158.106709,31.2784876" id="Fill-1085" fill="#F1B5AB"></path>
                    <path d="M156.213562,24.5350199 C155.913813,24.4903264 155.614065,24.4903264 155.314317,24.5691973 C153.158233,25.1449554 151.336079,30.4871489 151.336079,30.4871489 C151.336079,30.4871489 150.836499,27.2271489 149.742681,23.6069715 C149.527072,22.8603264 149.269394,22.095278 148.998569,21.3381167 C148.759296,20.5362618 148.459548,19.8343102 148.122988,19.1980844 C146.408639,15.9670038 143.826597,14.8943586 143.826597,14.8943586 C141.778317,16.0406167 129.717394,14.439536 127.784806,13.6481973 C125.84696,12.8568586 125.336862,13.950536 123.454233,18.3173586 C122.678569,20.1208747 121.834541,22.6026812 121.093058,24.9057135 C120.049198,28.1657135 119.24724,31.060278 119.24724,31.060278 C119.24724,31.060278 119.273534,30.4398264 119.236723,29.5827618 C119.136806,27.4663909 118.629338,23.7883747 116.289198,23.5412457 C115.660779,23.4781489 115.134904,23.9513747 114.732611,24.7427135 C114.380275,25.3526489 114.256695,26.1282135 114.251436,26.1361005 C113.486289,24.6428102 114.411827,21.1488264 116.060443,17.4050844 C116.57317,16.232536 117.151632,15.0415844 117.774792,13.8742941 C120.385758,8.97903603 123.572555,6.7022941 126.186149,7.50414893 C126.186149,7.50414893 127.89524,1.36010055 135.104974,0.22172958 C142.30682,-0.914012355 148.488471,2.38805216 152.582401,8.4137941 C154.294121,10.932407 155.214401,14.1582296 155.698205,17.0606812 C156.368695,21.1120199 156.213562,24.5350199 156.213562,24.5350199" id="Fill-1086" fill="#654526"></path>
                    <polyline id="Fill-1087" fill="#983222" points="114.251436 26.1387296 114.251436 26.1439876 114.251436 26.1387296"></polyline>
                    <path d="M119.234093,29.5775038 C119.215688,30.0796489 119.220946,30.571278 119.24724,31.0550199 C119.24724,31.0550199 119.273534,30.4450844 119.234093,29.5775038" id="Fill-1088" fill="#983222"></path>
                    <path d="M103.20282,310.258246 C103.20282,310.258246 96.5505128,310.639455 88.9411142,316.783504 C88.9411142,316.783504 99.9029603,317.083213 104.909282,316.744068 C104.909282,316.744068 104.341338,313.097601 103.20282,310.258246" id="Fill-1089" fill="#D24C27"></path>
                    <path d="M175.536806,311.099536 C175.536806,311.099536 177.926904,308.825423 183.275044,310.305568 C188.620555,311.788342 190.668834,316.907068 190.668834,316.907068 L176.785758,316.907068 L175.536806,311.099536" id="Fill-1090" fill="#D24C27"></path>
                    <path d="M102.308834,138.887407 C102.371939,139.925875 102.516555,141.040584 102.753198,142.210504 C97.6259254,141.193068 86.8218414,133.794972 86.8218414,133.794972 C86.8218414,133.794972 86.1197995,132.136052 85.6202191,128.886568 C85.3125827,126.888504 85.0654219,124.26473 85.1127505,121.052052 C85.2205547,112.631262 85.9120792,101.93373 88.5256736,97.159407 C88.5256736,97.159407 93.0113799,101.883778 99.4875198,103.537439 C100.733841,103.86081 102.043268,104.060617 103.415799,104.092165 L103.426317,104.092165 C104.294009,107.136584 103.097646,119.577165 102.979324,120.733939 L102.974065,120.825955 C104.909282,121.698794 107.00489,124.280504 107.585981,125.040294 C106.621002,126.091907 101.780331,130.324649 102.308834,138.887407" id="Fill-1091" fill="#F1B5AB"></path>
                    <path d="M113.312751,72.872407 C113.120806,76.9079715 112.973562,81.019778 112.863128,84.4611812 L102.855744,84.9081167 C103.034541,80.8515199 103.449981,76.8869393 103.925897,73.3955844 C105.829562,72.8671489 109.208303,72.2440683 113.312751,72.872407" id="Fill-1092" fill="#D64E27"></path>
                    <path d="M157.651827,73.0406651 C157.136471,76.5688264 156.642149,80.4045844 156.213562,84.1430683 C153.849758,84.0142457 150.255408,83.7881489 147.639184,83.5015844 C148.067772,79.6737135 148.725114,75.966778 149.445562,72.5937296 C151.651604,72.6042457 154.775296,72.7015199 157.651827,73.0406651" id="Fill-1093" fill="#D64E27"></path>
                    <path d="M111.537925,102.483197 C111.753534,106.119149 113.115548,128.660472 114.322429,134.909681 L148.669897,132.664488 L147.636555,100.774326 C145.083436,101.108213 133.135576,102.564697 117.903632,102.564697 C115.771212,102.564697 113.628275,102.541036 111.537925,102.483197 Z M113.951688,135.848246 L113.512583,135.488068 C112.171604,129.312472 110.662345,103.150972 110.59924,102.036262 L110.728079,101.697117 L111.067268,101.560407 C113.307492,101.620875 115.605562,101.657681 117.903632,101.657681 C134.962988,101.657681 147.883716,99.8199876 148.009925,99.8042135 L148.36489,99.9067457 L148.527911,100.240633 L149.590415,133.074617 C149.598065,133.321746 149.408751,133.52681 149.166848,133.542584 L113.98324,135.848246 L113.951688,135.848246 L113.951688,135.848246 Z" id="Fill-1094" fill="#CC4527"></path>
                    <path d="M158.106709,104.331407 L157.993646,104.318262 C157.754373,104.255165 157.604499,104.002778 157.664974,103.763536 C157.856918,103.032665 158.117226,101.907439 158.440639,100.527197 C159.873646,94.3463425 162.550345,82.8390683 165.445282,78.5511167 L166.07896,78.4275522 L166.202541,79.0585199 C163.397002,83.2071328 160.751855,94.6066167 159.326737,100.732262 C159.005953,102.12302 158.740387,103.253504 158.548443,103.989633 L158.106709,104.331407" id="Fill-1095" fill="#CC4527"></path>
                    <path d="M141.659995,50.052407 C141.560079,51.0856167 141.402317,52.660407 141.249813,54.1510683 C141.157785,55.108036 141.068387,56.0255683 140.997394,56.7538102 C140.921142,57.5845844 140.868555,58.1629715 140.868555,58.2471005 C140.868555,58.5836167 139.730037,60.1873264 136.33289,60.6789554 C132.946261,61.1705844 131.883995,59.1567457 131.429114,58.1314231 C131.245058,57.7370683 131.116219,56.4725038 131.039967,55.0791167 C131.008415,54.697907 130.992639,54.3088102 130.971604,53.9249715 C130.916387,52.7813425 130.882205,51.6692618 130.871688,50.9751973 C132.202149,51.4563102 133.669338,51.7481328 135.286401,51.7586489 C137.744862,51.7849393 139.84573,51.1224231 141.659995,50.052407" id="Fill-1096" fill="#F1B5AB"></path>
                    <path d="M141.659995,50.052407 C141.560079,51.0856167 141.402317,52.660407 141.249813,54.1510683 C136.154093,55.754778 132.678065,54.7268264 130.971604,53.9249715 C130.916387,52.7813425 130.882205,51.6692618 130.871688,50.9751973 C132.202149,51.4563102 133.669338,51.7481328 135.286401,51.7586489 C137.744862,51.7849393 139.84573,51.1224231 141.659995,50.052407" id="Fill-1097" fill="#F5948D"></path>
                    <path d="M119.447072,37.3147457 C115.48724,37.1832941 113.949058,32.7165683 113.949058,28.9018425 C113.949058,27.9106973 114.056862,26.9642457 114.251436,26.1439876 L114.251436,26.1361005 C114.380275,25.6076651 114.540667,25.1370683 114.732611,24.7427135 C115.134904,23.9513747 115.660779,23.4781489 116.289198,23.5412457 C118.629338,23.7883747 119.136806,27.4663909 119.236723,29.5827618 C119.220946,30.0770199 119.220946,30.5660199 119.24724,31.060278 C119.24724,31.060278 119.310345,30.821036 119.436555,30.4056489 C119.192023,32.8164715 119.192023,35.1221328 119.447072,37.3147457" id="Fill-1098" fill="#F5948D"></path>
                    <path d="M158.106709,31.2784876 C156.34503,35.7215522 151.107324,36.0659554 151.107324,36.0659554 C151.107324,36.0659554 151.052107,36.2736489 150.944303,36.6496005 C151.570093,32.614036 151.096806,29.2278425 150.78917,27.6556812 C151.16517,29.348778 151.336079,30.4871489 151.336079,30.4871489 C151.336079,30.4871489 153.158233,25.1449554 155.314317,24.5691973 C155.614065,24.4903264 155.913813,24.4903264 156.213562,24.5350199 C158.062009,24.8268425 159.629114,27.4558747 158.106709,31.2784876" id="Fill-1099" fill="#F5948D"></path>
                    <path d="M102.979324,120.733939 C101.222904,120.778633 100.131716,121.430633 100.131716,121.430633 C100.660219,118.633342 99.8766666,108.20923 99.4875198,103.537439 C100.733841,103.86081 102.043268,104.060617 103.415799,104.092165 L103.426317,104.092165 C104.294009,107.136584 103.097646,119.577165 102.979324,120.733939" id="Fill-1100" fill="#F5948D"></path>
                    <path d="M102.753198,142.210504 C97.6259254,141.193068 86.8218414,133.794972 86.8218414,133.794972 C86.8218414,133.794972 86.1197995,132.136052 85.6202191,128.886568 C88.1785967,131.165939 95.1516876,136.886713 102.308834,138.887407 C102.371939,139.925875 102.516555,141.040584 102.753198,142.210504" id="Fill-1101" fill="#F5948D"></path>
                    <path d="M178.23717,100.256407 C177.934792,102.272875 176.617478,110.509633 173.756723,119.684955 C170.454233,130.272068 167.267436,138.682342 167.267436,138.682342 C167.267436,138.682342 167.267436,141.866101 163.170876,152.450584 C160.457366,159.470101 157.888471,163.721246 156.468611,165.932262 C156.326625,164.767601 155.750792,162.036036 153.450093,157.266972 C151.811995,153.883407 149.9951,151.987875 148.522653,150.938891 C147.710177,150.360504 147.013394,150.042391 146.492779,149.85573 C148.796107,143.46981 154.522876,135.154181 154.522876,135.154181 C154.522876,135.154181 154.712191,130.995052 155.277506,123.844084 C155.351128,123.079036 156.607967,108.748181 158.106709,103.873955 C158.106709,103.873955 159.581785,103.710955 161.758904,103.429649 C166.731044,102.790794 175.331716,101.539375 178.23717,100.256407" id="Fill-1102" fill="#F1B5AB"></path>
                    <path d="M161.758904,103.429649 C159.526569,112.002923 156.468611,130.088036 156.334513,137.362568 L148.522653,150.938891 C147.710177,150.360504 147.013394,150.042391 146.492779,149.85573 C148.796107,143.46981 154.522876,135.154181 154.522876,135.154181 C154.522876,135.154181 154.712191,130.995052 155.277506,123.844084 C155.351128,123.079036 156.607967,108.748181 158.106709,103.873955 C158.106709,103.873955 159.581785,103.710955 161.758904,103.429649" id="Fill-1103" fill="#F5948D"></path>
                    <path d="M129.954037,29.5406973 C129.954037,30.8578425 129.580667,31.9304876 129.115268,31.9304876 C128.649869,31.9304876 128.276499,30.8578425 128.276499,29.5406973 C128.276499,28.2209231 128.649869,27.148278 129.115268,27.148278 C129.580667,27.148278 129.954037,28.2209231 129.954037,29.5406973" id="Fill-1104" fill="#1E1724"></path>
                    <path d="M144.736359,29.5406973 C144.736359,30.8578425 144.360359,31.9304876 143.89759,31.9304876 C143.429562,31.9304876 143.056191,30.8578425 143.056191,29.5406973 C143.056191,28.2209231 143.429562,27.148278 143.89759,27.148278 C144.360359,27.148278 144.736359,28.2209231 144.736359,29.5406973" id="Fill-1105" fill="#1E1724"></path>
                    <path d="M138.880751,38.9263425 C138.141897,38.9263425 137.261058,38.8579876 136.227716,38.6739554 L136.04103,38.4136812 L136.303967,38.2243909 C139.574904,38.808036 141.231408,38.2086167 141.778317,37.9325683 C139.212051,34.6383909 138.617813,27.8397135 138.594149,27.5452618 L138.801869,27.3007618 L139.043772,27.5110844 C139.04903,27.5820683 139.682709,34.7540683 142.293674,37.8484393 L142.346261,38.0193264 L142.256862,38.1770683 C142.204275,38.2138747 141.241925,38.9263425 138.880751,38.9263425" id="Fill-1106" fill="#983222"></path>
                    <path d="M152.645506,33.342278 L152.608695,33.3396489 L152.422009,33.0741167 C152.884779,30.2768264 155.303799,27.1377618 155.406345,27.0089393 L155.721869,26.9695038 L155.76131,27.2902457 C155.740275,27.3191651 153.315995,30.4634876 152.871632,33.1529876 L152.645506,33.342278" id="Fill-1107" fill="#983222"></path>
                    <path d="M117.57759,33.673536 L117.564443,33.673536 L117.351464,33.426407 C117.57759,30.2242457 115.944751,26.2675522 115.928974,26.2281167 L116.047296,25.9336651 L116.347044,26.0519715 C116.418037,26.2176005 118.042988,30.1480038 117.803716,33.4632135 L117.57759,33.673536" id="Fill-1108" fill="#983222"></path>
                    <path d="M116.725674,31.7832618 L116.191911,31.6412941 C116.063072,31.554536 115.910569,31.3836489 115.910569,31.0550199 C115.910569,30.0665038 117.022792,29.3724393 117.07538,29.3435199 L117.385646,29.4197618 L117.312023,29.7326167 C117.301506,29.7405038 116.36282,30.3215199 116.36282,31.0550199 L116.44959,31.2679715 C116.638904,31.3994231 117.135855,31.2968909 117.435604,31.1838425 L117.727464,31.3126651 L117.595995,31.6097457 C117.53289,31.636036 117.127967,31.7832618 116.725674,31.7832618" id="Fill-1109" fill="#983222"></path>
                    <path d="M154.112695,32.0198747 C153.599967,32.0198747 153.076723,31.8042941 152.987324,31.7622296 L152.871632,31.467778 L153.17138,31.3468425 C153.444834,31.4651489 154.29938,31.7306812 154.585981,31.4073102 C154.791072,31.1733264 154.231016,30.3662135 153.762988,29.8929876 L153.762988,29.5748747 L154.086401,29.5748747 C154.328303,29.8141167 155.498373,31.0576489 154.92517,31.7070199 C154.720079,31.9436328 154.417702,32.0198747 154.112695,32.0198747" id="Fill-1110" fill="#983222"></path>
                    <path d="M124.314037,25.1475844 L124.616415,24.9267457 C124.824135,24.790036 125.118625,24.5954876 125.486737,24.4140844 C125.852219,24.214278 126.304471,24.0433909 126.780387,23.8462135 C127.027548,23.7647135 127.287855,23.6911005 127.550792,23.6201167 C127.81373,23.5517618 128.079296,23.4571167 128.358009,23.4255683 C128.634093,23.3887618 128.910177,23.3493264 129.183632,23.3098909 C129.451827,23.2599393 129.725282,23.2573102 129.990848,23.2678264 C130.514093,23.2941167 131.003156,23.2704554 131.418597,23.3677296 C132.246848,23.5438747 132.770093,23.7095038 132.770093,23.7095038 L132.996219,24.1301489 L132.678065,24.3693909 L132.61496,24.3720199 C132.61496,24.3720199 132.086457,24.3851651 131.337086,24.3378425 C130.961086,24.2905199 130.514093,24.3983102 130.046065,24.4009393 C129.812051,24.4061973 129.570149,24.4351167 129.322988,24.4850683 C129.075827,24.5218747 128.828667,24.5613102 128.578876,24.6033747 C128.326457,24.624407 128.084555,24.705907 127.840023,24.7584876 C127.598121,24.8189554 127.356219,24.8741651 127.124834,24.9293747 C126.672583,25.0792296 126.220331,25.1607296 125.867995,25.3079554 C125.502513,25.436778 125.194876,25.5261651 124.989785,25.6102941 L124.650597,25.7364876 L124.206233,25.5340522 L124.295632,25.1607296 L124.314037,25.1475844" id="Fill-1111" fill="#51351B"></path>
                    <path d="M139.522317,24.4298586 L139.824695,24.1801005 L140.142848,23.9093102 L140.629282,23.5727941 C140.992135,23.3098909 141.478569,23.1100844 141.991296,22.8787296 C142.254233,22.7919715 142.538205,22.7131005 142.824806,22.6368586 C143.106149,22.5474715 143.400639,22.4817457 143.703016,22.4712296 C144.000135,22.4396812 144.302513,22.4160199 144.597002,22.3871005 C144.888862,22.3502941 145.180723,22.421278 145.459436,22.4291651 C145.73552,22.4633425 146.003716,22.4948909 146.261394,22.5264393 C146.516443,22.5369554 146.742569,22.6368586 146.952918,22.6973264 C147.802205,22.9838909 148.328079,23.2099876 148.328079,23.2099876 L148.509506,23.6569231 L148.180834,23.8619876 L148.125618,23.8619876 C148.125618,23.8593586 147.560303,23.8435844 146.768862,23.7594554 L146.127296,23.7200199 C145.90117,23.7226489 145.664527,23.727907 145.417366,23.7331651 C145.175464,23.7463102 144.920415,23.6989876 144.667995,23.7568264 C144.415576,23.7883747 144.160527,23.8251812 143.902848,23.8514715 C143.384862,23.8856489 142.895799,24.0828264 142.414625,24.1538102 C141.954485,24.3246973 141.499604,24.4193425 141.131492,24.5770844 L140.605618,24.7637457 L140.158625,24.9451489 C139.916723,25.031907 139.785254,25.0608264 139.785254,25.0608264 L139.372443,24.787407 L139.493394,24.4482618 L139.522317,24.4298586" id="Fill-1112" fill="#51351B"></path>
                    <path d="M144.433981,40.3460199 C144.433981,40.3460199 144.134233,41.5448586 143.450597,43.043407 C142.317338,45.5593909 140.121813,48.9271812 136.472247,49.071778 C133.153981,49.2006005 131.042597,46.7766328 129.835716,44.6497457 C128.904918,43.0223747 128.505254,41.5632618 128.505254,41.5632618 C128.734009,41.4843909 139.430289,42.0916973 144.433981,40.3460199" id="Fill-1113" fill="#AA2423"></path>
                    <path d="M144.433981,40.3460199 C144.433981,40.3460199 144.134233,41.5448586 143.450597,43.043407 C137.910513,45.2386489 132.53082,44.9862618 129.835716,44.6497457 C128.904918,43.0223747 128.505254,41.5632618 128.505254,41.5632618 C128.734009,41.4843909 139.430289,42.0916973 144.433981,40.3460199" id="Fill-1114" fill="#FFFFFF"></path>
                    <path d="M125.384191,151.314842 C124.09317,151.314842 122.194765,150.925746 119.802037,149.343068 L119.741562,149.024955 L120.054457,148.961859 C124.424471,151.859052 127.085394,150.555052 127.109058,150.539278 L127.414065,150.64181 L127.316779,150.944149 C127.261562,150.975697 126.585813,151.314842 125.384191,151.314842" id="Fill-1115" fill="#983222"></path>
                    <path d="M135.178597,165.569455 C135.743911,165.569455 136.33289,165.614149 136.956051,165.708794 C136.343408,165.887568 135.733394,165.795552 135.178597,165.569455" id="Fill-1116" fill="#761815"></path>
                    <path d="M121.093058,24.9057135 C120.049198,28.1657135 119.24724,31.060278 119.24724,31.060278 C119.24724,31.060278 119.273534,30.4398264 119.236723,29.5827618 C119.136806,27.4663909 118.629338,23.7883747 116.289198,23.5412457 C115.660779,23.4781489 115.134904,23.9513747 114.732611,24.7427135 C114.380275,25.3526489 114.256695,26.1282135 114.251436,26.1361005 C113.486289,24.6428102 114.411827,21.1488264 116.060443,17.4050844 C116.799296,19.3190199 118.311184,22.3502941 121.093058,24.9057135" id="Fill-1117" fill="#4F331B"></path>
                    <path d="M156.213562,24.5350199 C155.913813,24.4903264 155.614065,24.4903264 155.314317,24.5691973 C153.158233,25.1449554 151.336079,30.4871489 151.336079,30.4871489 C151.336079,30.4871489 150.836499,27.2271489 149.742681,23.6069715 C152.274765,21.4827135 154.252051,19.1086973 155.698205,17.0606812 C156.368695,21.1120199 156.213562,24.5350199 156.213562,24.5350199" id="Fill-1118" fill="#4F331B"></path>
                    <path d="M139.861506,320.322181 L139.898317,320.311665 C139.806289,320.040875 139.711632,319.859472 139.709002,319.854213 L139.861506,320.322181" id="Fill-1119" fill="#B75349"></path>
                    <path d="M139.861506,320.322181 L139.709002,319.854213 C139.117394,318.211068 137.823744,316.578439 136.848247,316.907068 C135.147044,317.47231 137.608135,323.726778 139.42503,322.735633 L139.916723,322.141472 C140.09552,321.668246 140.05082,321.010988 139.861506,320.322181" id="Fill-1120" fill="#1DA8B7"></path>
                    <path d="M166.323492,319.21273 C166.24724,318.957713 166.128918,318.786826 166.128918,318.786826 C166.128918,318.786826 166.202541,318.965601 166.323492,319.21273" id="Fill-1121" fill="#732723"></path>
                    <path d="M174.035436,318.69481 C173.97759,318.263649 173.751464,317.995488 173.751464,317.995488 C173.751464,317.995488 173.854009,318.308342 174.035436,318.69481" id="Fill-1122" fill="#732723"></path>
                    <polyline id="Fill-1123" fill="#732723" points="175.536806 315.592552 175.305422 315.547859 175.536806 315.592552"></polyline>
                    <path d="M175.531548,312.261568 L175.531548,315.592552 L175.305422,315.542601 L174.992527,315.49002 C171.674261,315.043084 159.345142,316.938617 150.060834,318.510778 C145.393702,319.299488 141.494345,320.019842 139.903576,320.306407 C139.80366,320.040875 139.711632,319.859472 139.711632,319.859472 C139.117394,318.211068 137.818485,316.578439 136.845618,316.907068 C139.456583,316.00531 142.05966,315.258665 144.60752,314.643472 C161.267212,310.618423 175.531548,312.261568 175.531548,312.261568" id="Fill-1124" fill="#A6D6B4"></path>
                    <path d="M139.916723,322.141472 L139.42503,322.735633 C139.661674,322.60681 139.819436,322.396488 139.916723,322.141472" id="Fill-1125" fill="#732723"></path>
                    <line x1="139.709002" y1="319.854213" x2="139.709002" y2="319.854213" id="Fill-1126" fill="#732723"></line>
                    <path d="M150.060834,318.510778 C145.393702,319.299488 141.494345,320.019842 139.903576,320.306407 C139.80366,320.040875 139.711632,319.859472 139.711632,319.859472 C139.117394,318.211068 137.818485,316.578439 136.845618,316.907068 C139.456583,316.00531 142.05966,315.258665 144.60752,314.643472 C146.337646,315.95273 148.341226,317.343488 150.060834,318.510778" id="Fill-1127" fill="#63C4BA"></path>
                    <path d="M156.434429,314.56723 L156.187268,314.585633 C155.543072,314.585633 154.969869,314.120294 154.846289,313.468294 L120.630289,124.125391 C120.504079,123.381375 120.995772,122.671536 121.731995,122.534826 C122.468219,122.406004 123.186037,122.897633 123.325394,123.633762 L157.538765,312.974036 C157.670233,313.718052 157.18117,314.433149 156.434429,314.56723" id="Fill-1128" fill="#D0918E"></path>
                    <path d="M156.434429,314.56723 L156.187268,314.585633 C155.543072,314.585633 154.969869,314.120294 154.846289,313.468294 L139.327744,227.572552 C140.458373,229.000117 141.678401,230.54073 142.932611,232.147068 L157.538765,312.974036 C157.670233,313.718052 157.18117,314.433149 156.434429,314.56723" id="Fill-1129" fill="#B97B7B"></path>
                    <path d="M176.144191,319.859472 C175.150289,320.56931 174.414065,319.480891 174.038065,318.689552 C173.988107,318.324117 173.819827,318.079617 173.76724,318.011262 C173.785646,318.074359 173.875044,318.355665 174.038065,318.689552 C174.085394,319.012923 174.038065,319.40202 173.756723,319.859472 C173.067827,320.908455 169.08696,318.781568 169.08696,318.781568 C169.08696,318.781568 169.08696,319.814778 168.058876,320.46152 C167.320023,320.918972 166.646904,319.848955 166.318233,319.21273 C166.24724,318.957713 166.128918,318.781568 166.128918,318.781568 C166.128918,318.781568 166.202541,318.965601 166.318233,319.21273 C166.483883,319.735907 166.452331,320.640294 164.764275,321.173988 C162.258485,321.975842 160.77552,320.46152 160.77552,320.46152 C160.77552,320.46152 160.43896,321.518391 158.737758,321.975842 C157.023408,322.433294 155.098709,320.46152 155.098709,320.46152 C155.098709,320.46152 155.098709,321.565713 154.328303,322.341278 C154.149506,322.541084 153.912862,322.714601 153.610485,322.843423 C152.222177,323.445472 150.200191,321.862794 149.989841,321.699794 C150.045058,321.82073 150.279072,322.60681 147.468275,323.279842 C144.391911,324.002826 142.233198,322.735633 142.233198,322.735633 C140.639799,323.952875 139.430289,322.735633 139.430289,322.735633 C139.666932,322.60681 139.819436,322.396488 139.919352,322.141472 C140.211212,321.518391 140.056079,320.784891 139.903576,320.306407 C141.612667,319.993552 145.982681,319.202213 151.117841,318.334633 C160.257534,316.79402 171.797841,315.058859 174.992527,315.49002 L175.305422,315.542601 L175.531548,315.592552 C175.531548,315.592552 177.616639,318.792084 176.144191,319.859472" id="Fill-1130" fill="#FFC40C"></path>
                    <path d="M154.328303,322.341278 C154.149506,322.541084 153.912862,322.714601 153.610485,322.843423 C152.222177,323.445472 150.200191,321.862794 149.989841,321.699794 C150.045058,321.82073 150.279072,322.60681 147.468275,323.279842 C144.391911,324.002826 142.233198,322.735633 142.233198,322.735633 C140.639799,323.952875 139.430289,322.735633 139.430289,322.735633 C139.666932,322.60681 139.819436,322.396488 139.919352,322.141472 C140.211212,321.518391 140.056079,320.784891 139.903576,320.306407 C141.612667,319.993552 145.982681,319.202213 151.117841,318.334633 C152.017086,319.804262 153.21345,321.19502 154.328303,322.341278" id="Fill-1131" fill="#F7981D"></path>
                    <path d="M129.499156,141.887133 L129.052163,142.210504 L129.194149,142.441859 C130.364219,144.355794 129.123156,146.288133 128.778709,146.766617 L128.697198,146.871778 L128.833925,147.226697 C128.996946,147.710439 129.062681,148.125826 129.052163,148.480746 C129.015352,150.139665 127.47717,150.657584 127.211604,150.749601 C126.877674,150.857391 126.985478,153.362859 122.888918,153.023713 C118.78973,152.681939 114.012163,147.32923 114.012163,147.32923 C109.579044,144.942068 102.753198,142.210504 102.753198,142.210504 C102.532331,141.127342 102.387716,140.099391 102.32724,139.12402 C101.685674,130.395633 106.610485,126.102423 107.585981,125.040294 L107.75952,124.808939 L117.538149,132.309568 C124.708443,126.630859 127.329925,128.213536 129.262513,131.289504 C130.8191,133.773939 129.862009,137.215342 129.443939,138.450988 L129.278289,138.87952 L129.262513,138.924213 C130.395772,140.525294 129.935632,141.450713 129.499156,141.887133" id="Fill-1132" fill="#F7981D"></path>
                    <path d="M128.833925,147.226697 C128.213394,147.442278 127.203716,147.710439 125.936359,147.710439 C124.137869,147.710439 121.839799,147.176746 119.49966,145.173423 L119.475995,144.850052 L119.79152,144.823762 C123.704023,148.167891 127.47717,147.242472 128.778709,146.766617 L128.697198,146.871778 L128.833925,147.226697" id="Fill-1133" fill="#983222"></path>
                    <path d="M129.052163,142.210504 L129.194149,142.441859 C128.960135,142.486552 128.676163,142.507584 128.358009,142.507584 C126.990737,142.507584 124.892499,141.963375 122.058037,139.652455 L122.034373,139.334342 L122.352527,139.310681 C126.146709,142.394536 128.552583,142.184213 129.499156,141.887133 L129.052163,142.210504" id="Fill-1134" fill="#983222"></path>
                    <path d="M129.443939,138.450988 L129.278289,138.87952 C128.10559,138.653423 125.986317,136.592262 124.629562,133.839665 L124.726848,133.52681 L125.034485,133.639859 C126.472751,136.568601 128.670904,138.41681 129.443939,138.450988" id="Fill-1135" fill="#983222"></path>
                    <path d="M129.052163,148.480746 C129.015352,150.139665 127.47717,150.657584 127.211604,150.749601 C126.877674,150.857391 126.985478,153.362859 122.888918,153.023713 C118.78973,152.681939 114.012163,147.32923 114.012163,147.32923 C109.579044,144.942068 102.753198,142.210504 102.753198,142.210504 C102.532331,141.127342 102.387716,140.099391 102.32724,139.12402 C105.853226,141.358697 120.24903,150.796923 129.052163,148.480746" id="Fill-1136" fill="#DD8426"></path>
                    <path d="M156.526457,166.594778 C156.526457,166.594778 155.750792,167.670052 154.220499,169.620794 C154.00489,169.896842 153.75773,170.209697 153.510569,170.530439 C152.435156,171.873875 151.091548,173.532794 149.469226,175.467762 C144.802093,181.049197 140.245394,186.622746 135.814904,187.874165 C132.354653,188.849536 129.81731,188.158101 129.643772,186.741052 C129.591184,186.412423 129.667436,186.046988 129.909338,185.655262 L130.077618,185.384472 L129.709506,185.210955 L129.698988,185.210955 C128.915436,184.81923 127.258932,183.70452 127.963604,181.506649 L127.911016,181.461955 L127.60338,181.133326 C126.909226,180.357762 125.539324,178.520068 126.246625,176.748101 L126.257142,176.732326 L126.367576,176.500972 L126.128303,176.243326 C125.520918,175.536117 123.972219,173.375052 125.455184,171.145633 C127.095911,168.690117 130.114429,165.527391 135.178597,165.569455 C135.743911,165.569455 136.33289,165.614149 136.956051,165.708794 C136.956051,165.708794 141.504862,157.721794 143.206065,154.653713 L143.332275,154.427617 C143.482149,154.154197 143.626765,153.896552 143.763492,153.646794 C145.088695,151.154472 145.711855,149.650665 145.711855,149.650665 C145.856471,149.666439 146.127296,149.726907 146.492779,149.85573 C147.055464,150.060794 147.841646,150.420972 148.74089,151.10452 C150.171268,152.177165 151.888247,154.041149 153.450093,157.266972 C155.650876,161.825713 156.268779,164.52573 156.442317,165.769262 L156.468611,165.932262 C156.526457,166.373939 156.526457,166.594778 156.526457,166.594778" id="Fill-1137" fill="#F7981D"></path>
                    <path d="M131.926065,173.451294 L131.757785,173.722084 C129.622737,174.205826 127.366737,175.741181 126.257142,176.732326 L126.367576,176.500972 L126.128303,176.243326 C127.340443,175.207488 129.551744,173.758891 131.65524,173.275149 L131.926065,173.451294" id="Fill-1138" fill="#983222"></path>
                    <path d="M134.147883,177.907504 L133.958569,178.165149 C131.063632,178.530584 128.860219,180.428746 127.911016,181.461955 L127.60338,181.133326 C128.623576,180.029133 130.871688,178.088907 133.892834,177.707697 L134.147883,177.907504" id="Fill-1139" fill="#983222"></path>
                    <path d="M134.639576,183.346972 C132.646513,185.082133 130.971604,185.529068 129.909338,185.655262 L130.077618,185.384472 L129.709506,185.210955 C130.711296,185.11631 132.349394,184.73773 134.347716,182.99731 L134.665869,183.020972 L134.639576,183.346972" id="Fill-1140" fill="#983222"></path>
                    <path d="M148.74089,151.10452 C146.101002,154.498601 138.746653,165.159326 136.956051,165.708794 C136.956051,165.708794 141.504862,157.721794 143.206065,154.653713 L143.332275,154.427617 C143.482149,154.154197 143.626765,153.896552 143.763492,153.646794 C145.088695,151.154472 145.711855,149.650665 145.711855,149.650665 C145.856471,149.666439 146.127296,149.726907 146.492779,149.85573 C147.055464,150.060794 147.841646,150.420972 148.74089,151.10452" id="Fill-1141" fill="#DD8426"></path>
                    <path d="M156.526457,166.594778 C156.526457,166.594778 155.750792,167.670052 154.220499,169.620794 C154.00489,169.896842 153.75773,170.209697 153.510569,170.530439 C152.435156,171.873875 151.091548,173.532794 149.469226,175.467762 C144.802093,181.049197 140.245394,186.622746 135.814904,187.874165 C132.354653,188.849536 129.81731,188.158101 129.643772,186.741052 C131.381785,186.154778 133.682485,185.373955 136.698373,184.335488 C144.391911,181.698568 153.25552,170.220213 156.442317,165.769262 L156.468611,165.932262 C156.526457,166.373939 156.526457,166.594778 156.526457,166.594778" id="Fill-1142" fill="#DD8426"></path>
                    <path d="M221.889981,310.421246 C220.825086,313.789036 220.293953,316.41281 220.293953,316.41281 C220.293953,316.41281 226.438792,316.41281 229.394205,315.84231 L226.3231,310.02952 L221.889981,310.421246" id="Fill-1143" fill="#D24C27"></path>
                    <path d="M15.4896456,214.082988 L12.4684988,318.247938 C12.4684988,318.247938 10.4254778,318.226842 7.98279249,318.216326 C4.70133794,318.192665 0.699435843,318.187407 0.0552400387,318.247938 C-0.922885835,318.329375 11.3694219,240.15773 14.6797995,219.196455 C15.1925268,215.957488 15.4896456,214.082988 15.4896456,214.082988" id="Fill-1144" fill="#EA6B24"></path>
                    <polyline id="Fill-1145" fill="#EA6B24" points="50.7126946 318.247875 36.3247785 318.247875 33.6533379 312.214246 34.1792121 301.482536 46.6923869 301.482536 50.7126946 318.247875"></polyline>
                    <g id="Group-1148" transform="translate(5.379716, 212.744810)">
                        <mask id="mask-2" fill="white">
                            <use xlink:href="#path-1"></use>
                        </mask>
                        <g id="Clip-1147"></g>
                        <polygon id="Fill-1146" fill="#BD4F1A" mask="url(#mask-2)" points="2.60307692 105.503065 10.1099301 105.503065 10.1099301 1.33817742 2.60307692 1.33817742"></polygon>
                    </g>
                    <polyline id="Fill-1149" fill="#BD4F1A" points="41.7439114 318.247875 36.3247785 318.247875 33.6533379 312.214246 34.1792121 301.482536 39.6114918 301.482536 41.7439114 318.247875"></polyline>
                    <polyline id="Fill-1150" fill="#F5A42A" points="78.9889463 318.037552 56.7181771 318.037552 56.7181771 301.482536 34.1792121 301.482536 33.3588484 318.247875 12.4684988 318.247875 15.4896456 214.082988 63.0418135 214.082988 78.9889463 318.037552"></polyline>
                    <path d="M56.2185967,225.240601 C56.2185967,225.945181 55.6506526,226.510423 54.9459813,226.510423 L27.0089184,226.510423 C26.304247,226.510423 25.7389323,225.945181 25.7389323,225.240601 L25.7389323,221.857036 C25.7389323,221.152455 26.304247,220.584584 27.0089184,220.584584 L54.9459813,220.584584 C55.6506526,220.584584 56.2185967,221.152455 56.2185967,221.857036 L56.2185967,225.240601" id="Fill-1151" fill="#EA6B24"></path>
                    <polyline id="Fill-1152" fill="#F79738" points="78.9889463 318.037552 60.3651142 318.037552 61.740275 214.082988 63.0418135 214.082988 78.9889463 318.037552"></polyline>
                    <polyline id="Fill-1153" fill="#93D6E8" points="18.9656736 276.241197 66.7991841 276.241197 40.9787645 240.691423 18.9656736 276.241197"></polyline>
                    <path d="M24.2244149,273.175746 L61.1749603,273.175746 L41.2285547,245.712875 L24.2244149,273.175746 Z M61.811268,273.811972 L23.6564708,273.811972 L23.3777575,273.646342 L23.3856456,273.322972 L40.939324,244.974117 L41.1996316,244.824262 L41.4651981,244.953084 L62.0137295,273.251988 L62.1294219,273.493859 L61.811268,273.811972 L61.811268,273.811972 Z" id="Fill-1154" fill="#3A68B1"></path>
                    <polyline id="Fill-1155" fill="#FFC40C" points="76.0046107 314.924778 75.9336177 315.182423 75.6917156 315.284955 58.966289 315.284955 58.6481351 314.972101 58.6481351 299.203165 30.7110722 299.203165 30.7110722 315.187681 30.3929184 315.500536 15.4896456 315.500536 15.2608904 315.403262 15.1714918 315.177165 18.5765268 214.082988 19.2128344 214.082988 15.818317 314.869568 30.0747645 314.869568 30.0747645 298.89031 30.3929184 298.572197 58.966289 298.572197 59.2844428 298.89031 59.2844428 314.653988 75.3236037 314.653988 60.328303 214.082988 60.9593519 214.082988 76.0046107 314.924778"></polyline>
                    <path d="M22.8808065,223.552762 C22.8808065,224.83573 22.3496736,225.876826 21.6949603,225.876826 C21.0323589,225.876826 20.4985967,224.83573 20.4985967,223.552762 C20.4985967,222.261907 21.0323589,221.22081 21.6949603,221.22081 C22.3496736,221.22081 22.8808065,222.261907 22.8808065,223.552762" id="Fill-1156" fill="#FFC40C"></path>
                    <path d="M60.2678275,223.552762 C60.2678275,224.83573 59.7288065,225.876826 59.0740932,225.876826 C58.4167505,225.876826 57.8829883,224.83573 57.8829883,223.552762 C57.8829883,222.261907 58.4167505,221.22081 59.0740932,221.22081 C59.7288065,221.22081 60.2678275,222.261907 60.2678275,223.552762" id="Fill-1157" fill="#FFC40C"></path>
                    <polyline id="Fill-1158" fill="#416DB4" points="40.9787645 267.352439 37.69731 254.659472 46.4794079 254.659472 42.8824288 267.352439 40.9787645 267.352439"></polyline>
                    <path d="M40.5002191,270.320617 C40.5002191,269.44252 41.2127785,268.732681 42.0883589,268.732681 C42.9639393,268.732681 43.6738694,269.44252 43.6738694,270.320617 C43.6738694,271.198713 42.9639393,271.905923 42.0883589,271.905923 C41.2127785,271.905923 40.5002191,271.198713 40.5002191,270.320617" id="Fill-1159" fill="#416DB4"></path>
                    <path d="M365.997897,273.848778 L359.00903,315.65302 C353.545198,316.893923 348.333785,317.551181 343.571995,317.808826 C328.587212,318.631713 318.043436,315.65302 318.043436,315.65302 L313.22117,275.586568 L313.01082,273.848778 L365.997897,273.848778" id="Fill-1160" fill="#F7981D"></path>
                    <path d="M365.997897,273.848778 L365.101282,279.209375 C360.365785,280.087472 355.619772,280.534407 351.02889,280.657972 C334.211436,281.131197 319.276611,277.361165 313.22117,275.586568 L313.01082,273.848778 L365.997897,273.848778" id="Fill-1161" fill="#DD8426"></path>
                    <path d="M365.997897,273.848778 L359.00903,315.65302 C353.545198,316.893923 348.333785,317.551181 343.571995,317.808826 C345.257422,311.420278 349.19096,294.271101 351.02889,280.657972 C351.352303,278.255036 351.61524,275.954633 351.788779,273.848778 L365.997897,273.848778" id="Fill-1162" fill="#DD8426"></path>
                    <path d="M337.272023,271.327536 L332.126345,271.327536 C332.126345,271.327536 331.195548,266.553213 330.26738,261.813068 C329.407576,257.443617 328.560918,253.105713 328.463632,252.606197 C328.463632,252.606197 329.830904,253.762972 332.865198,253.439601 L336.002037,266.187778 L337.272023,271.327536" id="Fill-1163" fill="#055257"></path>
                    <path d="M337.272023,271.327536 L332.126345,271.327536 C332.126345,271.327536 331.195548,266.553213 330.26738,261.813068 C331.858149,263.230117 334.216695,265.196633 336.002037,266.187778 L337.272023,271.327536" id="Fill-1164" fill="#014245"></path>
                    <path d="M341.573674,243.79631 L338.802317,244.427278 L335.591855,245.15552 L333.911688,239.702907 C336.151911,239.93952 337.800527,239.292778 338.802317,238.669697 C339.591128,238.204359 339.993422,237.741649 339.993422,237.741649 L341.573674,243.79631" id="Fill-1165" fill="#1DA8B7"></path>
                    <path d="M341.573674,243.79631 L338.802317,244.427278 L338.802317,238.669697 C339.591128,238.204359 339.993422,237.741649 339.993422,237.741649 L341.573674,243.79631" id="Fill-1166" fill="#055257"></path>
                    <polyline id="Fill-1167" fill="#D64E27" points="324.895576 271.327536 313.292163 271.327536 314.93289 258.687149 321.022513 258.687149 324.895576 271.327536"></polyline>
                    <polyline id="Fill-1168" fill="#C23827" points="324.895576 271.327536 319.644723 271.327536 318.958457 258.687149 321.022513 258.687149 324.895576 271.327536"></polyline>
                    <path d="M311.953813,254.280891 C311.13082,258.379552 307.817813,259.749278 307.381338,259.349665 C306.858093,258.860665 307.068443,258.158713 308.220107,256.278955 C308.985254,255.024907 309.190345,253.176697 309.25082,252.067246 C309.277114,251.496746 309.266597,251.118165 309.266597,251.118165 L312.101058,251.452052 C312.190457,252.508923 312.122093,253.450117 311.953813,254.280891" id="Fill-1169" fill="#1DA8B7"></path>
                    <path d="M311.953813,254.280891 C311.17289,253.592084 309.923939,252.606197 309.25082,252.067246 C309.277114,251.496746 309.266597,251.118165 309.266597,251.118165 L312.101058,251.452052 C312.190457,252.508923 312.122093,253.450117 311.953813,254.280891" id="Fill-1170" fill="#055257"></path>
                    <path d="M332.865198,253.439601 L340.203772,247.358649 L350.269002,247.358649 L341.568415,243.79631 L335.591855,245.160778 L328.463632,252.606197 C328.463632,252.606197 329.546932,254.070568 332.865198,253.439601" id="Fill-1171" fill="#A6D6B4"></path>
                    <path d="M333.911688,239.708165 C333.911688,239.708165 335.171156,237.557617 339.993422,237.741649 C339.993422,237.741649 338.528862,240.370681 333.911688,239.708165" id="Fill-1172" fill="#A6D6B4"></path>
                    <polyline id="Fill-1173" fill="#0D64A5" points="311.614625 245.160778 308.953702 245.160778 308.225366 251.031407 310.952023 251.409988 311.614625 245.160778"></polyline>
                    <polyline id="Fill-1174" fill="#2B91BE" points="328.463632 250.505601 323.780723 253.563165 310.957282 251.409988 311.00724 250.681746 311.409534 245.15552 324.33552 245.15552 327.219939 248.899262 328.463632 250.505601"></polyline>
                    <path d="M328.463632,250.505601 L323.780723,253.563165 L310.957282,251.409988 L311.00724,250.681746 C313.505142,250.731697 322.41345,251.118165 322.41345,251.118165 L327.219939,248.899262 L328.463632,250.505601" id="Fill-1175" fill="#0D64A5"></path>
                    <polyline id="Fill-1176" fill="#1E7EA0" points="321.540499 253.155665 321.540499 255.26152 313.478848 255.26152 313.478848 251.704439 321.540499 253.155665"></polyline>
                    <polyline id="Fill-1177" fill="#0C6F88" points="321.540499 253.155665 321.540499 254.680504 313.478848 252.380101 313.478848 251.704439 321.540499 253.155665"></polyline>
                    <polyline id="Fill-1178" fill="#F7981D" points="321.022513 258.687149 314.93289 258.687149 314.93289 255.26152 320.07331 255.26152 321.022513 258.687149"></polyline>
                    <polyline id="Fill-1179" fill="#DD8426" points="321.022513 258.687149 318.866429 258.687149 316.826037 255.26152 320.07331 255.26152 321.022513 258.687149"></polyline>
                    <polyline id="Fill-1180" fill="#D64E27" points="310.360415 246.872278 310.073813 249.632762 308.948443 249.511826 307.628499 249.356713 307.912471 246.556794 310.176359 246.851246 310.360415 246.872278"></polyline>
                    <polyline id="Fill-1181" fill="#C23827" points="310.360415 246.872278 310.073813 249.632762 308.948443 249.511826 310.176359 246.851246 310.360415 246.872278"></polyline>
                    <polyline id="Fill-1182" fill="#1DA8B7" points="357.510289 271.327536 337.272023 271.327536 335.936303 265.932762 332.865198 253.439601 340.203772 247.358649 350.269002 247.358649 357.510289 271.327536"></polyline>
                    <path d="M357.510289,271.327536 L337.272023,271.327536 L335.936303,265.932762 C337.445562,266.177262 341.986485,266.86081 345.189058,266.86081 C347.705366,266.86081 352.359352,265.25973 355.33317,264.123988 L357.510289,271.327536" id="Fill-1183" fill="#0B9399"></path>
                    <path d="M367.257366,273.007488 C367.257366,273.943423 366.502737,274.687439 365.577198,274.687439 L313.292163,274.687439 C312.363995,274.687439 311.619883,273.943423 311.619883,273.007488 C311.619883,272.550036 311.803939,272.134649 312.101058,271.827052 C312.413953,271.529972 312.837282,271.327536 313.292163,271.327536 L365.577198,271.327536 C366.502737,271.327536 367.257366,272.087326 367.257366,273.007488" id="Fill-1184" fill="#FFC40C"></path>
                    <path d="M367.257366,273.007488 C367.257366,273.943423 366.502737,274.687439 365.577198,274.687439 L346.724611,274.687439 L348.415296,271.327536 L365.577198,271.327536 C366.502737,271.327536 367.257366,272.087326 367.257366,273.007488" id="Fill-1185" fill="#F7981D"></path>
                    <path d="M339.428107,271.327536 C339.362373,272.113617 339.257198,273.270391 339.130988,274.687439 C338.66296,279.913955 337.779492,288.668633 336.675156,295.096617 C335.854792,299.826246 334.90296,303.288681 333.911688,303.159859 C330.866876,302.74973 332.026429,294.121246 331.816079,293.803133 C331.60573,293.495536 329.191967,303.559472 326.573114,303.138826 C324.062065,302.739213 326.362765,293.474504 326.557338,292.698939 C326.218149,293.435068 322.387156,301.840084 320.28366,300.930439 C318.085506,299.991875 321.858653,289.299601 321.927016,288.992004 C321.992751,288.668633 316.60517,296.63723 314.93289,295.832746 C313.252723,295.015117 315.240527,292.396601 316.826037,287.091213 C317.791016,283.86802 320.225813,278.507423 322.058485,274.687439 C322.715827,273.315084 323.29166,272.139907 323.699212,271.327536 L339.428107,271.327536" id="Fill-1186" fill="#77C7D7"></path>
                    <path d="M373.454792,290.435342 C372.865813,289.402133 369.547548,289.367955 366.542177,288.857923 C366.245058,288.81323 365.953198,288.755391 365.656079,288.694923 C365.203827,288.592391 364.756834,288.484601 364.344023,288.35052 L364.299324,288.334746 C362.156387,287.635423 359.537534,286.336681 357.428779,285.808246 C357.123772,285.726746 356.842429,285.668907 356.566345,285.624213 C356.287632,285.582149 356.019436,285.555859 355.764387,285.555859 C354.993981,285.555859 354.37345,285.781955 353.986932,286.336681 L352.359352,281.331004 L352.091156,280.473939 L350.715995,276.23331 L350.437282,275.394649 L349.122597,271.322278 C349.122597,271.322278 350.981562,270.701826 352.595995,270.943697 C353.048247,271.014681 353.484723,271.15402 353.842317,271.401149 L354.155212,271.637762 C354.315604,271.774472 354.859883,269.758004 356.745142,268.364617 C356.966009,268.206875 357.202653,268.051762 357.452443,267.917681 C358.317506,267.436568 359.406065,267.107939 360.770709,267.097423 L361.385981,267.113197 L361.922373,267.163149 C364.304583,267.447084 366.100443,268.714278 367.543967,270.496762 L368.048806,271.164536 C369.481813,273.162601 370.549338,275.657552 371.493282,278.157762 C371.595827,278.404891 371.679967,278.641504 371.771995,278.875488 L371.79566,278.954359 C372.855296,281.783197 373.205002,284.864423 373.34173,287.191117 L373.34173,287.199004 C373.399576,288.190149 373.415352,289.055101 373.436387,289.691326 C373.439016,289.998923 373.449534,290.246052 373.454792,290.435342" id="Fill-1187" fill="#D64E27"></path>
                    <path d="M373.454792,290.440601 C372.715939,289.131342 367.672806,289.407391 364.344023,288.35052 L364.3151,288.345262 C360.607688,287.138536 355.50145,284.154584 353.986932,286.331423 C353.28752,287.343601 357.936247,288.534552 361.341282,289.675552 C364.741058,290.824439 373.233925,292.817246 373.54682,290.926972 L373.517897,290.887536 L373.454792,290.440601 Z" id="Fill-1190" fill="#C23827"></path>
                    <polyline id="Fill-1191" fill="#F06080" points="371.030513 318.024407 358.974848 320.961036 359.498093 324.278875 371.664191 321.844391 371.030513 318.024407"></polyline>
                    <polyline id="Fill-1192" fill="#B72D4C" points="346.724611 320.469407 346.814009 323.442842 359.498093 324.278875 358.974848 320.961036 346.724611 320.469407"></polyline>
                    <path d="M358.974848,315.879117 C358.588331,315.67931 346.724611,320.469407 346.724611,320.469407 L358.974848,320.961036 L371.030513,318.024407 C371.030513,318.024407 359.363995,316.084181 358.974848,315.879117" id="Fill-1193" fill="#ED3455"></path>
                    <path d="M343.571995,297.475891 C339.817254,298.04902 341.271296,285.845052 341.534233,283.820697 C341.226597,285.63473 339.525394,295.364778 336.956499,295.17023 L336.675156,295.096617 C334.482261,294.071294 336.956499,282.995181 337.235212,281.756907 C336.874988,282.913681 333.98531,292.089004 331.816079,291.605262 C329.504862,291.082084 331.816079,279.338197 331.816079,279.338197 C331.816079,279.338197 327.314597,289.299601 324.895576,288.45831 C323.260107,287.88781 325.182177,279.903439 326.788723,274.687439 C327.209422,273.315084 327.616974,272.139907 327.914093,271.327536 L346.750904,271.327536 C346.771939,272.124133 346.798233,273.280907 346.808751,274.687439 C346.869226,282.301117 346.587883,297.007923 343.571995,297.475891" id="Fill-1194" fill="#A6DDEB"></path>
                    <path d="M357.428779,285.808246 C357.123772,285.726746 356.842429,285.668907 356.566345,285.624213 C356.329702,284.067826 356.119352,282.635004 355.903744,281.294197 L355.893226,281.294197 C355.851156,281.007633 355.809086,280.734213 355.759128,280.463423 C355.469897,278.825536 355.162261,277.32173 354.78889,275.965149 L354.778373,275.965149 C354.704751,275.683842 354.62324,275.420939 354.54173,275.14752 C354.047408,273.583246 353.426876,272.195117 352.595995,270.943697 C353.048247,271.014681 353.484723,271.15402 353.842317,271.401149 C354.481254,272.510601 354.967688,273.70681 355.377869,275.031842 C355.467268,275.297375 355.538261,275.570794 355.619772,275.836326 C356.011548,277.229713 356.319184,278.754552 356.605785,280.421359 C356.653114,280.705294 356.697813,280.981342 356.745142,281.265278 C356.966009,282.624488 357.176359,284.067826 357.402485,285.63473 L357.428779,285.808246" id="Fill-1195" fill="#EB5729"></path>
                    <path d="M366.542177,288.857923 C366.245058,288.81323 365.953198,288.755391 365.656079,288.694923 C365.06973,285.942326 364.144191,283.194988 363.108219,280.618536 C362.989897,280.345117 362.882093,280.074326 362.774289,279.811423 C361.998625,277.984246 361.175632,276.251713 360.365785,274.703213 C360.236946,274.445568 360.102848,274.193181 359.974009,273.95131 C358.711911,271.558891 357.536583,269.613407 356.745142,268.364617 C356.966009,268.206875 357.202653,268.051762 357.452443,267.917681 C358.270177,269.213794 359.482317,271.214488 360.781226,273.68052 C360.910065,273.927649 361.044163,274.177407 361.175632,274.435052 C361.998625,276.041391 362.834765,277.808101 363.626205,279.687859 C363.734009,279.95602 363.841813,280.211036 363.954876,280.484455 C365.02766,283.147665 365.968974,286.008052 366.542177,288.857923" id="Fill-1196" fill="#EB5729"></path>
                    <path d="M368.048806,271.164536 C367.359911,271.600955 366.52903,272.079439 365.577198,272.560552 C365.322149,272.694633 365.053953,272.823455 364.783128,272.952278 C363.707716,273.464939 362.511352,273.977601 361.175632,274.435052 C360.910065,274.527068 360.641869,274.608568 360.365785,274.703213 C358.901226,275.168552 357.320974,275.560278 355.619772,275.836326 C355.348946,275.878391 355.070233,275.917826 354.78889,275.965149 L354.778373,275.965149 C353.484723,276.130778 352.122709,276.23331 350.715995,276.23331 L350.437282,275.394649 C351.86503,275.410423 353.24282,275.318407 354.54173,275.14752 C354.823072,275.113342 355.101785,275.071278 355.377869,275.031842 C357.026485,274.784713 358.567296,274.403504 359.974009,273.95131 C360.252723,273.864552 360.523548,273.783052 360.781226,273.68052 C362.090653,273.244101 363.27124,272.749842 364.330876,272.247697 C364.60696,272.113617 364.875156,271.974278 365.135464,271.853342 C366.07152,271.380117 366.870848,270.917407 367.543967,270.496762 L368.048806,271.164536" id="Fill-1198" fill="#EB5729"></path>
                    <path d="M371.79566,278.954359 C371.148834,279.106842 370.404723,279.27773 369.589618,279.451246 C369.321422,279.514342 369.040079,279.569552 368.74559,279.627391 C367.307324,279.924472 365.690261,280.221552 363.954876,280.484455 C363.678792,280.534407 363.389562,280.571213 363.108219,280.618536 C361.083604,280.905101 358.938037,281.141713 356.745142,281.265278 C356.471688,281.270536 356.185086,281.288939 355.903744,281.294197 L355.893226,281.294197 C355.146485,281.331004 354.397114,281.346778 353.642485,281.346778 C353.216527,281.346778 352.78531,281.34152 352.359352,281.331004 L352.091156,280.473939 C353.298037,280.523891 354.531212,280.518633 355.759128,280.463423 C356.040471,280.458165 356.319184,280.442391 356.605785,280.421359 C358.71717,280.318826 360.80752,280.087472 362.774289,279.811423 C363.055632,279.779875 363.350121,279.740439 363.626205,279.687859 C365.330037,279.435472 366.912918,279.148907 368.32489,278.867601 C368.616751,278.799246 368.900723,278.738778 369.176806,278.680939 C370.036611,278.496907 370.814904,278.318133 371.493282,278.157762 C371.595827,278.404891 371.679967,278.641504 371.771995,278.875488 L371.79566,278.954359" id="Fill-1199" fill="#EB5729"></path>
                </g>
            </g>
        </g>
    </g>
</svg>