<?xml version="1.0" encoding="UTF-8"?>
<svg width="263px" height="296px" viewBox="0 0 263 296" version="1.1" xmlns="http://www.w3.org/2000/svg" xmlns:xlink="http://www.w3.org/1999/xlink">
    <!-- Generator: Sketch 63.1 (92452) - https://sketch.com -->
    <title>couple 1</title>
    <desc>Created with Sketch.</desc>
    <g id="Symbols" stroke="none" stroke-width="1" fill="none" fill-rule="evenodd">
        <g id="services" transform="translate(-72.000000, -14.000000)">
            <g id="couple-1">
                <g transform="translate(72.733711, 14.000000)">
                    <g>
                        <path d="M217.955175,31.3001905 C217.955175,31.3001905 217.306514,39.7106674 214.865703,41.4046828 C214.865703,41.4046828 211.981342,38.7226828 207.545835,40.2126828 C204.543535,41.2121289 202.502689,42.9496982 201.489957,43.9606059 C201.020768,44.4442828 200.769508,44.7674982 200.769508,44.7674982 C200.769508,44.7674982 196.334001,45.8632212 192.783031,39.8184059 C189.232062,33.7621289 186.463075,30.3855597 185.681092,25.2278674 C185.581101,24.5562212 185.532388,23.8983289 185.532388,23.2541905 C185.540079,19.0225905 187.598872,15.7147905 189.232062,14.4242212 C191.121639,12.9296366 192.783031,13.3284982 196.226318,14.1193443 C197.041631,14.3073136 198.036415,14.4517289 199.113243,14.5411289 L199.128627,14.5502982 C202.561658,14.8414212 206.810002,14.6030212 208.758548,13.6287905 C211.330117,12.3336366 215.293871,10.6052366 215.542567,12.1066982 L215.586153,12.5491136 C215.647686,13.5462674 215.611791,15.4855597 215.675888,17.5944828 C215.747677,20.0793443 215.942531,22.8094828 216.570681,24.517252 C216.996285,26.8003905 217.511624,29.1729289 217.955175,31.3001905" id="Fill-1" fill="#F1B5AB"></path>
                        <path d="M201.489957,43.9606059 C201.020768,44.4442828 200.769508,44.7674982 200.769508,44.7674982 C200.769508,44.7674982 196.334001,45.8632212 192.783031,39.8184059 C189.232062,33.7621289 186.463075,30.3855597 185.681092,25.2278674 C185.581101,24.5562212 185.532388,23.8983289 185.532388,23.2541905 C187.519392,27.2703136 190.68578,32.4532212 193.457331,36.5381136 C195.300759,39.2774212 197.815922,42.0717443 201.489957,43.9606059" id="Fill-2" fill="#F5948D"></path>
                        <path d="M215.586153,12.5491136 C213.429932,14.7153443 208.440628,17.5463443 199.128627,14.5502982 C202.561658,14.8414212 206.810002,14.6030212 208.758548,13.6287905 C211.330117,12.3336366 215.293871,10.6052366 215.542567,12.1066982 L215.586153,12.5491136" id="Fill-3" fill="#F5948D"></path>
                        <path d="M83.2901048,142.708637 C80.8390385,150.248037 74.6293286,165.725698 74.6293286,165.725698 C74.6293286,165.725698 74.9728881,172.217514 74.288333,174.560252 C74.2088528,174.867421 74.1037339,175.101237 73.9704123,175.247944 C72.852562,176.43536 72.247487,174.949944 72.247487,174.949944 C72.247487,174.949944 70.6322446,183.683637 68.7503589,182.787344 C66.8684733,181.88876 68.9708523,168.89596 69.6374603,166.514252 C70.3015044,164.137129 72.3013284,146.87376 72.7448791,140.223775 C73.1858659,133.580667 75.4061833,114.92816 76.516342,112.748175 C76.516342,112.748175 77.5649677,112.984283 82.0004747,113.782006 C83.4772678,114.041037 84.7284397,114.350498 85.7514266,114.655375 C87.8179114,115.24679 88.9255062,115.79236 88.9255062,115.79236 C88.4819555,118.666914 85.7206601,135.169237 83.2901048,142.708637" id="Fill-4" fill="#F1B5AB"></path>
                        <path d="M83.2901048,142.708637 C80.8390385,150.248037 74.6293286,165.725698 74.6293286,165.725698 C74.6293286,165.725698 74.9728881,172.217514 74.288333,174.560252 C74.3242273,171.13096 73.9986149,165.443744 74.0780951,165.223683 C74.1832141,164.927975 81.8440782,141.617498 82.9619285,134.474667 C84.0079903,127.77196 84.6489595,120.452621 85.7514266,114.655375 C87.8179114,115.24679 88.9255062,115.79236 88.9255062,115.79236 C88.4819555,118.666914 85.7206601,135.169237 83.2901048,142.708637" id="Fill-5" fill="#F5948D"></path>
                        <path d="M246.483433,283.360052 L243.137574,285.159514 L242.747864,285.365821 L242.383794,285.560667 C242.383794,285.560667 241.712058,283.999606 240.614719,281.397837 C236.207414,270.894483 224.941739,243.538083 223.521352,234.549944 C221.747149,223.333683 227.074885,216.296298 227.074885,216.296298 C227.074885,216.296298 222.077889,203.890329 219.083281,192.087237 C217.191139,184.637237 213.224822,172.178544 210.555826,164.03856 L210.509676,163.898729 C209.861015,161.915883 209.291835,160.219575 208.855976,158.890037 L208.855976,158.885452 C208.253465,157.072237 207.891958,156.001729 207.891958,156.001729 L207.720178,156.08196 L207.699667,156.091129 L207.684284,156.100298 L207.071517,156.382252 L205.607544,157.067652 L205.546011,157.255621 C197.485182,183.07159 197.47749,182.92259 194.449551,195.858083 C191.56519,208.160898 187.129683,219.269421 184.022264,230.577375 C182.43266,236.370037 178.676581,250.268298 175.40251,262.442744 C172.2874,274.023483 169.597893,284.047744 169.597893,284.047744 L167.518589,284.338867 L167.077602,284.407637 L164.608588,284.760652 C164.608588,284.760652 157.614332,242.884775 159.832086,232.363083 C162.052403,221.852852 170.264501,212.72259 170.264501,212.72259 C170.264501,212.72259 168.48517,178.301298 168.931285,165.899914 C169.015893,163.456314 169.223567,160.822452 169.508157,158.15879 L169.561998,157.636144 C170.333725,150.392452 171.602844,143.057067 172.341241,139.073037 L172.420721,138.66959 C172.733514,137.00996 172.925805,136.038021 172.925805,136.038021 C172.925805,136.038021 173.528316,136.118252 174.612836,136.267252 C176.917761,136.560667 181.404546,137.081021 186.924573,137.475298 L187.375815,137.50739 C192.065146,137.819144 197.451851,138.034621 202.874451,137.922298 C205.422945,137.878744 207.971438,137.69536 210.455835,137.424867 L210.950663,137.36756 C215.773316,136.826575 220.316505,135.953206 224.034127,135.125683 L224.487933,135.022529 C229.790031,133.803021 233.284595,132.670621 233.284595,132.670621 C233.284595,132.670621 233.469194,133.793852 233.76404,135.60019 L233.835828,135.992175 C234.456286,139.687375 235.486965,145.812421 236.399705,151.130575 C236.435599,151.346052 236.479185,151.559237 236.517643,151.774714 C236.868895,153.84696 237.217582,155.790837 237.499608,157.372529 C238.940507,165.306206 242.827345,199.82836 243.714446,211.335744 C244.601547,222.840837 246.483433,283.360052 246.483433,283.360052" id="Fill-6" fill="#1D4EA1"></path>
                        <path d="M175.40251,262.442744 C172.2874,274.023483 169.597893,284.047744 169.597893,284.047744 L167.518589,284.338867 L167.077602,284.407637 L164.608588,284.760652 C164.608588,284.760652 157.614332,242.884775 159.832086,232.363083 C162.052403,221.852852 170.264501,212.72259 170.264501,212.72259 C170.264501,212.72259 168.48517,178.301298 168.931285,165.899914 C169.015893,163.456314 169.223567,160.822452 169.508157,158.15879 L169.561998,157.636144 C170.333725,150.392452 171.602844,143.057067 172.341241,139.073037 L172.420721,138.66959 C172.733514,137.00996 172.925805,136.038021 172.925805,136.038021 C172.925805,136.038021 173.528316,136.118252 174.612836,136.267252 C174.230818,146.424467 173.928281,168.98536 174.300043,189.907252 C174.700008,211.727729 173.64369,218.480867 173.64369,218.480867 C173.64369,218.480867 164.534236,242.898529 175.40251,262.442744" id="Fill-7" fill="#1D427F"></path>
                        <polyline id="Fill-8" fill="#892E28" points="207.684284 155.997144 207.720178 156.08196 207.699667 156.091129 207.684284 155.997144"></polyline>
                        <path d="M240.614719,281.397837 C236.207414,270.894483 224.941739,243.538083 223.521352,234.549944 C221.747149,223.333683 227.074885,216.296298 227.074885,216.296298 C227.074885,216.296298 222.077889,203.890329 219.083281,192.087237 C217.191139,184.637237 213.224822,172.178544 210.555826,164.03856 L210.509676,163.898729 C209.861015,161.915883 209.291835,160.219575 208.855976,158.890037 L231.592436,214.953006 C231.592436,214.953006 230.623291,222.840837 230.846348,239.205621 C231.002744,250.770314 237.063749,270.688175 240.614719,281.397837" id="Fill-9" fill="#1D427F"></path>
                        <path d="M140.649159,227.62259 C142.974595,235.363714 142.531044,246.171944 139.867176,255.00879 C137.205872,263.83876 133.213916,279.710698 133.213916,279.710698 L132.937017,279.834483 C132.680629,279.955975 132.431933,280.063714 132.206312,280.143944 L132.162726,280.162283 L131.721739,280.297529 C129.642435,280.882067 129.111713,279.804683 129.111713,279.804683 C129.111713,279.804683 126.111977,264.233037 124.781325,251.535944 C123.445545,238.838852 119.566399,219.792067 118.238311,204.811837 C117.038416,191.376621 113.443861,166.844344 112.705464,161.938806 C112.625984,161.365729 112.582398,161.065437 112.582398,161.065437 C112.582398,161.065437 112.51061,161.230483 112.387544,161.530775 L112.387544,161.539944 C111.364557,164.056898 106.529085,175.992944 103.367825,183.683637 C99.8168552,192.307298 91.491947,211.755237 91.491947,211.755237 C91.491947,211.755237 95.4864672,218.396052 97.822159,226.235744 C100.157851,234.075437 98.593886,243.301975 96.3761325,251.934806 C94.1532512,260.56076 89.3895679,280.600114 89.3895679,280.600114 L88.971656,280.758283 L88.4999026,280.891237 L88.3409423,280.927914 C86.0206337,281.384083 84.1797701,280.104975 84.1797701,280.104975 L84.1336203,279.804683 C83.8849242,277.69576 82.2773734,264.331606 80.9569768,253.223083 C79.5058225,241.117406 75.6318045,214.826929 75.6318045,214.826929 C75.6318045,214.826929 77.5188179,195.777852 79.7416992,182.846944 C80.2185803,180.018237 80.9826156,176.430775 81.8876641,172.53156 C83.0414087,167.538914 84.4233384,162.046544 85.784757,156.978252 C86.4667483,154.408575 87.1538673,151.944344 87.7922726,149.72539 C87.8538057,149.468652 87.9255942,149.223375 87.9948189,148.975806 C88.8357705,146.034775 89.5946781,143.531575 90.1689865,141.796298 L90.3023081,141.42036 C90.6843258,140.283375 90.9868632,139.517744 91.1637707,139.238083 C91.1637707,139.238083 94.8813922,141.665637 107.513614,140.787683 C122.745606,139.730929 128.773281,133.289544 128.773281,133.289544 C128.773281,133.289544 128.701492,133.09699 128.578426,132.773775 L128.665598,132.725637 C128.665598,132.725637 129.803959,133.96119 131.42433,135.902775 L131.693537,136.212237 C133.185713,138.002529 135.031704,140.313175 136.780268,142.770529 L137.028964,143.121252 C138.636515,145.381467 140.133819,147.744837 141.200392,149.938575 C144.866736,157.461929 140.54404,175.247944 138.982639,184.875637 C137.434057,194.491867 133.654903,212.745514 133.654903,212.745514 C133.654903,212.745514 138.326286,219.890637 140.649159,227.62259" id="Fill-10" fill="#263B7F"></path>
                        <path d="M140.649159,227.62259 C142.974595,235.363714 142.531044,246.171944 139.867176,255.00879 C137.205872,263.83876 133.213916,279.710698 133.213916,279.710698 L132.937017,279.834483 C132.680629,279.955975 132.431933,280.063714 132.206312,280.143944 L132.162726,280.162283 C133.398515,273.051544 137.108445,250.165144 135.990594,236.555714 C134.657378,220.284914 129.998814,217.706067 129.998814,217.706067 L129.321951,219.908975 C129.496294,219.31756 129.786012,218.35479 130.219307,216.912929 C132.660118,208.777529 135.990594,179.215929 135.990594,179.215929 C135.990594,179.215929 125.335122,160.568006 117.640927,153.620021 C109.936477,146.676621 101.58593,149.415929 95.5454363,155.20859 C91.4534888,159.135314 85.597594,167.49536 81.8876641,172.53156 C83.0414087,167.538914 84.4233384,162.046544 85.784757,156.978252 C86.4667483,154.408575 87.1538673,151.944344 87.7922726,149.72539 C87.8538057,149.468652 87.9255942,149.223375 87.9948189,148.975806 C88.8357705,146.034775 89.5946781,143.531575 90.1689865,141.796298 L90.3023081,141.42036 C90.6843258,140.283375 90.9868632,139.517744 91.1637707,139.238083 C91.1637707,139.238083 94.8813922,141.665637 107.513614,140.787683 C122.745606,139.730929 128.773281,133.289544 128.773281,133.289544 C128.773281,133.289544 128.701492,133.09699 128.578426,132.773775 L128.665598,132.725637 C128.665598,132.725637 129.803959,133.96119 131.42433,135.902775 L131.693537,136.212237 C133.185713,138.002529 135.031704,140.313175 136.780268,142.770529 L137.028964,143.121252 C138.636515,145.381467 140.133819,147.744837 141.200392,149.938575 C144.866736,157.461929 140.54404,175.247944 138.982639,184.875637 C137.434057,194.491867 133.654903,212.745514 133.654903,212.745514 C133.654903,212.745514 138.326286,219.890637 140.649159,227.62259" id="Fill-11" fill="#212A60"></path>
                        <path d="M103.367825,183.683637 C99.8168552,192.307298 91.491947,211.755237 91.491947,211.755237 C91.491947,211.755237 95.4864672,218.396052 97.822159,226.235744 C100.157851,234.075437 98.593886,243.301975 96.3761325,251.934806 C94.1532512,260.56076 89.3895679,280.600114 89.3895679,280.600114 L88.971656,280.758283 L88.4999026,280.891237 L88.3409423,280.927914 C90.2920526,272.941514 94.5788548,255.448914 94.1635067,245.477375 C93.6045815,232.386006 87.7922726,212.745514 87.7922726,212.745514 C87.7922726,212.745514 99.5732869,186.516929 104.690785,174.039898 C109.813411,161.558283 112.387544,161.539944 112.387544,161.539944 C111.364557,164.056898 106.529085,175.992944 103.367825,183.683637" id="Fill-12" fill="#212A60"></path>
                        <path d="M126.368364,104.880975 L126.368364,104.871806 L126.227351,104.61736 C126.227351,105.029975 126.163254,105.415083 126.058135,105.777267 L126.011985,105.901052 C125.665862,107.106806 124.868496,108.032898 124.278805,108.592221 L124.183941,108.677037 C123.819871,109.000252 123.563483,109.174467 123.563483,109.174467 L123.563483,109.243237 C123.578866,109.827775 123.758338,114.444483 124.894135,120.287575 C125.917122,125.534667 127.947713,131.104975 128.578426,132.773775 C128.701492,133.09699 128.773281,133.289544 128.773281,133.289544 C128.773281,133.289544 127.742602,134.385267 125.471007,135.746898 C122.230267,137.681606 116.461544,140.166467 107.513614,140.787683 C105.580451,140.922929 103.84727,140.975652 102.303816,140.975652 C93.8276388,140.975652 91.1637707,139.238083 91.1637707,139.238083 C92.0611276,132.73939 89.5562199,117.037083 89.0254974,113.818683 C88.9793476,113.54819 88.9460172,113.364806 88.9357617,113.284575 L88.9357617,113.27999 L88.9255062,113.241021 L88.9255062,115.79236 L88.8562815,115.764852 C88.0742991,115.407252 87.0743871,115.070283 85.97192,114.753944 C81.8799725,113.580283 76.516342,112.748175 76.516342,112.748175 C76.516342,112.748175 76.6060777,112.030683 76.7752936,110.86619 L76.8265711,110.469621 C77.3419104,106.815683 78.4520691,99.5765751 79.7416992,94.9873751 C81.515902,88.6376828 83.5029066,78.0265905 86.9487571,76.0437443 C90.2382112,74.1457136 95.3351984,72.5686059 99.883516,72.0642982 L100.457824,72.0138674 L100.50141,72.0046982 C103.429358,71.7410828 106.057332,71.6150059 108.418662,71.5806212 L108.890416,71.5760366 C119.543324,71.4637136 124.519809,73.3273597 126.217096,74.1548828 L126.599113,74.3566059 L126.783712,74.4551751 C127.778497,75.0534674 130.219307,78.2237289 133.754894,84.2731289 C136.226471,88.5253597 138.900595,95.6223443 140.277397,99.464252 L140.41841,99.8585289 L140.41841,99.8676982 C140.915802,101.259129 141.200392,102.132498 141.200392,102.132498 C135.936753,102.366314 131.685845,104.044283 129.350153,105.311929 C128.096417,105.995037 127.404171,106.565821 127.404171,106.735452 L126.368364,104.880975" id="Fill-13" fill="#F79738"></path>
                        <path d="M88.8562815,115.764852 C88.0742991,115.407252 87.0743871,115.070283 85.97192,114.753944 L86.5744311,111.29256 C86.5744311,111.29256 88.7152683,111.82896 88.8203872,113.814098 C88.846026,114.313821 88.8562815,115.012975 88.8562815,115.764852" id="Fill-14" fill="#E47D25"></path>
                        <path d="M128.578426,132.773775 C128.701492,133.09699 128.773281,133.289544 128.773281,133.289544 C128.773281,133.289544 127.742602,134.385267 125.471007,135.746898 C124.219836,132.608729 122.402047,127.22639 121.784152,121.344329 C120.825263,112.090283 120.179166,110.460452 120.179166,110.460452 C120.179166,110.460452 125.755598,105.105621 124.194197,101.385206 L129.350153,105.311929 C128.096417,105.995037 127.404171,106.565821 127.404171,106.735452 L126.368364,104.880975 L126.368364,104.871806 L126.227351,104.61736 C126.227351,105.029975 126.163254,105.415083 126.058135,105.777267 L126.011985,105.901052 C125.665862,107.106806 124.868496,108.032898 124.278805,108.592221 L124.183941,108.677037 C123.819871,109.000252 123.563483,109.174467 123.563483,109.174467 L123.563483,109.243237 C123.578866,109.827775 123.758338,114.444483 124.894135,120.287575 C125.917122,125.534667 127.947713,131.104975 128.578426,132.773775" id="Fill-15" fill="#E47D25"></path>
                        <path d="M252.059865,89.6944366 C252.008588,89.6806828 251.747072,89.6096212 251.321469,89.4972982 L251.042006,89.4170674 C250.411292,89.2611905 249.513935,89.0548828 248.426852,88.8531597 L247.975609,88.7866828 C246.229609,88.4726366 244.060569,88.229652 241.717186,88.229652 C239.942983,88.229652 238.148269,88.3075905 236.517643,88.4107443 C232.948727,88.646852 230.17974,89.0182059 230.17974,89.0182059 L230.205379,89.2107597 L230.215634,89.2107597 L231.030947,94.2836366 L231.066841,94.4761905 L230.846348,94.4807751 C230.295114,94.4899443 228.787555,94.4991136 226.664665,94.517452 C223.10344,94.5220366 217.8398,94.5334982 212.542831,94.4761905 C203.223138,94.368452 194.895666,93.474452 192.567666,94.5220366 C191.311366,95.0767751 188.601348,96.2939905 186.250273,97.4309751 C184.491454,98.2860059 182.937744,99.1020674 182.335233,99.5857443 L182.132687,99.7737136 C181.855788,100.112975 181.366088,101.013852 181.07637,102.038514 L181.07637,102.047683 C180.558466,103.883821 180.709735,106.116529 183.904326,106.185298 C184.188916,106.185298 184.47607,106.185298 184.776044,106.16696 L184.811938,106.16696 C185.752881,106.139452 186.747665,106.036298 187.721938,105.901052 L187.837313,105.875837 C191.139586,105.387575 194.300847,104.43856 195.32127,104.124514 L195.339217,104.115344 L195.667393,104.016775 L195.96993,104.02136 L195.977622,104.02136 C196.528856,104.035114 197.746697,104.097006 199.228618,104.321652 C199.449111,104.358329 199.67986,104.388129 199.918301,104.433975 C201.089993,104.640283 202.377059,104.947452 203.615411,105.401329 C205.661385,106.15779 211.476258,108.84896 217.68084,111.448437 C220.734417,112.734421 223.885422,113.997483 226.726198,114.994637 C228.651669,115.670867 230.436128,116.225606 231.951379,116.590083 C232.653881,116.759714 233.364075,116.933929 234.074269,117.108144 C233.664049,125.234375 233.284595,132.670621 233.284595,132.670621 C233.284595,132.670621 231.456551,133.262037 228.431176,134.05059 C222.71373,135.545175 212.747941,137.72516 202.874451,137.922298 C190.775516,138.160698 178.838105,136.808237 174.56925,136.258083 C173.510369,136.118252 172.925805,136.038021 172.925805,136.038021 L171.477214,124.432067 C171.477214,124.432067 171.477214,124.432067 172.356624,118.648575 L172.356624,118.639406 C172.541223,117.408437 172.766845,115.927606 173.038615,114.116683 C174.584633,103.801298 180.850748,94.0773289 180.850748,94.0773289 C180.850748,94.0773289 178.240722,93.474452 170.03888,94.9736212 C166.587901,95.6040059 163.49843,96.3604674 161.096077,97.0412828 C157.773292,97.9719597 155.732446,98.7352982 155.732446,98.7352982 C155.411962,97.6831289 155.111988,96.5942828 154.824834,95.4664674 L154.729971,95.0721905 C152.101997,84.504652 151.055935,71.6791905 153.730059,67.7845597 L153.760825,67.7432982 L153.771081,67.7295443 C156.778508,63.3787443 163.101029,58.8514366 175.146122,55.5871905 C180.158502,54.2186828 184.029956,53.1435905 187.188652,52.3023136 C191.654926,51.1194828 194.700811,50.4203289 197.55697,50.1337905 L207.320213,50.7916828 C207.320213,50.7916828 212.078769,52.3412828 217.719298,54.227852 C222.413757,55.7934982 227.720982,57.6021289 231.395017,58.9591751 C239.499432,61.9322982 243.378578,66.5925597 245.711706,72.2522674 C247.30131,76.0941751 249.66264,82.7602059 251.01124,86.650252 L251.1702,87.1155905 L251.1702,87.1247597 C251.506068,88.0691905 251.757328,88.8027289 251.906033,89.2520212 C251.998332,89.5202212 252.04961,89.6806828 252.059865,89.6944366" id="Fill-16" fill="#F79738"></path>
                        <path d="M217.719298,54.227852 C202.638574,60.2887136 191.270344,54.8398982 187.188652,52.3023136 C191.654926,51.1194828 194.700811,50.4203289 197.55697,50.1337905 L207.320213,50.7916828 C207.320213,50.7916828 212.078769,52.3412828 217.719298,54.227852" id="Fill-17" fill="#E47D25"></path>
                        <path d="M161.096077,97.0412828 C157.773292,97.9719597 155.732446,98.7352982 155.732446,98.7352982 C155.411962,97.6831289 155.111988,96.5942828 154.824834,95.4664674 L154.729971,95.0721905 C152.101997,84.504652 151.055935,71.6791905 153.730059,67.7845597 L153.760825,67.7432982 C153.371116,74.8540366 156.878499,89.6233751 161.096077,97.0412828" id="Fill-18" fill="#E47D25"></path>
                        <path d="M234.074269,117.108144 C233.664049,125.234375 233.284595,132.670621 233.284595,132.670621 C233.284595,132.670621 231.456551,133.262037 228.431176,134.05059 C229.364427,128.95479 230.74892,121.044037 230.846348,118.348283 C230.846348,118.348283 227.138982,117.685806 224.259748,116.101821 C224.259748,116.101821 218.478206,123.148375 202.02068,125.770775 C185.575973,128.404637 175.215347,128.141021 175.215347,128.141021 L174.56925,136.258083 C173.510369,136.118252 172.925805,136.038021 172.925805,136.038021 L171.477214,124.432067 C171.477214,124.432067 171.477214,124.432067 172.356624,118.648575 L172.356624,118.639406 C185.22985,117.60099 212.478734,115.402667 213.127395,115.416421 C213.453007,115.416421 215.388734,113.655929 217.68084,111.448437 C220.734417,112.734421 223.885422,113.997483 226.726198,114.994637 C228.651669,115.670867 230.436128,116.225606 231.951379,116.590083 C232.653881,116.759714 233.364075,116.933929 234.074269,117.108144" id="Fill-19" fill="#E47D25"></path>
                        <path d="M226.664665,94.517452 C226.715942,92.3580982 226.749273,89.8548982 226.744145,87.1155905 C226.697995,77.8707136 226.744145,71.8579905 226.744145,71.8579905 L236.517643,88.4107443 C232.948727,88.646852 230.17974,89.0182059 230.17974,89.0182059 L230.205379,89.2107597 L230.215634,89.2107597 L231.030947,94.2836366 L231.066841,94.4761905 L230.846348,94.4807751 C230.295114,94.4899443 228.787555,94.4991136 226.664665,94.517452" id="Fill-20" fill="#E47D25"></path>
                        <path d="M178.481726,76.1881597 C179.089365,76.7108059 185.352916,92.7477905 186.573322,98.8063597 L178.250977,103.702729 L181.907066,99.7278674 C181.907066,99.7278674 181.750669,94.5793443 180.850748,88.8027289 C179.953391,83.0329905 178.481726,76.1881597 178.481726,76.1881597" id="Fill-21" fill="#E47D25"></path>
                        <path d="M179.414977,149.895021 C177.5254,151.825144 175.189708,153.677329 173.059126,155.226929 C174.379523,147.123621 176.91007,140.971067 177.407462,139.847837 C179.673929,140.148129 182.414713,140.448421 185.486238,140.684529 C184.09918,143.559083 182.007057,147.265744 179.414977,149.895021 Z M236.399705,151.130575 C232.405185,147.66919 228.572189,141.924667 226.167272,137.90396 C229.318277,137.216267 231.920612,136.544621 233.835828,135.992175 L233.76404,135.60019 C231.828313,136.14576 229.177264,136.85179 225.944215,137.550944 C225.367343,136.565252 224.872515,135.701052 224.487933,135.022529 L224.034127,135.125683 C224.418708,135.804206 224.905845,136.659237 225.482717,137.644929 C221.177968,138.566437 215.878435,139.481067 209.886654,140.090821 C210.463526,138.603114 210.88913,137.489052 210.950663,137.36756 L210.455835,137.424867 C210.276363,137.878744 209.89691,138.852975 209.396954,140.13896 C208.386786,140.232944 207.358672,140.331514 206.297227,140.40716 C198.92608,140.961898 191.92926,140.778514 186.132335,140.345267 C186.673313,139.18536 187.093789,138.195083 187.375815,137.50739 L186.924573,137.475298 C186.629727,138.179037 186.204123,139.167021 185.663145,140.313175 C182.540343,140.067898 179.768792,139.758437 177.497197,139.448975 L177.19466,139.377914 L177.169021,139.410006 C175.128175,139.132637 173.510369,138.862144 172.420721,138.66959 L172.341241,139.073037 C173.433453,139.27476 175.002545,139.524621 176.953655,139.790529 C176.158854,141.415775 173.787268,147.763175 172.551479,155.593698 C171.461831,156.373083 170.428589,157.067652 169.561998,157.636144 L169.508157,158.15879 C170.354236,157.608637 171.372095,156.923237 172.471999,156.153021 C172.125875,158.491175 171.879743,160.93019 171.815646,163.415052 C171.495162,175.617006 171.690016,213.976483 171.710527,215.92036 C171.049047,216.612637 165.121364,223.248867 163.31383,236.842252 C161.66013,249.229883 165.898218,277.024114 167.077602,284.407637 L167.518589,284.338867 C166.334077,276.973683 162.106244,249.220714 163.759945,236.89039 C165.646958,222.707883 172.025884,216.193144 172.092545,216.12896 L172.151514,215.996006 C172.146386,215.597144 171.931021,175.880621 172.261761,163.424221 C172.330985,160.774314 172.597629,158.209221 172.964263,155.80459 C175.215347,154.197683 177.727946,152.219421 179.753409,150.163221 C182.404458,147.453714 184.545295,143.634729 185.957991,140.721206 C189.311542,140.971067 193.057366,141.138406 197.000609,141.138406 C200.02342,141.138406 203.169297,141.044421 206.348504,140.796852 C207.320213,140.72579 208.289359,140.640975 209.248249,140.551575 C208.412425,142.713221 207.320213,145.574021 206.338249,148.180375 L206.47157,148.434821 L206.538231,148.44399 L206.753597,148.306452 C207.43046,146.541375 208.743165,143.066237 209.727694,140.505729 C215.878435,139.889098 221.303598,138.94696 225.705775,138.011698 C228.190171,142.190575 232.248788,148.292698 236.517643,151.774714 C236.479185,151.559237 236.435599,151.346052 236.399705,151.130575 L236.399705,151.130575 Z" id="Fill-22" fill="#A6DDEB"></path>
                        <path d="M243.137574,285.159514 L242.747864,285.365821 C242.67864,285.159514 242.588904,284.934867 242.499168,284.680421 C236.915044,269.147744 233.37433,258.14696 231.951379,251.982944 C231.518084,250.07116 231.030947,248.191467 230.548938,246.373667 C228.208118,237.419914 225.987801,228.965883 229.282383,215.842421 L210.555826,164.03856 L210.509676,163.898729 L207.684284,156.100298 L207.679156,156.063621 L207.684284,155.997144 L207.071517,156.382252 L205.733174,157.237283 L205.607544,157.27396 L205.546011,157.255621 L205.422945,157.189144 L205.474222,156.904898 L210.635306,153.63836 L210.945535,153.681914 L210.88913,153.954698 L207.950927,155.827514 L208.102196,155.949006 L229.725934,215.77136 L229.725934,215.869929 C226.444171,228.94296 228.641414,237.364898 230.984797,246.279683 C231.456551,248.102067 231.951379,249.990929 232.397493,251.902714 C233.799934,258.052975 237.343212,269.049175 242.927336,284.563514 C243.004252,284.792744 243.073477,284.992175 243.137574,285.159514" id="Fill-23" fill="#A6DDEB"></path>
                        <path d="M8.57360433,283.300452 C5.95075827,284.038575 1.14861685,286.748083 -3.18805218e-14,293.297206 L14.4577018,293.297206 C14.4577018,293.297206 15.9857724,286.376729 17.2164333,284.150898 L8.57360433,283.300452" id="Fill-24" fill="#263B7F"></path>
                        <path d="M224.826365,114.304652 C223.264964,115.260544 207.125359,123.125452 192.672785,124.73236 C177.47925,126.42179 169.933761,126.614344 164.82139,121.05779 C159.726967,115.501237 155.732446,98.7352982 155.732446,98.7352982 C155.732446,98.7352982 156.522121,97.7771136 160.552535,96.5002982 C162.152394,95.9891136 164.262465,95.4297905 167.039144,94.875052 C176.804951,92.8876212 181.581453,93.5776059 181.581453,93.5776059 C181.676317,95.0859443 181.90963,97.5203751 182.132687,99.7737136 C181.36096,100.718144 178.917585,106.086729 183.904326,106.185298 C188.901322,106.274698 195.667393,104.016775 195.667393,104.016775 C195.667393,104.016775 199.849076,104.02136 203.584645,105.396744 L203.620539,105.410498 C205.956231,106.274698 213.119703,109.61459 220.201131,112.496021 C221.762532,113.133283 223.326497,113.749914 224.826365,114.304652" id="Fill-25" fill="#F1B5AB"></path>
                        <path d="M257.215822,111.006021 C257.110703,113.364806 256.503064,115.327021 255.146773,116.590083 C250.567689,120.874406 241.896657,118.98096 234.074269,117.108144 C233.364075,116.933929 232.653881,116.759714 231.951379,116.590083 C229.948991,116.115575 227.469722,115.299514 224.826365,114.304652 C216.519404,111.207744 206.47157,106.467252 203.620539,105.410498 L203.615411,105.401329 L203.584645,105.396744 C199.849076,104.02136 195.667393,104.016775 195.667393,104.016775 C195.667393,104.016775 188.901322,106.274698 183.904326,106.185298 C182.591621,106.15779 181.796819,105.758929 181.340449,105.181267 C180.089277,103.551437 181.560942,100.470575 182.132687,99.7737136 C182.909542,98.8315751 190.234538,95.560452 192.567666,94.5220366 C194.895666,93.474452 203.223138,94.368452 212.542831,94.4761905 C221.862523,94.5747597 231.066841,94.4761905 231.066841,94.4761905 L231.020691,94.1942366 L231.020691,94.1758982 L230.17974,89.0182059 C230.17974,89.0182059 232.664137,88.6881136 235.948463,88.4542982 C237.722666,88.3259289 239.727617,88.229652 241.717186,88.229652 C247.214138,88.229652 251.800914,89.6233751 252.059865,89.6944366 L252.059865,89.7036059 C254.382738,96.0922674 257.490156,104.894729 257.215822,111.006021" id="Fill-26" fill="#F1B5AB"></path>
                        <path d="M84.1746423,280.104975 L84.138748,279.804683 C83.1029418,279.795514 81.9876553,279.875744 80.8441662,280.104975 C76.4060953,280.998975 69.1964735,286.617421 69.1964735,286.617421 L89.3895679,286.649514 C89.3895679,286.649514 89.2357353,281.24196 89.3895679,280.600114 C86.6128892,281.792114 84.1746423,280.104975 84.1746423,280.104975" id="Fill-27" fill="#D64E27"></path>
                        <path d="M129.111713,279.804683 L125.891483,287.545806 C125.891483,287.545806 130.880788,287.747529 135.870092,287.584775 C135.870092,287.584775 134.657378,282.786975 133.21648,279.710698 L132.931889,279.839067 C129.847545,281.290098 129.111713,279.804683 129.111713,279.804683" id="Fill-28" fill="#D64E27"></path>
                        <path d="M180.358484,24.0427443 C178.176625,25.0123905 179.438052,34.3535443 186.573322,33.3128366 C185.470855,29.8308212 183.573586,26.6124212 181.991674,24.0679597 C181.491718,23.8410212 180.93792,23.7814212 180.358484,24.0427443" id="Fill-29" fill="#F1B5AB"></path>
                        <path d="M189.903798,22.6536059 C189.347436,21.6587443 191.344696,20.1687443 195.226406,19.6758982 C199.113243,19.1784674 200.554142,20.4690366 200.554142,20.4690366 C200.554142,20.4690366 200.861808,21.2621751 196.990353,21.5624674 C193.118899,21.8558828 189.903798,22.6536059 189.903798,22.6536059" id="Fill-30" fill="#441211"></path>
                        <path d="M209.984082,19.9761905 C209.022628,19.4260366 212.758196,17.1956212 216.419413,17.5944828 L216.419413,19.1486674 C216.419413,19.1486674 211.204487,20.6707597 209.984082,19.9761905" id="Fill-31" fill="#441211"></path>
                        <path d="M164.606024,284.765237 C164.606024,284.765237 170.264501,282.064898 175.476862,282.266621 C180.694352,282.46376 182.686484,286.860406 182.686484,286.860406 L164.606024,286.926883 L164.606024,284.765237" id="Fill-32" fill="#D64E27"></path>
                        <path d="M242.383794,285.558375 C242.383794,285.558375 246.488561,281.290098 252.03679,281.393252 C257.582456,281.491821 262.133338,286.667852 262.133338,286.667852 C262.133338,286.667852 243.937503,287.039206 242.383794,286.892498 L242.383794,285.558375" id="Fill-33" fill="#D64E27"></path>
                        <path d="M217.955175,31.3001905 C219.821677,35.4951136 220.860047,40.3066674 215.532311,44.2792366 C215.047738,44.6414212 214.514452,44.9806828 213.945271,45.2901443 C212.306954,46.2047751 210.394302,46.8924674 208.386786,47.3898982 C204.792231,48.2724366 200.920777,48.4604059 197.885146,47.9767289 C197.644142,47.9354674 197.400574,47.9056674 197.177516,47.8552366 C196.890362,47.7979289 196.628847,47.731452 196.362204,47.6580982 C195.918653,47.5388982 195.498177,47.4082366 195.116159,47.2523597 C190.234538,45.2672212 188.344961,40.6069597 187.011745,34.9036982 C186.888678,34.3650059 186.73741,33.8423597 186.568194,33.3174212 C185.475982,29.8262366 183.578713,26.6170059 181.991674,24.0725443 C181.271224,22.9126366 180.622563,21.8971443 180.143118,21.0650366 C178.435576,18.1262982 178.917585,12.746252 183.994061,7.40059048 L184.001753,7.40059048 L184.022264,7.37308279 C189.124379,2.01825202 194.564926,0.35862125 199.997781,0.0354058652 C204.997341,-0.260301827 213.314558,1.3282674 217.191139,3.60452894 C217.96543,4.05611356 218.506408,4.75068279 218.87817,5.59195971 C220.380602,8.97540587 219.057642,14.8093289 218.496153,17.1956212 C218.150029,18.6833289 217.665457,20.5102982 217.273184,21.9636212 C216.870655,23.4192366 216.570681,24.517252 216.570681,24.517252 C215.311818,21.0994212 215.781007,13.6058674 215.542567,12.1066982 C215.293871,10.6052366 211.330117,12.3336366 208.758548,13.6287905 C206.194671,14.9124828 199.672169,14.9124828 196.226318,14.1193443 C192.783031,13.3284982 191.121639,12.9296366 189.232062,14.4242212 C187.519392,15.7720982 185.345225,19.3412212 185.547771,23.8570674 L185.547771,23.8662366 C185.568282,24.3155289 185.609304,24.7625289 185.681092,25.2278674 C186.463075,30.3855597 189.232062,33.7621289 192.783031,39.8184059 C194.6803,43.0390982 196.823701,44.2379751 198.410741,44.6505905 L198.426124,44.6597597 C199.813182,45.0081905 200.769508,44.7674982 200.769508,44.7674982 C200.769508,44.7674982 203.102636,41.6958059 207.545835,40.2126828 C211.981342,38.7226828 214.865703,41.4046828 214.865703,41.4046828 C217.306514,39.7106674 217.955175,31.3001905 217.955175,31.3001905" id="Fill-34" fill="#591813"></path>
                        <polyline id="Fill-35" fill="#263B7F" points="104.701041 90.4279751 104.701041 93.7999597 119.456152 92.1174059 119.456152 88.6422674 104.701041 90.4279751"></polyline>
                        <path d="M208.212443,79.0970982 L209.207227,84.057652 C209.207227,84.057652 221.413845,81.2770828 225.628858,81.5773751 L223.744409,76.9171136 C223.744409,76.9171136 217.639818,76.8139597 208.212443,79.0970982" id="Fill-36" fill="#D64E27"></path>
                        <path d="M149.843221,266.766037 C147.32293,267.483529 145.294904,268.565498 143.323282,270.092175 C139.431317,273.115729 138.04426,277.086006 138.536524,278.796067 C138.687793,279.330175 138.946744,279.476883 139.336454,279.552529 C142.346445,280.121021 146.717855,276.522098 149.725283,267.155729 L149.843221,266.766037 Z M139.905634,283.568652 C139.290304,283.568652 138.780092,283.50676 138.410894,283.431114 C136.308515,283.027667 134.788136,281.702714 134.239466,279.786344 C133.178021,276.109483 135.836762,270.65379 140.413282,267.098421 C143.595053,264.631898 146.943476,263.180867 150.963635,262.415237 C153.53264,250.715298 155.127371,230.765344 154.299239,218.118683 C153.173697,200.889698 145.725635,181.719129 134.377916,166.83976 C122.002082,150.614806 108.180222,146.09896 99.9629962,148.815344 C94.1942732,150.727129 84.6771622,162.828221 74.5139542,181.189606 C69.186218,190.803544 48.1880662,229.220329 42.7398278,241.550652 C37.3685057,253.711344 25.0003636,281.482652 24.8747336,281.755437 C24.4234913,282.78239 23.1338612,283.277529 21.9954999,282.867206 C20.8545747,282.46376 20.2982134,281.313021 20.7520196,280.28836 C20.8776496,280.015575 33.2406639,252.24656 38.6145499,240.092744 C44.1191936,227.636344 65.1891339,189.075144 70.5348172,179.426821 C78.3008004,165.407067 89.4357177,148.068052 98.4246701,145.094929 C103.778045,143.32756 110.428742,144.008375 117.143535,147.020467 C124.589034,150.364944 131.821731,156.444144 138.04426,164.602467 C149.827838,180.048037 157.560491,199.972775 158.732182,217.889452 C159.542368,230.295421 158.055319,249.642498 155.596561,261.83299 C159.23983,261.578544 163.426641,261.672529 168.415945,261.954483 C169.638915,262.02096 170.569602,262.960806 170.49525,264.058821 C170.413206,265.14996 169.392783,265.970606 168.139047,265.91559 C162.429293,265.594667 158.116852,265.562575 154.665874,265.901837 C154.44538,266.747698 154.219759,267.536252 153.98901,268.253744 C149.686825,281.647698 143.238674,283.568652 139.905634,283.568652 L139.905634,283.568652 Z" id="Fill-37" fill="#B15026"></path>
                        <path d="M21.0725042,279.566283 C19.223949,280.215006 7.17116367,282.605883 7.28141038,284.526837 C7.39165709,286.452375 23.5569009,282.915344 23.5569009,282.915344 L21.0725042,279.566283" id="Fill-38" fill="#AB463E"></path>
                        <path d="M220.070373,240.89276 L218.737157,253.420221 L215.647686,282.562329 C215.647686,285.466683 205.376795,287.823175 192.713807,287.823175 C191.352388,287.823175 190.021736,287.800252 188.726978,287.742944 C177.966387,287.31199 169.782492,285.159514 169.782492,282.562329 C169.782492,282.562329 168.65695,273.083637 167.464747,263.190037 C167.418597,262.78659 167.369884,262.387729 167.323734,261.984283 C166.980174,259.109729 166.634051,256.232883 166.303311,253.571514 C165.470051,246.685421 164.785496,241.268698 164.706016,241.135744 C165.346985,242.602821 169.151778,243.897975 174.841021,244.771344 C179.617524,245.509467 185.696476,245.951883 192.336917,245.951883 C207.320213,245.951883 219.534523,243.705421 220.070373,240.89276" id="Fill-39" fill="#A6DDEB"></path>
                        <path d="M188.726978,287.742944 C177.966387,287.31199 169.782492,285.159514 169.782492,282.562329 C169.782492,282.562329 168.65695,273.083637 167.464747,263.190037 C167.418597,262.78659 167.369884,262.387729 167.323734,261.984283 C166.980174,259.109729 166.634051,256.232883 166.303311,253.571514 C165.470051,246.685421 164.785496,241.268698 164.706016,241.135744 C165.346985,242.602821 169.151778,243.897975 174.841021,244.771344 C177.904854,258.493098 183.063374,278.880883 188.726978,287.742944" id="Fill-40" fill="#66C8CE"></path>
                        <path d="M220.085756,240.700206 C220.085756,243.606852 207.658645,245.951883 192.336917,245.951883 C185.581101,245.951883 179.404722,245.491129 174.592325,244.739252 C169.046659,243.856714 165.336729,242.577606 164.706016,241.135744 L164.608588,240.700206 C164.608588,238.864067 169.541487,237.252575 177.033136,236.317314 C181.419929,235.762575 186.683568,235.443944 192.336917,235.443944 C207.658645,235.443944 220.085756,237.795852 220.085756,240.700206" id="Fill-41" fill="#E69548"></path>
                        <path d="M218.737157,253.420221 L217.709043,263.14419 C213.801694,264.022144 205.938284,265.303544 191.785683,265.794098 C187.216855,265.952267 183.347964,265.862867 180.089277,265.619883 C173.938536,265.145375 169.954272,264.134467 167.464747,263.190037 C167.418597,262.78659 167.369884,262.387729 167.323734,261.984283 C166.980174,259.109729 166.634051,256.232883 166.303311,253.571514 C168.621056,254.410498 172.261761,255.421406 177.540783,256.079298 C181.507101,256.576729 186.419489,256.881606 192.393322,256.769283 C206.097244,256.524006 214.414461,254.736006 218.737157,253.420221" id="Fill-42" fill="#A3D6B7"></path>
                        <path d="M201.86172,285.558375 C201.86172,279.795514 207.089465,275.126083 213.535051,275.126083 C219.980638,275.126083 225.205819,279.795514 225.205819,285.558375 C225.205819,291.318944 219.980638,295.99296 213.535051,295.99296 C207.089465,295.99296 201.86172,291.318944 201.86172,285.558375" id="Fill-43" fill="#703E3E"></path>
                        <path d="M213.535051,293.615837 C208.566258,293.615837 204.525588,290.00316 204.525588,285.558375 C204.525588,281.115883 208.566258,277.503206 213.535051,277.503206 C218.503844,277.503206 222.541951,281.115883 222.541951,285.558375 C222.541951,290.00316 218.503844,293.615837 213.535051,293.615837" id="Fill-44" fill="#E78234"></path>
                        <path d="M167.600633,287.660421 C167.600633,284.675837 170.305523,282.252867 173.648818,282.252867 C176.986986,282.252867 179.69444,284.675837 179.69444,287.660421 C179.69444,290.647298 176.986986,293.070267 173.648818,293.070267 C170.305523,293.070267 167.600633,290.647298 167.600633,287.660421" id="Fill-45" fill="#703E3E"></path>
                        <path d="M173.648818,290.68856 C171.779752,290.68856 170.264501,289.326929 170.264501,287.660421 C170.264501,285.991621 171.779752,284.634575 173.648818,284.634575 C175.515321,284.634575 177.030572,285.991621 177.030572,287.660421 C177.030572,289.326929 175.515321,290.68856 173.648818,290.68856" id="Fill-46" fill="#E78234"></path>
                        <path d="M126.599113,74.3566059 C123.84551,78.9091289 122.248214,89.0457136 122.230267,89.1626212 L122.009774,89.3368366 L121.981571,89.3368366 L121.784152,89.1121905 C121.86876,88.6285136 123.42247,78.7578366 126.217096,74.1548828 L126.599113,74.3566059" id="Fill-47" fill="#601112"></path>
                        <path d="M101.370565,82.2054674 L101.291084,84.7751443 L101.275701,85.2358982 L100.724468,102.733083 L100.50141,102.921052 L100.493719,102.921052 L100.278353,102.723914 L100.929578,82.2948674 L94.2532424,78.1939289 L94.1635067,78.0495136 L94.2173481,77.8936366 C96.0710311,76.0666674 98.8502737,73.2677597 99.883516,72.0642982 L100.457824,72.0138674 C99.5732869,73.1600212 96.6684144,76.0758366 94.7147402,77.9922059 L101.275701,82.0243751 L101.370565,82.2054674" id="Fill-48" fill="#601112"></path>
                        <polyline id="Fill-49" fill="#601112" points="101.150071 85.2679905 100.95778 85.1694212 101.039825 84.8989289 111.805544 79.4248982 108.436609 71.6379289 108.564803 71.3788982 108.851957 71.5003905 112.284989 79.4432366 112.184997 79.6885136 101.260318 85.2450674 101.150071 85.2679905"></polyline>
                        <path d="M122.320003,140.274206 C124.253166,139.641529 125.976091,138.960714 127.493906,138.293652 C127.786188,138.67876 128.763025,140.39799 129.991122,143.070821 C126.163254,142.488575 123.253254,140.858744 122.320003,140.274206 Z M138.762145,238.417067 C137.703264,228.48679 131.473043,218.60236 130.929501,217.75879 C131.029493,216.926683 132.042224,208.156314 132.767801,195.690744 C133.03188,191.289514 133.680541,186.516929 134.308691,181.897929 C135.572682,172.664514 136.875132,163.128514 135.093237,156.148437 C133.824118,151.174129 132.147343,146.791237 130.698752,143.559083 C131.344849,143.634729 132.011457,143.67599 132.70114,143.67599 C134.080506,143.67599 135.536788,143.520114 137.028964,143.121252 L136.780268,142.770529 C134.559951,143.343606 132.431933,143.380283 130.514153,143.144175 C129.316823,140.510314 128.309219,138.72919 127.875924,138.128606 C129.378356,137.45696 130.655167,136.794483 131.693537,136.212237 L131.42433,135.902775 C127.629792,138.007114 120.694505,141.138406 111.320971,142.341867 C100.768054,143.703498 93.532793,142.309775 90.3023081,141.42036 L90.1689865,141.796298 C91.0483963,142.041575 92.2098325,142.309775 93.6584229,142.566514 C93.1635947,143.245037 90.6766341,146.598683 87.9948189,148.975806 C87.9255942,149.223375 87.8538057,149.468652 87.7922726,149.72539 C90.9663522,147.08236 93.9583965,142.873683 94.1199208,142.646744 C96.3915157,143.018098 99.2656217,143.304637 102.729419,143.304637 C105.303552,143.304637 108.200733,143.144175 111.395323,142.73156 C115.29498,142.229544 118.78698,141.392852 121.804663,140.439252 C122.373844,140.801437 125.681245,142.873683 130.183413,143.49719 C131.62944,146.71559 133.362621,151.167252 134.667634,156.247006 C136.431581,163.151437 135.126568,172.662221 133.875396,181.852083 C133.236991,186.47796 132.58833,191.259714 132.331942,195.679283 C131.560215,208.706467 130.485951,217.696898 130.475695,217.781714 L130.503898,217.90779 C130.573122,218.00636 137.234075,228.204837 138.326286,238.458329 C139.303123,247.61839 133.113924,274.41776 131.721739,280.297529 L132.206312,280.143944 C133.708744,273.801129 139.728727,247.510652 138.762145,238.417067 L138.762145,238.417067 Z" id="Fill-50" fill="#A6DDEB"></path>
                        <path d="M112.902883,161.71416 L112.705464,161.938806 L112.456768,161.77376 L112.387544,161.539944 L112.387544,161.530775 C112.16705,160.914144 111.420962,159.637329 110.949209,158.857944 C109.767261,161.647683 102.778133,178.221067 99.2528023,188.300344 C97.0376127,194.638575 94.0045463,201.866221 91.9970307,206.638806 C90.7279117,209.660067 89.638264,212.271006 89.5946781,212.674452 C90.8330306,213.962729 95.2300795,224.766375 95.7710575,234.561406 C96.2761413,243.781067 90.8099557,271.717421 88.971656,280.758283 L88.4999026,280.891237 C90.284361,272.091067 95.8325906,243.829206 95.3249429,234.579744 C94.740379,223.982406 90.0177178,213.614298 89.3023961,212.928898 L89.1947133,212.848667 C89.0306252,212.651529 89.1844578,212.204529 91.5816827,206.50356 C93.5866344,201.730975 96.614573,194.51479 98.8297626,188.178852 C102.667886,177.191821 110.628724,158.500344 110.708204,158.312375 L110.892803,158.186298 L111.110733,158.284867 C111.279949,158.562237 112.797764,161.015006 112.902883,161.71416" id="Fill-51" fill="#A6DDEB"></path>
                        <path d="M202.943676,79.8902366 L202.733438,79.7549905 C200.405437,73.4511443 196.828829,63.9288982 196.451939,63.3695751 L196.413481,63.1403443 L196.713455,63.0555289 C196.818574,63.1059597 197.090345,63.2343289 202.861632,78.842652 L205.38705,63.8119905 L205.63831,63.6469443 L205.822909,63.8738828 L203.164169,79.7206059 L202.964187,79.8902366 L202.943676,79.8902366" id="Fill-52" fill="#601112"></path>
                        <polyline id="Fill-53" fill="#601112" points="202.943676 79.8902366 202.723182 79.7160212 200.884882 65.6297905 201.082301 65.4051443 201.330997 65.581652 203.164169 79.6655905 202.969314 79.8902366 202.943676 79.8902366"></polyline>
                        <path d="M231.066841,94.6733289 L230.846348,94.4853597 L231.056586,94.2744674 C231.089916,94.2744674 234.840868,94.1048366 236.917608,93.8458059 L237.16374,94.010852 L236.974014,94.2354982 C234.887018,94.4991136 231.115555,94.6687443 231.074533,94.6733289 L231.066841,94.6733289" id="Fill-54" fill="#601112"></path>
                        <path d="M182.49163,29.5351136 C182.35318,29.3838212 182.714687,28.7740674 183.137727,28.3270674 C183.414625,28.6846674 183.673577,29.0881136 183.89407,29.5259443 C183.337709,29.6474366 182.648026,29.7001597 182.49163,29.5351136 Z M181.412237,26.1241597 L181.104572,26.1722982 L181.15585,26.4450828 C181.171233,26.4588366 182.045515,27.0319136 182.889031,28.0221905 L182.80955,28.0542828 C182.542907,28.3408212 181.696828,29.3012982 182.153198,29.7895597 C182.324978,29.9775289 182.648026,30.0325443 182.994149,30.0325443 C183.383859,30.0325443 183.801771,29.9614828 184.060722,29.9018828 C184.209427,30.268652 184.329929,30.6583443 184.394026,31.0801289 L184.611956,31.2497597 L184.642722,31.2497597 L184.832449,31.0205289 C184.381207,28.0611597 181.535304,26.2043905 181.412237,26.1241597 L181.412237,26.1241597 Z" id="Fill-55" fill="#983222"></path>
                        <path d="M208.922636,33.6498059 C207.930416,33.6498059 206.748469,33.4480828 205.494733,32.8131136 L205.412689,32.5403289 L205.712663,32.4623905 C208.266284,33.7712982 210.530187,33.1088212 211.258328,32.8337443 C210.719914,32.2308674 209.127747,30.3328366 208.179112,27.8731905 C207.02024,24.8794366 208.125271,20.6042828 208.173984,20.4231905 L208.440628,20.2764828 L208.60728,20.5125905 C208.59446,20.553852 207.481738,24.8565136 208.599588,27.7448212 C209.722566,30.6491751 211.75572,32.7489289 211.778795,32.771852 L211.832637,32.9323136 L211.72239,33.0721443 C211.645474,33.1088212 210.540443,33.6498059 208.922636,33.6498059" id="Fill-56" fill="#983222"></path>
                        <path d="M199.113243,34.4910828 C199.333737,34.4910828 203.920513,35.7495597 207.615059,35.1489751 C211.314734,34.5529751 213.124831,34.4910828 213.124831,34.4910828 C213.124831,34.4910828 211.240381,39.3805751 206.951015,39.5822982 C202.659085,39.7794366 199.113243,34.4910828 199.113243,34.4910828" id="Fill-57" fill="#FFFFFF"></path>
                        <path d="M196.649358,25.5762982 C196.731402,26.9654366 196.382715,28.1024212 195.877631,28.1253443 C195.367419,28.152852 194.88541,27.050252 194.800803,25.6702828 C194.721322,24.2880212 195.067446,23.146452 195.577657,23.1235289 C196.087869,23.0960212 196.567314,24.1986212 196.649358,25.5762982" id="Fill-58" fill="#601112"></path>
                        <path d="M211.68906,23.8272674 C211.771104,25.2049443 211.42498,26.3465136 210.914769,26.3740212 C210.404557,26.3969443 209.922548,25.2989289 209.843068,23.9166674 C209.761024,22.5321136 210.104584,21.3951289 210.614795,21.3699136 C211.125007,21.3469905 211.607016,22.4472982 211.68906,23.8272674" id="Fill-59" fill="#601112"></path>
                        <path d="M167.044271,95.0721905 L166.828906,94.9117289 L166.998122,94.6779136 C177.238246,92.7088212 181.427621,93.2452212 181.5994,93.2681443 L181.786563,93.4904982 L181.530176,93.6578366 C181.491718,93.653252 177.233118,93.1099751 167.090421,95.0676059 L167.044271,95.0721905" id="Fill-60" fill="#601112"></path>
                        <path d="M181.07637,90.3385751 L181.037911,90.4119289 L180.817418,90.5059136 C180.684096,90.4829905 167.933937,88.6972828 154.824834,95.4664674 L154.729971,95.0721905 C167.944192,88.2984212 180.755885,90.0932982 180.889207,90.107052 L181.012273,90.1735289 L181.07637,90.3385751" id="Fill-61" fill="#601112"></path>
                        <path d="M251.1702,87.1155905 C243.004252,84.2593751 231.448859,86.1230212 229.736189,86.4256059 L229.513132,86.4668674 L229.25418,86.3362059 L229.249053,86.3155751 L229.238797,86.2605597 L229.415705,86.0771751 L229.638762,86.0359136 C231.351432,85.7379136 242.737609,83.8971905 251.01124,86.650252 L251.1702,87.1155905" id="Fill-62" fill="#601112"></path>
                        <path d="M89.0947221,113.772837 L89.0254974,113.818683 L88.9255062,113.839314 L88.8203872,113.814098 C84.7822811,111.865637 79.1699546,111.11376 76.7752936,110.86619 L76.8265711,110.469621 C79.1109855,110.710314 84.2771974,111.400298 88.2871009,113.128698 L88.1204489,112.890298 C87.3743607,112.479975 78.1956814,107.065544 81.8953558,94.3432366 L82.161999,94.2034059 L82.3209593,94.4486828 C78.5674435,107.342914 88.2871009,112.528114 88.3845282,112.57396 L88.4640084,112.635852 L88.9255062,113.275406 L88.9357617,113.27999 L88.9357617,113.284575 L89.1101053,113.536729 L89.0947221,113.772837" id="Fill-63" fill="#601112"></path>
                        <path d="M140.41841,99.8585289 C132.331942,99.5972059 126.804223,104.383544 126.422206,104.715929 L126.368364,104.871806 L126.368364,104.880975 C126.281193,105.195021 126.17351,105.495314 126.058135,105.777267 L126.011985,105.901052 C125.576126,106.950929 124.999254,107.844929 124.278805,108.592221 L124.183941,108.677037 L123.563483,109.243237 C123.135316,109.582498 122.673818,109.873621 122.176426,110.137237 C120.427862,111.033529 118.499826,111.29256 116.887148,111.29256 C114.846302,111.29256 113.292592,110.884529 113.177218,110.850144 L113.036205,110.602575 L113.313103,110.47879 C113.354125,110.485667 118.189597,111.723514 121.955932,109.788806 C123.953192,108.764144 125.312047,107.03116 125.996602,104.640283 L121.084214,95.7713443 L121.194461,95.5100212 L121.484179,95.5948366 L126.28632,104.28039 C127.388787,103.368052 132.742162,99.2671136 140.277397,99.464252 L140.41841,99.8585289" id="Fill-64" fill="#601112"></path>
                        <path d="M201.110504,65.6068674 C201.010512,65.5128828 200.84386,65.3890982 200.600292,65.2446828 C198.338953,63.8578366 190.342221,60.4491751 190.342221,60.4491751 C190.342221,60.4491751 191.370335,58.2118828 192.567666,55.6101136 C194.247005,51.992852 196.262212,47.6580982 196.334001,47.6580982 L196.362204,47.6580982 C196.628847,47.731452 196.890362,47.7979289 197.177516,47.8552366 C197.400574,47.9056674 197.644142,47.9354674 197.885146,47.9767289 C197.859508,49.1595597 197.851816,53.5011905 198.908133,57.0061289 L198.941464,57.1230366 C200.213147,61.2423136 201.110504,65.6068674 201.110504,65.6068674" id="Fill-65" fill="#2B91BE"></path>
                        <path d="M215.311818,60.1488828 C211.717262,61.4256982 201.882231,65.3042828 201.154089,65.5931136 C201.692504,65.2859443 203.400046,61.3087905 205.058874,56.9671597 C206.397218,53.4690982 207.709923,49.7326366 208.358584,47.4884674 L208.397042,47.3990674 L209.417465,47.1262828 L213.268408,55.6422059 L215.311818,60.1488828" id="Fill-66" fill="#2B91BE"></path>
                        <path d="M213.945271,45.2901443 C212.306954,46.2047751 210.394302,46.8924674 208.386786,47.3898982 C204.792231,48.2724366 200.920777,48.4604059 197.885146,47.9767289 C197.644142,47.9354674 197.400574,47.9056674 197.177516,47.8552366 C196.890362,47.7979289 196.628847,47.731452 196.362204,47.6580982 C195.918653,47.5388982 195.498177,47.4082366 195.116159,47.2523597 C190.234538,45.2672212 188.344961,40.6069597 187.011745,34.9036982 C186.888678,34.3650059 186.73741,33.8423597 186.568194,33.3174212 C185.475982,29.8262366 183.578713,26.6170059 181.991674,24.0725443 C181.271224,22.9126366 180.622563,21.8971443 180.143118,21.0650366 C178.435576,18.1262982 178.917585,12.746252 183.994061,7.40059048 C182.832625,12.1181597 183.063374,17.8443443 185.547771,23.8570674 L185.547771,23.8662366 C185.568282,24.3155289 185.609304,24.7625289 185.681092,25.2278674 C186.463075,30.3855597 189.232062,33.7621289 192.783031,39.8184059 C194.6803,43.0390982 196.823701,44.2379751 198.410741,44.6505905 L198.426124,44.6597597 C201.30023,46.0190982 207.215094,47.0185443 213.945271,45.2901443" id="Fill-67" fill="#441211"></path>
                        <path d="M218.496153,17.1956212 C218.150029,18.6833289 217.665457,20.5102982 217.273184,21.9636212 C216.870655,23.4192366 216.570681,24.517252 216.570681,24.517252 C215.311818,21.0994212 215.781007,13.6058674 215.542567,12.1066982 C216.88091,10.2957751 218.070549,8.04931356 218.87817,5.59195971 C220.380602,8.97540587 219.057642,14.8093289 218.496153,17.1956212" id="Fill-68" fill="#441211"></path>
                        <path d="M198.908133,57.0061289 C196.172477,56.7746059 194.105992,56.2198674 192.567666,55.6101136 C194.247005,51.992852 196.262212,47.6580982 196.334001,47.6580982 L196.362204,47.6580982 C196.628847,47.731452 196.890362,47.7979289 197.177516,47.8552366 C197.400574,47.9056674 197.644142,47.9354674 197.885146,47.9767289 C197.859508,49.1595597 197.851816,53.5011905 198.908133,57.0061289" id="Fill-69" fill="#0A4E8D"></path>
                        <path d="M213.268408,55.6422059 C210.189192,56.3574059 207.463791,56.7700212 205.058874,56.9671597 C206.397218,53.4690982 207.709923,49.7326366 208.358584,47.4884674 L208.397042,47.3990674 L209.417465,47.1262828 L213.268408,55.6422059" id="Fill-70" fill="#0A4E8D"></path>
                        <path d="M174.592325,244.739252 C169.046659,243.856714 165.336729,242.577606 164.706016,241.135744 L164.608588,240.700206 C164.608588,238.864067 169.541487,237.252575 177.033136,236.317314 C174.479514,239.196452 174.274404,242.380467 174.592325,244.739252" id="Fill-71" fill="#D2833B"></path>
                        <path d="M171.925893,240.399914 L171.425937,240.315098 C170.743946,240.065237 170.415769,239.370667 170.695232,238.760914 L175.35636,228.544098 C175.546087,228.115437 175.999893,227.828898 176.512669,227.805975 L206.47157,226.315975 C207.061262,226.293052 207.640698,226.632314 207.820169,227.152667 L211.478822,237.871498 C211.694187,238.497298 211.29935,239.16436 210.594284,239.356914 C209.891782,239.549467 209.148258,239.196452 208.932892,238.56836 L205.576777,228.745821 L177.502325,230.144129 L173.159118,239.66179 C172.94888,240.122544 172.451488,240.399914 171.925893,240.399914" id="Fill-72" fill="#D45927"></path>
                        <path d="M145.976895,116.122452 C145.823062,116.755129 144.579582,119.212483 142.487458,122.27959 C140.010753,125.91519 136.341845,130.401237 131.8807,133.688406 C123.678858,139.730929 109.803156,144.48976 109.803156,144.48976 C109.362169,147.270329 106.698301,150.844037 105.480459,150.745467 L105.285605,150.70879 C104.344662,150.387867 105.036909,148.368344 105.036909,148.368344 C105.036909,148.368344 102.701217,152.334037 101.370565,152.146067 C100.104009,151.962683 102.05512,148.425652 102.239719,148.08639 C100.678318,149.979837 97.9349696,152.728314 97.0478682,152.031452 C96.1607668,151.332298 100.706521,144.588329 100.706521,144.588329 C100.706521,144.588329 97.3786083,146.573467 96.7120003,146.174606 C96.0479562,145.780329 98.0452163,143.900637 100.037349,142.112637 C102.034609,140.331514 106.367561,139.932652 107.362345,139.824914 C108.354565,139.730929 112.687517,135.563514 118.353685,129.809821 L118.610073,129.55079 L118.620328,129.541621 C124.24291,123.76959 131.8807,114.731021 131.8807,114.731021 C131.329466,114.031867 127.229827,106.398483 127.229827,106.398483 C127.229827,106.398483 127.724655,105.98816 129.011721,105.311929 C130.078294,104.754898 131.67559,104.025944 133.993334,103.228221 C139.098013,101.442514 141.200392,102.132498 141.200392,102.132498 C142.318243,103.319914 146.312763,114.731021 145.976895,116.122452" id="Fill-73" fill="#F1B5AB"></path>
                        <path d="M133.442101,115.327021 C133.442101,115.327021 125.21462,124.232637 118.620328,129.541621 C124.24291,123.76959 131.8807,114.731021 131.8807,114.731021 C131.329466,114.031867 127.229827,106.398483 127.229827,106.398483 C127.229827,106.398483 127.724655,105.98816 129.011721,105.311929 C132.396039,110.057006 133.32929,113.701775 133.442101,115.327021" id="Fill-74" fill="#F5948D"></path>
                        <path d="M142.487458,122.27959 C140.010753,125.91519 136.341845,130.401237 131.8807,133.688406 C123.678858,139.730929 109.803156,144.48976 109.803156,144.48976 C109.362169,147.270329 106.698301,150.844037 105.480459,150.745467 L105.285605,150.70879 C107.308504,147.735667 108.859649,143.501775 108.859649,143.501775 C108.859649,143.501775 117.348645,140.223775 127.442629,134.075806 C134.349713,129.869421 139.700524,125.14956 142.487458,122.27959" id="Fill-75" fill="#F5948D"></path>
                        <path d="M224.826365,114.304652 C223.264964,115.260544 207.125359,123.125452 192.672785,124.73236 C177.47925,126.42179 169.933761,126.614344 164.82139,121.05779 C159.726967,115.501237 155.732446,98.7352982 155.732446,98.7352982 C155.732446,98.7352982 156.522121,97.7771136 160.552535,96.5002982 C161.555011,100.71356 164.085557,114.439898 172.36688,120.067514 C172.36688,120.067514 187.245057,123.045221 199.723446,120.067514 C208.873923,117.887529 216.686056,114.265683 220.201131,112.496021 C221.762532,113.133283 223.326497,113.749914 224.826365,114.304652" id="Fill-76" fill="#F5948D"></path>
                        <polyline id="Fill-77" fill="#F5948D" points="180.353356 111.932114 180.363612 111.932114 180.363612 111.941283 180.353356 111.932114"></polyline>
                        <path d="M257.215822,111.006021 C257.110703,113.364806 256.503064,115.327021 255.146773,116.590083 C250.567689,120.874406 241.896657,118.98096 234.074269,117.108144 C233.364075,116.933929 232.653881,116.759714 231.951379,116.590083 C229.948991,116.115575 227.469722,115.299514 224.826365,114.304652 C216.519404,111.207744 206.47157,106.467252 203.620539,105.410498 L203.615411,105.401329 L203.584645,105.396744 C199.849076,104.02136 195.667393,104.016775 195.667393,104.016775 C195.667393,104.016775 188.901322,106.274698 183.904326,106.185298 C182.591621,106.15779 181.796819,105.758929 181.340449,105.181267 C183.868431,104.764067 188.885939,103.837975 191.237014,102.607006 C194.449551,100.929037 197.55697,100.323867 199.113243,100.530175 C200.664389,100.718144 210.430196,105.091867 230.064365,109.254698 C244.460534,112.303467 252.529055,112.411206 257.215822,111.006021" id="Fill-78" fill="#F5948D"></path>
                        <path d="M235.984357,93.9443751 L231.056586,94.2744674 L231.020691,94.1942366 L231.020691,94.1758982 L230.17974,89.0182059 C230.17974,89.0182059 232.664137,88.6881136 235.948463,88.4542982 C235.858727,91.3105136 235.984357,93.9443751 235.984357,93.9443751" id="Fill-79" fill="#F5948D"></path>
                        <path d="M226.51596,115.125298 L226.439043,115.111544 C223.382902,114.105221 212.827421,109.587083 204.505077,105.97899 C199.569614,103.83339 197.7749,104.124514 195.287939,104.532544 C194.875155,104.594437 194.444424,104.670083 193.980362,104.734267 C192.872767,104.880975 191.729278,105.217944 190.514,105.57096 C188.165489,106.25636 185.734934,106.966975 183.401806,106.350344 C182.137815,106.004206 181.28148,105.463221 180.861004,104.725098 C180.348228,103.828806 180.663585,102.987529 180.678969,102.955437 C180.678969,102.921052 180.927665,101.165144 181.907066,99.7278674 C181.845533,99.0928982 181.419929,94.4899443 181.391726,94.0566982 C181.381471,93.9397905 180.499497,82.3842674 178.261233,75.4844212 L178.412501,75.2391443 L178.686836,75.3675136 C180.940484,82.3200828 181.827585,93.9168674 181.832713,94.0291905 C181.866044,94.4807751 182.35318,99.7049443 182.355744,99.7553751 L182.322414,99.881452 C181.36096,101.259129 181.112264,103.024206 181.1097,103.040252 C181.096881,103.090683 180.832801,103.805883 181.255841,104.550883 C181.625039,105.185852 182.386511,105.66036 183.527436,105.965237 C185.729806,106.552067 188.096264,105.862083 190.378115,105.195021 C191.61134,104.832837 192.772776,104.495867 193.913701,104.33999 C194.375199,104.275806 194.800803,104.209329 195.211023,104.142852 C197.777464,103.716483 199.63371,103.41619 204.699931,105.619098 C213.009456,109.229483 223.554682,113.73616 226.592876,114.74019 L226.726198,114.990052 L226.51596,115.125298" id="Fill-80" fill="#601112"></path>
                        <path d="M252.059865,89.6944366 C252.008588,89.6806828 251.747072,89.6096212 251.321469,89.4972982 L251.042006,89.4170674 C250.339504,89.2199289 249.475477,89.0182059 248.426852,88.8531597 L247.975609,88.7866828 C246.565477,88.5895443 244.868191,88.4405443 242.863239,88.4405443 L242.765811,88.4405443 C235.486965,88.4542982 230.269476,89.2015905 230.215634,89.2107597 L230.205379,89.2107597 L229.964374,89.0686366 C229.754136,88.3282212 229.513132,87.3929597 229.25418,86.3362059 L229.238797,86.2605597 C227.923528,80.749852 226.29803,72.0872212 226.29803,71.8579905 L226.510832,71.6562674 L226.744145,71.8579905 C226.759528,72.1399443 228.323493,80.5297905 229.638762,86.0359136 L229.736189,86.4256059 C229.948991,87.3264828 230.159229,88.1242059 230.343828,88.795852 C231.366815,88.6560212 236.251,88.0554366 242.765811,88.0462674 L242.863239,88.0462674 C247.344896,88.0462674 250.275407,88.7179136 251.906033,89.2520212 C251.998332,89.5202212 252.04961,89.6806828 252.059865,89.6944366" id="Fill-81" fill="#601112"></path>
                        <path d="M108.695561,69.5290059 L108.695561,69.5886059 C108.46994,71.8809136 109.139112,73.3663289 107.362345,76.339452 C105.585578,79.3217443 102.819155,82.4965905 101.150071,82.1962982 C99.4809874,81.8960059 100.157851,75.5417289 100.50141,72.9674674 C100.62704,72.0276212 100.332195,70.8379136 99.9065909,69.7215597 C99.447657,68.5043443 98.8297626,67.3627751 98.4297978,66.6819597 L98.822071,66.624652 C102.570459,65.9530059 106.306028,63.0601136 108.7212,60.1534674 C108.775041,62.4388982 108.859649,67.7020366 108.695561,69.5290059" id="Fill-82" fill="#F1B5AB"></path>
                        <path d="M108.695561,69.5290059 C105.480459,70.6086828 102.001278,70.170852 99.9065909,69.7215597 C99.447657,68.5043443 98.8297626,67.3627751 98.4297978,66.6819597 L98.822071,66.624652 C102.570459,65.9530059 106.306028,63.0601136 108.7212,60.1534674 C108.775041,62.4388982 108.859649,67.7020366 108.695561,69.5290059" id="Fill-83" fill="#F5948D"></path>
                        <path d="M208.386786,47.3898982 L208.358584,47.4884674 C207.830425,49.3429443 206.833077,52.2243751 205.751121,55.1401905 C203.848724,60.2520366 201.669429,65.4991289 201.110504,65.6068674 C201.110504,65.6068674 200.213147,61.2423136 198.941464,57.1230366 C198.803014,56.6760366 198.677384,56.2061136 198.569702,55.7316059 C197.851816,52.5086212 197.859508,49.0197289 197.885146,47.9767289 C200.920777,48.4604059 204.792231,48.2724366 208.386786,47.3898982" id="Fill-84" fill="#F1B5AB"></path>
                        <path d="M208.386786,47.3898982 L208.358584,47.4884674 C207.830425,49.3429443 206.833077,52.2243751 205.751121,55.1401905 C202.712927,55.8783136 200.1952,55.8393443 198.569702,55.7316059 C197.851816,52.5086212 197.859508,49.0197289 197.885146,47.9767289 C200.920777,48.4604059 204.792231,48.2724366 208.386786,47.3898982" id="Fill-85" fill="#F5948D"></path>
                        <path d="M131.749942,63.3512366 C129.642435,64.3460982 127.486215,64.6532674 125.496646,64.4171597 C121.430337,63.9609905 118.069095,61.2652366 117.289676,57.6204674 C116.123112,52.1945751 117.753738,42.9176059 117.410178,40.4694212 C117.056363,38.0143597 116.687165,38.1220982 115.477015,38.0143597 C115.477015,38.0143597 113.220804,34.7111443 113.433605,32.7007905 C113.454116,32.5655443 113.433605,31.3162366 113.964328,29.8789597 C114.738619,27.7883751 116.687165,25.2897597 121.604681,25.2897597 C129.886003,25.2897597 133.73951,33.2142674 133.147255,39.4745597 C132.562691,45.7279751 128.140003,53.7602212 129.762937,55.3281597 C131.406382,56.8960982 135.252198,55.4221443 136.070075,53.8633751 C136.070075,53.8633751 138.159634,60.3299751 131.749942,63.3512366" id="Fill-86" fill="#D0412B"></path>
                        <path d="M125.496646,64.4171597 C121.430337,63.9609905 118.069095,61.2652366 117.289676,57.6204674 C116.123112,52.1945751 117.753738,42.9176059 117.410178,40.4694212 C117.056363,38.0143597 116.687165,38.1220982 115.477015,38.0143597 C115.477015,38.0143597 113.220804,34.7111443 113.433605,32.7007905 C113.454116,32.5655443 113.433605,31.3162366 113.964328,29.8789597 C118.556231,28.5769289 124.014725,29.1179136 123.819871,37.3885597 C123.583994,47.1262828 119.143359,52.4306828 121.366241,58.2302212 C122.381536,60.8572059 124.014725,62.929452 125.496646,64.4171597" id="Fill-87" fill="#C02C26"></path>
                        <path d="M119.030549,52.6140674 C117.753738,55.3281597 112.620856,58.0376674 112.620856,58.0376674 C112.200381,59.2548828 111.305588,60.7311289 110.082618,62.1913289 C109.562151,62.8194212 108.980151,63.4452212 108.359693,64.0503905 C105.931702,66.3954212 102.803772,68.4241136 99.6809698,68.9926059 L99.2656217,69.0453289 C93.6122732,69.932452 88.7562903,68.1192366 85.5616997,62.6268674 C82.2953206,56.9946674 82.76451,43.9606059 84.3951357,42.2940982 C92.5610836,43.6465597 100.79882,40.8659905 103.367825,40.2401905 C105.931702,39.6166828 106.434222,40.311252 108.764786,43.2270674 C109.187825,43.7542982 109.58779,44.3984366 109.951861,45.0975905 L109.951861,45.1067597 C111.605561,48.2495136 112.620856,52.5086212 112.620856,52.5086212 C112.620856,51.5618982 113.907923,49.9022674 115.382152,48.7561136 C116.176954,48.1326059 117.017905,47.6489289 117.753738,47.5022212 C119.853553,47.0804366 120.317615,49.9022674 119.030549,52.6140674" id="Fill-88" fill="#F1B5AB"></path>
                        <path d="M119.030549,52.6140674 C117.753738,55.3281597 112.620856,58.0376674 112.620856,58.0376674 C112.200381,59.2548828 111.305588,60.7311289 110.082618,62.1913289 C109.562151,62.8194212 108.980151,63.4452212 108.359693,64.0503905 C111.546592,57.6961136 110.597958,48.9211597 109.951861,45.1067597 C111.605561,48.2495136 112.620856,52.5086212 112.620856,52.5086212 C112.620856,51.5618982 113.907923,49.9022674 115.382152,48.7561136 C116.176954,48.1326059 117.017905,47.6489289 117.753738,47.5022212 C119.853553,47.0804366 120.317615,49.9022674 119.030549,52.6140674" id="Fill-89" fill="#F5948D"></path>
                        <path d="M115.966716,32.5219905 C114.08483,31.9626674 112.313191,32.9919136 111.636328,33.7300366 C112.572143,35.2979751 113.33105,37.0699289 113.918178,38.8648059 C119.422822,37.7988828 118.489571,33.2738674 115.966716,32.5219905" id="Fill-90" fill="#263B7F"></path>
                        <path d="M115.382152,48.7561136 C113.907923,49.9022674 112.620856,51.5618982 112.620856,52.5086212 C112.620856,52.5086212 111.910663,49.5354982 110.708204,46.7274212 C110.156971,45.4208059 109.505746,44.1531597 108.764786,43.2270674 C106.434222,40.311252 105.931702,39.6166828 103.367825,40.2401905 C100.79882,40.8659905 92.5610836,43.6465597 84.3951357,42.2940982 C82.0722633,41.9066982 81.2902808,38.642452 83.1362722,35.9283597 C84.9745719,33.2142674 98.6246525,26.960852 105.857349,28.7282212 C108.244319,29.3196366 110.156971,31.2543443 111.633764,33.725452 L111.726063,33.8859136 C112.620856,35.4102982 113.351561,37.1295289 113.918178,38.8648059 C115.2155,42.8419597 115.692381,46.8741289 115.382152,48.7561136" id="Fill-91" fill="#D0412B"></path>
                        <path d="M114.674522,53.453052 C114.364293,53.721252 113.948945,53.6043443 113.72076,53.5103597 C113.995094,52.9556212 114.354037,52.4123443 114.715544,51.9378366 C114.864249,52.5154982 114.948857,53.2192366 114.674522,53.453052 Z M115.966716,50.1658828 L115.635976,50.1842212 C115.535984,50.2827905 113.17209,52.6461597 112.856733,54.615252 L113.054152,54.853652 L113.087482,54.853652 L113.320795,54.6794366 C113.356689,54.4226982 113.441297,54.1590828 113.54898,53.8954674 C113.736143,53.9665289 113.969456,54.0307136 114.207896,54.0307136 C114.479667,54.0307136 114.75913,53.9619443 115.000134,53.751052 C115.600081,53.2375751 115.200117,51.8988674 115.061667,51.4954212 C115.561623,50.8856674 115.971844,50.4707597 115.982099,50.4570059 L115.966716,50.1658828 L115.966716,50.1658828 Z" id="Fill-92" fill="#983222"></path>
                        <path d="M91.4765637,61.2789905 C90.4433213,61.2789905 89.6074975,61.2514828 89.5998058,61.2514828 L89.4126428,61.1574982 L89.3844402,60.9741136 L92.8815682,51.814052 L93.1764141,51.6788059 L93.3276828,51.9424212 C93.2584582,52.1303905 90.4971627,59.3488674 89.9279821,60.843452 C90.5279293,60.8526212 91.8842201,60.8755443 93.0969339,60.8296982 C93.8276388,60.8090674 94.1481234,60.6325597 94.2942644,60.4950212 L94.4250221,60.2359905 L94.6455156,60.0159289 L94.8916477,60.2038982 C94.8942116,60.2359905 94.9147226,60.4996059 94.6557711,60.7632212 C94.3634891,61.0635136 93.8430221,61.2239751 93.1123172,61.2514828 C92.5687753,61.2744059 91.9970307,61.2789905 91.4765637,61.2789905" id="Fill-93" fill="#983222"></path>
                        <path d="M93.2584582,64.0847751 C93.2584582,64.0847751 95.7864408,64.5019751 98.5656833,63.6698674 C101.344926,62.8354674 103.211428,62.1959136 103.211428,62.1959136 C103.211428,62.1959136 100.8783,65.6848059 97.5350048,66.3106059 C94.1942732,66.9364059 93.2584582,64.0847751 93.2584582,64.0847751" id="Fill-94" fill="#FFFFFF"></path>
                        <path d="M98.2349432,49.2787597 C98.0785467,48.7859136 100.104009,46.8443289 102.747367,46.7044982 C105.390724,46.5669597 107.869993,47.9904828 107.869993,47.9904828 C107.869993,47.9904828 104.534389,47.8873289 102.124344,48.3045289 C99.7143002,48.7240212 98.2349432,49.2787597 98.2349432,49.2787597" id="Fill-95" fill="#D0412B"></path>
                        <path d="M92.1303523,50.2277751 C92.1303523,50.2277751 90.8484139,48.685052 88.5947661,48.3755905 C86.3411183,48.0615443 84.7053648,49.3016828 84.7053648,49.3016828 C84.7053648,49.3016828 85.992431,49.7670212 88.4204225,49.8380828 C90.8484139,49.9206059 92.1303523,50.2277751 92.1303523,50.2277751" id="Fill-96" fill="#D0412B"></path>
                        <path d="M90.8381584,53.1481751 C90.6843258,54.2049289 90.1228367,55.0141136 89.5921142,54.9476366 C89.0613917,54.8857443 88.7562903,53.9711136 88.9152507,52.9143597 C89.0716472,51.8530212 89.6305723,51.0530059 90.1664226,51.1103136 C90.6971451,51.1767905 90.9996826,52.0868366 90.8381584,53.1481751" id="Fill-97" fill="#601112"></path>
                        <path d="M104.17801,51.843852 C104.019049,52.9051905 103.45756,53.7120828 102.926838,53.6501905 C102.393552,53.5860059 102.091014,52.678252 102.249974,51.6169136 C102.408935,50.5601597 102.96786,49.7486828 103.501146,49.817452 C104.031869,49.8747597 104.334406,50.7893905 104.17801,51.843852" id="Fill-98" fill="#601112"></path>
                        <path d="M115.382152,48.7561136 C113.907923,49.9022674 112.620856,51.5618982 112.620856,52.5086212 C112.620856,52.5086212 111.910663,49.5354982 110.708204,46.7274212 C111.679914,42.3834982 111.769649,37.0378366 111.726063,33.8859136 C112.620856,35.4102982 113.351561,37.1295289 113.918178,38.8648059 C115.2155,42.8419597 115.692381,46.8741289 115.382152,48.7561136" id="Fill-99" fill="#C02C26"></path>
                        <path d="M180.089277,265.619883 C173.938536,265.145375 169.954272,264.134467 167.464747,263.190037 C167.418597,262.78659 167.369884,262.387729 167.323734,261.984283 C166.980174,259.109729 166.634051,256.232883 166.303311,253.571514 C168.621056,254.410498 172.261761,255.421406 177.540783,256.079298 C178.207391,258.667314 179.248325,262.642175 180.089277,265.619883" id="Fill-100" fill="#89C09C"></path>
                    </g>
                </g>
            </g>
        </g>
    </g>
</svg>