<?xml version="1.0" encoding="UTF-8"?>
<svg width="147px" height="159px" viewBox="0 0 147 159" version="1.1" xmlns="http://www.w3.org/2000/svg" xmlns:xlink="http://www.w3.org/1999/xlink">
    <!-- Generator: Sketch 63.1 (92452) - https://sketch.com -->
    <title>BookCase cleaning</title>
    <desc>Created with Sketch.</desc>
    <g id="Home" stroke="none" stroke-width="1" fill="none" fill-rule="evenodd">
        <g id="Desktop-Protopy" transform="translate(-170.000000, -1260.000000)">
            <g id="services-1" transform="translate(102.000000, 1260.000000)">
                <g id="BookCase-cleaning" transform="translate(68.000000, 0.000000)">
                    <g>
                        <polygon id="Fill-290" fill="#CE6428" points="75.5776698 56.5886008 80.1753573 56.5886008 80.1753573 29.2222041 75.5776698 29.2222041"></polygon>
                        <polygon id="Fill-291" fill="#CE6428" points="94.4041698 56.2548322 99.0018573 56.2548322 99.0018573 28.8871215 94.4041698 28.8871215"></polygon>
                        <polygon id="Fill-292" fill="#CE6428" points="81.4891698 56.5886008 86.0855448 56.5886008 86.0855448 29.2222041 81.4891698 29.2222041"></polygon>
                        <path d="M50.1466698,62.1404603 C49.1609823,63.4177165 47.8747323,64.3914272 46.8326073,65.0379396 C45.7944198,65.6870801 44.9977323,66.0155925 44.9977323,66.0155925 C44.7168573,65.6200636 44.5396698,65.3795925 44.5396698,65.3795925 C44.5396698,65.3795925 44.3073573,64.9498983 43.9687323,64.2468818 L43.8256698,63.9525347 L43.8164823,63.9288818 C43.7639823,63.8185016 43.7075448,63.7002372 43.6484823,63.5767165 C43.5080448,63.2692289 43.3557948,62.9380884 43.1982948,62.5740967 C42.9226698,61.9420388 42.6339198,61.2363942 42.3609198,60.5057826 C42.1312323,59.8710967 41.9028573,59.3454768 41.6928573,58.9092124 L41.6613573,58.8527082 L41.5707948,58.660857 C41.4697323,58.4676917 41.3765448,58.2955512 41.2846698,58.1418074 L41.1022323,57.8448322 C40.9801698,57.6569231 40.8646698,57.5005512 40.7596698,57.3665182 L40.6599198,57.2443115 C41.7099198,57.3415512 42.8557323,57.202262 43.9477323,56.7659975 C44.6171073,56.4992454 45.3573573,56.062981 46.0227948,55.6188322 C47.1528573,54.8698239 48.0716073,54.0971628 48.0716073,54.0971628 C48.0624198,55.6188322 48.6753573,57.8566587 49.2371073,59.5898901 C49.7082948,61.044543 50.1466698,62.1404603 50.1466698,62.1404603" id="Fill-293" fill="#263B7F"></path>
                        <path d="M50.1466698,62.1404603 C49.1609823,63.4177165 47.8747323,64.3914272 46.8326073,65.0379396 C45.7944198,65.6870801 44.9977323,66.0155925 44.9977323,66.0155925 C44.7168573,65.6200636 44.5396698,65.3795925 44.5396698,65.3795925 C44.5396698,65.3795925 43.9122948,64.2140306 43.1982948,62.5740967 C45.8652948,62.2022206 47.6686698,60.5846256 49.2371073,59.5898901 C49.7082948,61.044543 50.1466698,62.1404603 50.1466698,62.1404603" id="Fill-294" fill="#212A60"></path>
                        <path d="M32.2362948,66.7777413 C32.2323573,66.9656504 32.2231698,67.1496173 32.2100448,67.3296421 L32.1969198,67.5096669 C32.1614823,67.9433033 32.0997948,68.3559149 32.0131698,68.7461876 L31.9344198,69.0444768 C31.9002948,69.1666834 31.8582948,69.2849479 31.8202323,69.3979562 L31.7559198,69.5727248 L31.6850448,69.7290967 L31.5852948,69.9340884 C31.4527323,70.189014 31.2952323,70.4242289 31.1114823,70.6357909 L30.9802323,70.7790223 L30.8043573,70.9380223 L30.6429198,71.0773115 L30.5418573,71.1482702 L30.3305448,71.2875595 C30.1087323,71.4281628 29.8541073,71.5464272 29.5771698,71.6410388 C29.4131073,71.3230388 29.2857948,71.0812537 29.2188573,70.956419 L29.1729198,70.8591793 L29.1007323,70.9406504 L28.7135448,71.4150223 L28.5547323,71.6029314 L27.7829823,72.5372206 C27.3905448,71.8131793 26.9652948,71.1482702 26.5374198,70.5477496 C24.7117323,67.9551297 22.8230448,66.5490967 22.8230448,66.5490967 C22.8230448,66.5490967 23.1472323,66.1286008 23.6945448,65.4347826 L23.8297323,65.2665843 C24.8062323,64.0340058 26.3864823,62.0655595 28.0730448,60.0760884 C28.1819823,59.9433694 28.2961698,59.8119644 28.4064198,59.6818735 C28.6505448,59.3914686 28.9012323,59.1352289 29.1506073,58.8921297 C29.1637323,58.8960719 29.4603573,59.0708405 29.8593573,59.4230058 L30.0247323,59.5767496 L30.1625448,59.7081545 L30.2622948,59.8067082 C30.4486698,59.9998735 30.6481698,60.2285182 30.8397948,60.490014 L31.0012323,60.7186587 L31.1639823,60.9696421 C31.2689823,61.1365264 31.3700448,61.3191793 31.4658573,61.5136587 L31.6023573,61.8119479 L31.6141698,61.8421711 L31.7021073,62.0550471 C31.7506698,62.1838239 31.8005448,62.3191711 31.8386073,62.4558322 L31.9199823,62.740981 C31.9514823,62.8539892 31.9777323,62.9696256 32.0052948,63.0918322 L32.0354823,63.2666008 L32.0827323,63.5570058 C32.0997948,63.6831545 32.1181698,63.8185016 32.1273573,63.9551628 C32.2021698,64.9328157 32.2586073,65.8868157 32.2362948,66.7777413" id="Fill-295" fill="#263B7F"></path>
                        <path d="M44.1656073,91.4463942 L44.1406698,91.7749066 C40.6376073,93.0258818 35.6251698,92.7840967 34.2798573,92.6921132 C34.3691073,92.4319314 34.4426073,92.183576 34.5252948,91.9247082 C34.7090448,91.3412702 34.8862323,90.7617744 35.0253573,90.196733 C36.6712323,83.7881132 38.6924823,68.227138 38.7476073,68.0615677 C38.8027323,67.8986256 36.2341698,64.1167909 35.0817948,62.0379644 C34.9321698,61.7725264 34.8101073,61.4781793 34.7051073,61.1680636 L34.6040448,60.8513777 L34.5174198,60.5360058 C34.4255448,60.1641297 34.3559823,59.7764851 34.3021698,59.4046091 L34.2680448,59.1247165 L34.2404823,58.8921297 L34.2102948,58.5859562 C34.1906073,58.3323446 34.1761698,58.0905595 34.1682948,57.8619149 L34.1577948,57.5820223 C34.1538573,57.441419 34.1512323,57.3126421 34.1512323,57.1983198 L34.1512323,56.964419 C34.1512323,56.8027909 34.1538573,56.6661297 34.1577948,56.5557496 L34.1630448,56.3941215 L34.1696073,56.2679727 C34.5830448,56.2140967 34.8862323,56.2088405 35.0463573,56.2088405 C35.9939823,56.221981 37.3274823,56.1221132 38.7476073,56.7659975 C38.8919823,56.8277578 39.0442323,56.884262 39.1925448,56.938138 L39.2371698,57.1983198 L39.2634198,57.3665182 L39.2712948,57.4309066 L39.3067323,57.6437826 C39.3369198,57.8264355 39.3723573,58.0366834 39.4117323,58.2705843 L39.4563573,58.5452206 L39.4773573,58.6726834 L39.5337948,59.0143363 L39.5561073,59.1509975 C39.5928573,59.3612454 39.6309198,59.5793777 39.6663573,59.8119644 L39.6821073,59.9118322 C39.7096698,60.0590058 39.7332948,60.2074934 39.7542948,60.355981 C39.7805448,60.5005264 39.8002323,60.649014 39.8277948,60.7975016 C39.8711073,61.0800223 39.9196698,61.3651711 39.9669198,61.6529479 C39.9905448,61.8066917 40.0154823,61.9656917 40.0417323,62.1220636 C40.0811073,62.3507082 40.1165448,62.5740967 40.1519823,62.8027413 L40.1572323,62.8277082 L40.2622323,63.484733 C40.3921698,64.3191545 40.5234198,65.1483198 40.6376073,65.9052124 C40.6717323,66.1417413 40.7084823,66.3743281 40.7373573,66.5977165 C40.7701698,66.8211049 40.8003573,67.0366091 40.8305448,67.2416008 C40.8305448,67.2416008 44.0356698,71.0773115 44.5396698,76.5555843 C44.9583573,81.1113942 44.6118573,86.6014934 44.1656073,91.4463942" id="Fill-296" fill="#263B7F"></path>
                        <path d="M46.0227948,55.6188322 C45.8049198,57.0156669 43.6537323,58.6687413 41.6928573,58.9092124 L41.6876073,58.9092124 C41.3332323,58.952576 40.9880448,58.9499479 40.6599198,58.8921297 C40.2294198,58.8172289 39.8409198,58.7397 39.4773573,58.6726834 C37.7881698,58.3573115 36.6633573,58.3060636 35.0082948,60.0537496 C34.8416073,60.2285182 34.6788573,60.3901463 34.5174198,60.5360058 C33.4976073,61.4834355 32.5565448,61.8907909 31.6141698,61.8421711 C30.9067323,61.8066917 30.1953573,61.5136587 29.4551073,60.9985512 C28.8828573,60.5925099 28.4444823,60.2823942 28.0730448,60.0760884 C28.1819823,59.9433694 28.2961698,59.8119644 28.4064198,59.6818735 C28.6505448,59.3914686 28.9012323,59.1352289 29.1506073,58.8921297 C31.1009823,56.9775595 33.0421698,56.4204025 34.1696073,56.2679727 C34.5830448,56.2140967 34.8862323,56.2088405 35.0463573,56.2088405 C35.9939823,56.221981 37.3274823,56.1221132 38.7476073,56.7659975 C38.8919823,56.8277578 39.0442323,56.884262 39.1925448,56.938138 C39.6492948,57.097138 40.1388573,57.202262 40.6599198,57.2443115 C41.7099198,57.3415512 42.8557323,57.202262 43.9477323,56.7659975 C44.6171073,56.4992454 45.3573573,56.062981 46.0227948,55.6188322" id="Fill-297" fill="#212A60"></path>
                        <path d="M38.7476073,68.0615677 C38.6924823,68.227138 36.6712323,83.7881132 35.0253573,90.196733 C34.8862323,90.7617744 34.7090448,91.3412702 34.5252948,91.9247082 C34.4426073,92.183576 34.3691073,92.4319314 34.2798573,92.6921132 C32.2901073,98.5869396 28.7345448,104.992931 28.7345448,104.992931 C25.2787323,105.144047 22.4555448,104.748518 20.6351073,104.36613 C20.2177323,104.284659 19.8594198,104.200559 19.5536073,104.123031 C18.8002323,103.935121 18.3894198,103.784006 18.3894198,103.784006 C18.3894198,103.784006 20.8529823,95.5146917 25.1763573,88.9391876 C29.5010448,82.3636834 32.0748573,81.211262 32.4567948,80.6107413 C32.8361073,80.0075925 32.3977323,78.2007744 31.4186073,75.8985595 C30.4289823,73.5963446 29.5771698,71.6410388 29.5771698,71.6410388 C29.8541073,71.5464272 30.1087323,71.4281628 30.3305448,71.2875595 L30.5418573,71.1482702 L30.6429198,71.0773115 L30.7387323,70.9971545 L30.8043573,70.9380223 L30.9802323,70.7790223 L31.1114823,70.6357909 L31.2335448,70.4859892 C31.3647948,70.3138487 31.4842323,70.1325099 31.5852948,69.9340884 L31.6850448,69.7290967 L31.7559198,69.5727248 L31.8202323,69.3979562 C31.8582948,69.2849479 31.9002948,69.1666834 31.9344198,69.0444768 L32.0131698,68.7461876 C32.0997948,68.3559149 32.1614823,67.9433033 32.1969198,67.5096669 L32.2100448,67.3296421 C32.2231698,67.1496173 32.2323573,66.9656504 32.2362948,66.7777413 C32.2586073,65.8868157 32.2021698,64.9328157 32.1273573,63.9551628 C32.1181698,63.8185016 32.0997948,63.6831545 32.0827323,63.5570058 L32.0354823,63.2666008 L32.0052948,63.0918322 C31.9777323,62.9696256 31.9514823,62.8539892 31.9199823,62.740981 L31.8386073,62.4558322 C31.8005448,62.3191711 31.7506698,62.1838239 31.7021073,62.0550471 L31.6141698,61.8421711 L31.6023573,61.8119479 L31.4658573,61.5136587 C31.3700448,61.3191793 31.2689823,61.1365264 31.1639823,60.9696421 L31.0012323,60.7186587 L30.8397948,60.490014 C30.6481698,60.2285182 30.4486698,59.9998735 30.2622948,59.8067082 L30.1625448,59.7081545 L30.0247323,59.5767496 L29.8593573,59.4230058 C29.4603573,59.0708405 29.1637323,58.8960719 29.1506073,58.8921297 C31.1009823,56.9775595 33.0421698,56.4204025 34.1696073,56.2679727 L34.1630448,56.3941215 L34.1577948,56.5557496 C34.1538573,56.6661297 34.1512323,56.8027909 34.1512323,56.964419 L34.1512323,57.1983198 C34.1512323,57.3126421 34.1538573,57.441419 34.1577948,57.5820223 L34.1682948,57.8619149 C34.1761698,58.0905595 34.1906073,58.3323446 34.2102948,58.5859562 L34.2404823,58.8921297 L34.2680448,59.1247165 L34.3021698,59.4046091 C34.3559823,59.7764851 34.4255448,60.1641297 34.5174198,60.5360058 L34.6040448,60.8513777 L34.7051073,61.1680636 C34.8101073,61.4781793 34.9321698,61.7725264 35.0817948,62.0379644 C36.2341698,64.1167909 38.8027323,67.8986256 38.7476073,68.0615677" id="Fill-298" fill="#A6DDEB"></path>
                        <path d="M48.9286698,98.7433115 C48.0414198,100.778774 46.1094198,102.674948 44.6394198,103.918039 C44.5199823,104.017907 44.4071073,104.112518 44.2942323,104.200559 C43.3951698,104.939055 42.7428573,105.37532 42.7428573,105.37532 C42.7428573,105.37532 43.3439823,99.7341049 43.8939198,94.3083942 C43.9739823,93.4923694 44.0553573,92.6434934 44.1406698,91.7749066 L44.1656073,91.4463942 C44.6118573,86.6014934 44.9583573,81.1113942 44.5396698,76.5555843 C44.0356698,71.0773115 40.8305448,67.2416008 40.8305448,67.2416008 C40.8003573,67.0366091 40.7701698,66.8211049 40.7373573,66.5977165 C40.7084823,66.3743281 40.6717323,66.1417413 40.6376073,65.9052124 C40.5234198,65.1483198 40.3921698,64.3191545 40.2622323,63.484733 L40.1572323,62.8277082 L40.1519823,62.8027413 C40.1165448,62.5740967 40.0811073,62.3507082 40.0417323,62.1220636 C40.0154823,61.9656917 39.9905448,61.8066917 39.9669198,61.6529479 C39.9196698,61.3651711 39.8711073,61.0800223 39.8277948,60.7975016 C39.8002323,60.649014 39.7805448,60.5005264 39.7542948,60.355981 C39.7332948,60.2074934 39.7057323,60.0590058 39.6821073,59.9118322 L39.6663573,59.8119644 C39.6309198,59.5793777 39.5928573,59.3612454 39.5561073,59.1509975 L39.5337948,59.0143363 L39.4773573,58.6726834 L39.4563573,58.5452206 L39.4117323,58.2705843 C39.3723573,58.0366834 39.3369198,57.8264355 39.3067323,57.6437826 L39.2712948,57.4309066 L39.2634198,57.3665182 L39.2371698,57.1983198 L39.1925448,56.938138 C39.6492948,57.097138 40.1388573,57.202262 40.6599198,57.2443115 L40.7596698,57.3665182 C40.8646698,57.5005512 40.9801698,57.6569231 41.1022323,57.8448322 L41.2846698,58.1418074 C41.3765448,58.2955512 41.4697323,58.4676917 41.5707948,58.660857 L41.6613573,58.8527082 L41.6876073,58.9092124 L41.6928573,58.9092124 C41.9028573,59.3454768 42.1312323,59.8710967 42.3609198,60.5057826 C42.6339198,61.2363942 42.9226698,61.9420388 43.1982948,62.5740967 C43.3557948,62.9380884 43.5080448,63.2692289 43.6484823,63.5767165 C43.7075448,63.7002372 43.7639823,63.8185016 43.8164823,63.9288818 L43.8256698,63.9525347 L43.9687323,64.2468818 C44.3073573,64.9498983 44.5396698,65.3795925 44.5396698,65.3795925 C44.5396698,65.3795925 44.7168573,65.6200636 44.9977323,66.0155925 C45.8692323,67.2547413 47.7159198,70.030014 48.0322323,71.7356504 C48.2120448,72.6909644 47.9889198,73.4373446 47.6726073,73.9813611 C47.2499823,74.7159149 46.6541073,75.0746504 46.6541073,75.0746504 C46.6541073,75.0746504 46.6790448,75.1364107 46.7171073,75.2599314 L46.7171073,75.2625595 C46.8916698,75.7198487 47.3392323,76.9826504 47.8707948,78.7960388 C48.4955448,80.9090306 49.2266073,83.7710306 49.7489823,86.9654851 C50.8422948,93.6513694 50.4616698,95.2374272 48.9286698,98.7433115" id="Fill-299" fill="#A6DDEB"></path>
                        <path d="M31.3477323,70.3269892 C30.9447948,70.9143694 30.3725448,71.3664025 29.5771698,71.6410388 C29.4131073,71.3230388 29.2857948,71.0812537 29.2188573,70.956419 L29.1729198,70.8591793 L29.1007323,70.9406504 L28.7135448,71.4150223 L28.5547323,71.6029314 L27.7829823,72.5372206 C27.3905448,71.8131793 26.9652948,71.1482702 26.5374198,70.5477496 C27.8801073,68.8670801 30.4985448,65.6949644 30.7571073,65.2665843 C31.0314198,64.7961545 31.6719198,65.2350471 31.2768573,67.353295 C31.1062323,68.2718157 31.1954823,69.3756173 31.3477323,70.3269892" id="Fill-300" fill="#212A60"></path>
                        <path d="M44.3099823,35.9396256 C43.7639823,37.435014 43.0381698,37.9107 42.3372948,38.1156917 C42.1364823,37.7924355 41.9382948,37.4639231 41.7414198,37.1301545 C40.5772323,35.1695925 39.4340448,33.193262 37.8196698,32.8686917 C35.8128573,32.4705347 34.9374198,33.0539727 34.8639198,33.8949644 C34.7877948,34.7333281 34.4373573,35.6189975 34.0974198,35.9028322 C33.0251073,36.7963859 32.3465448,37.1814025 31.2519198,37.0329149 C30.1572948,36.8883694 29.5010448,36.9987496 29.3553573,38.4231793 C29.3028573,38.944857 29.3776698,39.9225099 29.5010448,40.9514107 C29.7110448,42.7306339 30.0470448,44.6701711 30.0470448,44.6701711 C30.0470448,44.6701711 28.8080448,43.2431132 27.8223573,43.5716256 C26.8379823,43.9027661 27.0164823,48.0301958 29.0626698,48.9434603 C31.1062323,49.8554107 32.3465448,49.2719727 32.3465448,49.2719727 C32.3465448,49.2719727 33.0421698,50.3271545 34.3848573,51.3337165 C34.1919198,53.4099149 31.1771073,55.2982041 29.8291698,55.0064851 C28.4786073,54.7160801 27.7829823,53.4348818 27.0558573,52.4835099 C26.3261073,51.5387082 23.2614198,52.3034851 19.5391698,49.5268983 C15.8182323,46.7516256 16.9863573,42.9895016 17.8617948,41.8962124 C18.7385448,40.7976669 18.6991698,40.2129149 17.8985448,39.6636421 C17.0966073,39.1169975 17.7134823,37.9488074 18.3001698,37.5099149 C18.8829198,37.0710223 17.1320448,35.5743198 17.8237323,33.6360967 C17.9602323,33.2642206 18.1269198,32.9435925 18.3369198,32.6728983 C19.1939823,31.5362454 20.7230448,31.1867082 23.3716698,30.862138 C26.6529198,30.4587248 24.4662948,25.5270967 27.6399198,23.7045099 C30.8135448,21.8753529 33.4044198,23.3010967 34.3901073,24.2866339 C35.3757948,25.2734851 37.1962323,22.6427578 39.9327948,23.4456421 C42.6693573,24.2524686 42.9620448,28.0881793 42.7796073,29.3628074 C42.6207948,30.4981463 42.6037323,31.3746173 43.2166698,32.0671215 L43.2166698,32.0723777 L43.4739198,32.3220471 C44.3506698,33.0539727 44.8586073,34.4442372 44.3099823,35.9396256" id="Fill-301" fill="#D64E27"></path>
                        <path d="M34.3848573,51.3337165 C34.1919198,53.4099149 31.1771073,55.2982041 29.8291698,55.0064851 C28.4786073,54.7160801 27.7829823,53.4348818 27.0558573,52.4835099 C26.3261073,51.5387082 23.2614198,52.3034851 19.5391698,49.5268983 C15.8182323,46.7516256 16.9863573,42.9895016 17.8617948,41.8962124 C18.7385448,40.7976669 18.6991698,40.2129149 17.8985448,39.6636421 C17.0966073,39.1169975 17.7134823,37.9488074 18.3001698,37.5099149 C18.8829198,37.0710223 17.1320448,35.5743198 17.8237323,33.6360967 C17.9602323,33.2642206 18.1269198,32.9435925 18.3369198,32.6728983 C18.1518573,34.2458157 18.8356698,35.9829892 20.3804823,36.7779892 C22.7154198,37.9842868 23.2181073,38.1288322 23.6945448,40.7595595 C24.0764823,42.8633529 27.8105448,42.6307661 29.5010448,40.9514107 C29.7110448,42.7306339 30.0470448,44.6701711 30.0470448,44.6701711 C30.0470448,44.6701711 28.8080448,43.2431132 27.8223573,43.5716256 C26.8379823,43.9027661 27.0164823,48.0301958 29.0626698,48.9434603 C31.1062323,49.8554107 32.3465448,49.2719727 32.3465448,49.2719727 C32.3465448,49.2719727 33.0421698,50.3271545 34.3848573,51.3337165" id="Fill-302" fill="#BE3626"></path>
                        <path d="M44.3099823,35.9396256 C43.7639823,37.435014 43.0381698,37.9107 42.3372948,38.1156917 C42.1364823,37.7924355 41.9382948,37.4639231 41.7414198,37.1301545 C42.7822323,35.6755016 43.1838573,33.3640884 43.2166698,32.0723777 L43.4739198,32.3220471 C44.3506698,33.0539727 44.8586073,34.4442372 44.3099823,35.9396256" id="Fill-303" fill="#BE3626"></path>
                        <path d="M66.8587323,28.7452041 C66.8587323,28.7452041 66.6080448,32.2208653 66.0554823,37.435014 C65.4530448,43.132733 62.3345448,49.5466091 59.0165448,53.730543 C56.8666698,56.4322289 50.1466698,62.1404603 50.1466698,62.1404603 C50.1466698,62.1404603 49.6649823,61.126014 49.1924823,59.6621628 C49.0126698,59.111576 48.8367948,58.4992289 48.6884823,57.8553446 C48.1424823,55.4834851 48.0716073,54.0971628 48.0716073,54.0971628 C48.7265448,53.7686504 53.6707323,49.4165182 56.5910448,45.3271958 C59.5087323,41.2365595 63.9029823,30.7530719 64.0512948,29.2169479 C64.1956698,27.6847661 64.2717948,24.2866339 64.3046073,23.9239562 C64.3413573,23.5560223 66.0554823,22.6427578 66.4190448,23.0067496 C66.7891698,23.3759975 65.8021698,24.2866339 65.8021698,24.2866339 L65.9806698,24.9462868 C65.9806698,24.9462868 67.4073573,23.1565512 67.9533573,23.4101628 C68.4783573,23.6572041 67.7932323,24.6729644 67.7367948,24.7557496 C67.8116073,24.7031876 68.5164198,24.2261876 68.8668573,24.4324934 C69.2304198,24.6493115 68.1712323,25.6361628 68.1712323,25.6361628 C68.1712323,25.6361628 68.5912323,25.6190801 68.9022948,25.6992372 C69.0296073,25.7347165 69.1424823,25.7820223 69.1962948,25.8569231 C69.3747948,26.1157909 66.8587323,28.7452041 66.8587323,28.7452041" id="Fill-304" fill="#F1B5AB"></path>
                        <path d="M66.8587323,28.7452041 C66.8587323,28.7452041 66.6080448,32.2208653 66.0554823,37.435014 C65.4530448,43.132733 62.3345448,49.5466091 59.0165448,53.730543 C56.8666698,56.4322289 50.1466698,62.1404603 50.1466698,62.1404603 C50.1466698,62.1404603 49.6649823,61.126014 49.1924823,59.6621628 C51.0798573,58.3625677 54.9097323,55.6214603 57.1554198,53.2601132 C60.2214198,50.0367496 62.9921073,44.1774025 63.8662323,40.0223777 C64.7429823,35.8673529 66.2011698,28.1236587 66.2011698,28.1236587 C66.2011698,28.1236587 67.8339198,26.649295 68.9022948,25.6992372 C69.0296073,25.7347165 69.1424823,25.7820223 69.1962948,25.8569231 C69.3747948,26.1157909 66.8587323,28.7452041 66.8587323,28.7452041" id="Fill-305" fill="#F5948D"></path>
                        <path d="M46.6475448,46.8961711 C46.7630448,49.651733 44.8323573,52.0853529 41.7847323,52.8632702 C40.9959198,53.0630058 40.1296698,53.149733 39.2056698,53.1063694 L39.1886073,53.1063694 C37.1319198,53.0012454 35.5267323,52.1825925 34.3848573,51.3337165 L34.2326073,51.2049396 C32.9949198,50.2404272 32.3465448,49.2719727 32.3465448,49.2719727 C32.3465448,49.2719727 31.1062323,49.8554107 29.0626698,48.9434603 C27.0164823,48.0301958 26.8379823,43.9027661 27.8223573,43.5716256 C28.8080448,43.2431132 30.0470448,44.6701711 30.0470448,44.6701711 C30.0470448,44.6701711 29.2057323,39.8476091 29.3553573,38.4231793 C29.3697948,38.2746917 29.3907948,38.1446008 29.4157323,38.0210801 C29.6388573,36.9764107 30.2701698,36.9015099 31.2519198,37.0329149 C32.3465448,37.1814025 33.0251073,36.7963859 34.0974198,35.9028322 C34.4373573,35.6189975 34.7877948,34.7333281 34.8639198,33.8949644 C34.9374198,33.0539727 35.8128573,32.4705347 37.8196698,32.8686917 C39.7057323,33.2510801 40.9486698,35.8910058 42.3372948,38.1156917 C42.4199823,38.256295 42.5079198,38.3982124 42.5984823,38.5309314 C44.0921073,40.8331463 46.5005448,43.4283942 46.6475448,46.8961711" id="Fill-306" fill="#F1B5AB"></path>
                        <path d="M41.7847323,52.8632702 C40.9959198,53.0630058 40.1296698,53.149733 39.2056698,53.1063694 L39.1886073,53.1063694 C37.1319198,53.0012454 35.5267323,52.1825925 34.3848573,51.3337165 L34.2326073,51.2049396 C32.9949198,50.2404272 32.3465448,49.2719727 32.3465448,49.2719727 C32.3465448,49.2719727 31.1062323,49.8554107 29.0626698,48.9434603 C27.0164823,48.0301958 26.8379823,43.9027661 27.8223573,43.5716256 C28.8080448,43.2431132 30.0470448,44.6701711 30.0470448,44.6701711 C30.0470448,44.6701711 29.2057323,39.8476091 29.3553573,38.4231793 C29.3697948,38.2746917 29.3907948,38.1446008 29.4157323,38.0210801 C29.9210448,42.5795182 33.7732323,52.4546008 41.7847323,52.8632702" id="Fill-307" fill="#F5948D"></path>
                        <path d="M39.2411073,62.6411132 C38.8381698,62.8250801 37.6346073,60.7777909 36.5780448,59.1693942 C35.5201698,57.5649396 35.0463573,56.2088405 35.0463573,56.2088405 C35.0909823,55.8198818 35.0607948,55.3060884 34.9807323,54.7463033 C34.8022323,53.4296256 34.3848573,51.8803611 34.2326073,51.2049396 L34.3848573,51.3337165 C35.5267323,52.1825925 37.1319198,53.0012454 39.1886073,53.1063694 C39.1321698,53.6766669 39.1190448,54.4519562 39.1321698,55.3192289 C39.1807323,58.3625677 39.5390448,62.5070801 39.2411073,62.6411132" id="Fill-308" fill="#F1B5AB"></path>
                        <path d="M39.1321698,55.3192289 C38.0165448,55.267981 36.3089823,55.1286917 34.9807323,54.7463033 C34.8022323,53.4296256 34.3848573,51.8803611 34.2326073,51.2049396 L34.3848573,51.3337165 C35.5267323,52.1825925 37.1319198,53.0012454 39.1886073,53.1063694 C39.1321698,53.6766669 39.1190448,54.4519562 39.1321698,55.3192289" id="Fill-309" fill="#F5948D"></path>
                        <path d="M34.3887948,51.135295 L34.4071698,51.1050719 C34.5554823,49.3902372 34.3887948,51.135295 34.3887948,51.135295" id="Fill-310" fill="#F1B5AB"></path>
                        <path d="M31.8714198,43.132733 C31.7441073,43.132733 32.0643573,41.382419 32.6457948,40.615014 C33.2298573,39.8476091 34.4439198,39.8949149 34.6998573,40.3666587 C34.6998573,40.3666587 34.1223573,40.692543 33.3676698,41.4954272 C32.8098573,42.0880636 32.1995448,43.132733 31.8714198,43.132733" id="Fill-311" fill="#D64E27"></path>
                        <path d="M38.2186698,38.3127991 C37.7448573,38.3548487 37.9062948,37.4402702 38.9129823,36.9987496 C40.0351698,36.505981 41.1022323,36.9987496 41.1022323,36.9987496 C41.1022323,36.9987496 39.0599823,38.2418405 38.2186698,38.3127991" id="Fill-312" fill="#D64E27"></path>
                        <path d="M44.6394198,103.918039 C44.3204823,106.705138 43.4660448,113.844369 42.6864198,118.526328 C42.3228573,120.726047 41.3004198,126.340981 40.1572323,132.52884 L40.1519823,132.569576 C38.2160448,143.013642 35.9585448,155.067419 35.9585448,155.067419 L34.9111698,155.907097 L34.8639198,155.942576 C34.8639198,155.942576 31.1416698,143.013642 31.1416698,136.992667 C31.1416698,130.958551 33.6590448,127.891559 33.6590448,127.891559 C33.6590448,127.891559 33.4411698,123.841659 33.2206698,118.85484 C33.0027948,113.865394 32.7311073,107.785287 32.7311073,107.785287 C31.1416698,109.97975 20.1389823,126.35675 16.8039198,131.78246 C13.4688573,137.213427 4.37848234,151.507659 4.37848234,151.507659 L3.66841984,149.428832 C3.66841984,149.428832 4.08841984,144.702196 5.00454484,139.543237 C5.73166984,135.42632 6.76985734,131.034766 8.15716984,128.551212 C11.2796073,122.966502 15.3247323,121.046675 15.3247323,121.046675 C15.3247323,121.046675 16.0964823,116.334493 16.9706073,112.058576 C17.3039823,110.42127 17.7804198,108.829956 18.2437323,107.475171 C18.7569198,105.991609 19.2556698,104.78794 19.5536073,104.123031 C21.2034198,104.543526 24.4912323,105.178212 28.7345448,104.992931 L28.7384823,104.990303 C28.8434823,104.793196 32.3202948,98.4949562 34.2798573,92.6921132 C35.4886698,92.7735843 39.6571698,92.9746339 43.0276698,92.1086752 C43.4135448,92.0166917 43.7862948,91.9010553 44.1406698,91.7749066 C44.0553573,92.6434934 43.9739823,93.4923694 43.8939198,94.3083942 C43.3439823,99.7341049 42.7428573,105.37532 42.7428573,105.37532 C42.7428573,105.37532 43.5710448,104.818163 44.6394198,103.918039" id="Fill-313" fill="#F79738"></path>
                        <path d="M3.66841984,149.428832 C3.66841984,149.428832 1.88210734,149.280345 0.858357337,149.646964 C0.858357337,149.646964 0.131232337,153.079262 0.0222948368,155.091072 C-0.0879551632,157.097626 0.238857337,158.632436 0.387169837,158.704708 C0.531544837,158.779609 4.38110734,151.507659 4.38110734,151.507659 L3.66841984,149.428832" id="Fill-314" fill="#263B7F"></path>
                        <path d="M34.8639198,155.945204 C34.8639198,155.945204 36.4677948,154.141014 37.9286073,154.210659 C39.3881073,154.285559 41.3949198,156.587774 41.3949198,156.587774 L35.0817948,156.587774 L34.8639198,155.945204" id="Fill-315" fill="#263B7F"></path>
                        <path d="M66.8757948,18.0409562 C66.8757948,18.0409562 66.1119198,12.8360058 65.4556698,9.43787353 C64.7967948,6.0423694 63.9764823,2.31572477 64.2494823,2.20665865 C64.5251073,2.09627849 65.7824823,5.54828675 65.7824823,5.54828675 C65.7824823,5.54828675 65.3992323,1.71389006 66.1119198,1.87814626 C66.8219823,2.04108841 66.8757948,5.76773303 66.8757948,5.60347684 C66.8757948,5.43922064 67.5333573,2.59036113 67.8063573,1.49312973 C68.0806698,0.398526422 68.0806698,-0.0942421731 68.4626073,0.0148239426 C68.8471698,0.123890058 69.2041698,5.60347684 69.2041698,5.60347684 C69.2041698,5.60347684 69.7764198,3.02793965 69.8879823,2.20665865 C69.9969198,1.38406361 70.3801698,1.00167518 70.5980448,1.87814626 C70.8172323,2.75461733 70.9261698,4.89126196 70.9261698,4.89126196 C70.9261698,4.89126196 71.6926698,3.30257601 71.8029198,2.53517105 C71.9131698,1.76908014 72.0207948,1.38406361 72.3489198,1.49312973 C72.6770448,1.60350989 72.2399823,5.98717931 72.3489198,5.82292312 C72.4591698,5.65735287 74.1562323,1.49312973 74.5932948,1.87814626 C75.0303573,2.26184874 74.0459823,6.15143551 74.0459823,6.15143551 C74.0459823,6.15143551 75.6879198,2.59036113 76.1814198,3.08312973 C76.6736073,3.57721237 75.2508573,7.63105535 75.2508573,7.63105535 C75.2508573,7.63105535 77.2747323,4.72569171 78.0412323,5.49441072 C78.8064198,6.26050163 75.5238573,10.5351049 73.6640448,12.7808157 C71.8029198,15.0278405 68.4626073,19.2472537 68.4626073,19.2472537 L66.8757948,18.0409562" id="Fill-316" fill="#A6D6B4"></path>
                        <path d="M65.7824823,22.2603694 L67.5884823,22.8227826 L68.9022948,17.9870801 L68.5190448,17.4943115 C68.5190448,17.4943115 68.6831073,16.0133777 68.5728573,15.7952454 C68.4626073,15.5757991 67.9166073,15.4496504 67.5884823,16.8898487 L66.7077948,16.9174438 L65.7824823,22.2603694" id="Fill-317" fill="#F79738"></path>
                        <polyline id="Fill-318" fill="#D64E27" points="66.2313573 22.3996587 63.8662323 31.2458405 65.0514198 31.7386091 67.0398573 22.6506421 66.2313573 22.3996587"></polyline>
                        <path d="M31.1692323,48.0117991 L31.0878573,47.9736917 C30.1979823,46.9776421 28.7292948,45.6123446 28.7135448,45.596576 L28.7082948,45.4428322 L28.8618573,45.437576 C28.8776073,45.4507165 30.3541698,46.8238983 31.2519198,47.8304603 L31.2414198,47.9842041 L31.1692323,48.0117991" id="Fill-319" fill="#983222"></path>
                        <path d="M29.9236698,47.8278322 L29.6900448,47.7450471 C29.1926073,47.3941958 29.6362323,46.4336256 29.6559198,46.3955182 L29.8002948,46.3416421 L29.8541073,46.4875016 C29.7438573,46.7187744 29.5259823,47.3626587 29.8173573,47.5650223 L29.9617323,47.5991876 C30.1113573,47.5400553 30.2229198,47.1878901 30.2570448,47.026262 L30.3843573,46.9395347 L30.4722948,47.0696256 C30.4591698,47.1313859 30.3423573,47.6832868 30.0444198,47.8015512 L29.9236698,47.8278322" id="Fill-320" fill="#983222"></path>
                        <path d="M39.2371698,46.8265264 L38.9904198,46.8212702 L38.8854198,46.7056339 L38.9996073,46.6005099 C41.7282948,46.7240306 42.4790448,44.6833115 42.6299823,44.1261545 C42.1207323,44.1445512 40.4354823,44.190543 40.1191698,44.1182702 C39.6151698,44.0026339 38.1937323,38.9553694 38.2042323,38.9106917 L38.3302323,38.8213363 L38.4221073,38.9343446 C38.4522948,39.3548405 39.8697948,43.7004025 40.1821698,43.9106504 C40.4486073,43.9697826 42.1377948,43.926419 42.7664823,43.9027661 L42.8531073,43.9421876 L42.8793573,44.0341711 C42.8714823,44.059138 42.3057948,46.8265264 39.2371698,46.8265264" id="Fill-321" fill="#983222"></path>
                        <path d="M37.4351073,48.5873529 L42.0052323,48.5873529 C42.0052323,48.5873529 41.5392948,50.3678901 39.7201698,50.4756421 C37.9010448,50.5860223 37.4351073,48.5873529 37.4351073,48.5873529" id="Fill-322" fill="#FFFFFF"></path>
                        <path d="M32.5644198,76.337452 C32.5644198,76.337452 33.9267948,79.7644934 33.4280448,81.1573859 C32.9279823,82.5489644 28.4064198,86.1980801 25.1960448,92.2611049 C23.0422323,96.3254603 21.4488573,101.435799 20.6351073,104.36613 C20.2177323,104.284659 19.8594198,104.200559 19.5536073,104.123031 C18.8002323,103.935121 18.3894198,103.784006 18.3894198,103.784006 C18.3894198,103.784006 20.8529823,95.5146917 25.1763573,88.9391876 C29.5010448,82.3636834 32.0748573,81.211262 32.4567948,80.6107413 C32.8361073,80.0075925 32.3977323,78.2007744 31.4186073,75.8985595 C30.4289823,73.5963446 29.5771698,71.6410388 29.5771698,71.6410388 C29.8541073,71.5464272 30.1087323,71.4281628 30.3305448,71.2875595 L30.5418573,71.1482702 L30.6429198,71.0773115 L30.7387323,70.9971545 L30.8043573,70.9380223 L30.9802323,70.7790223 L31.1114823,70.6357909 L31.2335448,70.4859892 C31.2689823,72.1600884 31.8412323,75.4294438 35.6251698,76.8026256 C35.6251698,76.8026256 33.9871698,77.4162868 32.5644198,76.337452" id="Fill-323" fill="#66C8CE"></path>
                        <path d="M36.1580448,43.0407496 C36.2814198,43.7647909 36.1317948,44.3929066 35.8272948,44.4441545 C35.5227948,44.4954025 35.1736698,43.9513859 35.0516073,43.2312868 C34.9295448,42.5072454 35.0791698,41.8778157 35.3836698,41.8239396 C35.6881698,41.7726917 36.0359823,42.3167082 36.1580448,43.0407496" id="Fill-324" fill="#1E1724"></path>
                        <path d="M41.6561073,39.9303942 C41.7768573,40.6544355 41.6298573,41.2825512 41.3227323,41.3337991 C41.0182323,41.3850471 40.6717323,40.8410306 40.5483573,40.1169892 C40.4262948,39.394262 40.5746073,38.7648322 40.8804198,38.7135843 C41.1849198,38.6623363 41.5340448,39.2063529 41.6561073,39.9303942" id="Fill-325" fill="#1E1724"></path>
                        <path d="M34.1512323,56.964419 L34.1512323,57.1983198 C31.8254823,57.7567909 30.5536698,58.9499479 30.0247323,59.5767496 L29.8593573,59.4230058 C30.4106073,58.765981 31.7152323,57.5412868 34.1512323,56.964419" id="Fill-326" fill="#263B7F"></path>
                        <path d="M41.2846698,58.1418074 C40.3829823,57.7883281 39.6256698,57.6753198 39.3067323,57.6437826 L39.2712948,57.4309066 C39.6177948,57.441419 40.3107948,57.5596834 41.1022323,57.8448322 L41.2846698,58.1418074" id="Fill-327" fill="#263B7F"></path>
                        <path d="M35.5201698,76.8840967 L35.4965448,76.8814686 C30.2937948,75.6961958 30.5431698,71.1049066 30.5471073,71.0589149 L30.6612948,70.9590471 L30.7649823,71.0720553 C30.7531698,71.2560223 30.5274198,75.5266834 35.5451073,76.6685925 L35.6264823,76.7999975 L35.5201698,76.8840967" id="Fill-328" fill="#263B7F"></path>
                        <path d="M29.1729198,70.9682454 L29.0994198,70.9406504 L29.0902323,70.7869066 C29.4183573,70.4097744 31.0773573,68.4439562 31.3359198,66.7567165 L31.4592948,66.6673611 L31.5511698,66.7935099 C31.2821073,68.5359396 29.5902948,70.5451215 29.2542948,70.930138 L29.1729198,70.9682454" id="Fill-329" fill="#A6DDEB"></path>
                        <path d="M28.7135448,71.4150223 L28.5547323,71.6029314 C27.4994823,68.9393529 24.7707948,66.3743281 23.6945448,65.4347826 L23.8297323,65.2665843 C24.8981073,66.1982454 27.6084198,68.7409314 28.7135448,71.4150223" id="Fill-330" fill="#A6DDEB"></path>
                        <path d="M45.4479198,75.6777991 C45.2969823,75.6777991 45.1407948,75.6633446 44.9846073,75.6291793 L44.9517948,75.6239231 L44.8467948,75.513543 L44.9596698,75.4057909 L45.0279198,75.4163033 C45.9965448,75.6120967 46.8837948,75.1193281 47.5203573,74.0207826 L47.6699823,73.9800471 L47.7119823,74.1311628 C47.1213573,75.1416669 46.3299198,75.6777991 45.4479198,75.6777991" id="Fill-331" fill="#263B7F"></path>
                        <path d="M40.0351698,76.4452041 L39.9419823,76.3939562 L39.9774198,76.2428405 C40.0312323,76.2099892 41.3148573,75.4320719 43.0841073,75.6239231 L43.1812323,75.7474438 L43.0604823,75.8420553 C41.3660448,75.6580884 40.1060448,76.4228653 40.0929198,76.4307496 L40.0351698,76.4452041" id="Fill-332" fill="#A6DDEB"></path>
                        <path d="M27.7829823,72.5372206 C26.6896698,74.1797826 19.6139823,81.4885264 19.6139823,81.4885264 C19.2464823,83.863014 14.5398573,88.8656008 12.2075448,91.3859479 C9.87391984,93.906295 7.75423234,96.7183611 7.75423234,96.7183611 C7.75423234,96.7183611 8.73991984,102.012667 8.37504484,102.272849 C8.19523234,102.400312 7.89073234,102.003469 7.62691984,101.57246 C7.35916984,101.13751 7.13735734,100.663138 7.13735734,100.663138 C7.13735734,100.663138 7.02710734,104.246551 6.43910734,104.210039 C5.85898234,104.174278 6.07816984,100.409526 6.07816984,100.409526 C6.07816984,100.409526 5.38648234,104.314882 4.79848234,104.204502 C4.21704484,104.094121 5.09248234,100.370105 5.09248234,100.370105 C5.09248234,100.370105 3.92304484,103.183485 3.45054484,103.000832 C2.98985734,102.82475 4.12123234,100.221617 4.17898234,100.08627 C4.08054484,100.194022 2.38348234,102.044204 2.06191984,101.726204 C1.73510734,101.395064 4.36010734,97.7787991 4.57929484,97.1572537 C4.79848234,96.5357082 7.17279484,89.851138 10.3464198,84.3347578 C13.5200448,78.8223198 16.6569198,76.9589975 16.6569198,76.9589975 C18.4799823,73.0864934 22.8230448,66.6594768 22.8230448,66.5490967 C22.8230448,66.5490967 24.1014198,67.4623611 25.3758573,68.9209562 C25.8326073,69.446576 26.2736073,70.054981 26.6463573,70.6252785 C27.3196698,71.646295 27.7829823,72.5372206 27.7829823,72.5372206" id="Fill-333" fill="#F1B5AB"></path>
                        <path d="M27.7829823,72.5372206 C26.6896698,74.1797826 19.6139823,81.4885264 19.6139823,81.4885264 C19.2464823,83.863014 14.5398573,88.8656008 12.2075448,91.3859479 C9.87391984,93.906295 7.75423234,96.7183611 7.75423234,96.7183611 C7.75423234,96.7183611 8.73991984,102.012667 8.37504484,102.272849 C8.19523234,102.400312 7.89073234,102.003469 7.62691984,101.57246 C7.66235734,99.0770801 7.53373234,96.2794686 7.53373234,96.2794686 L18.6991698,81.1573859 C20.3647323,78.8919644 24.9912948,72.8039727 26.6463573,70.6252785 C27.3196698,71.646295 27.7829823,72.5372206 27.7829823,72.5372206" id="Fill-334" fill="#F5948D"></path>
                        <path d="M48.9286698,98.7433115 C48.0414198,100.778774 46.1094198,102.674948 44.6394198,103.918039 C44.5199823,104.017907 44.4071073,104.112518 44.2942323,104.200559 C45.5109198,100.431865 47.8799823,92.7683281 48.0716073,89.6330058 C48.2474823,86.7657496 48.0322323,81.8814272 47.8707948,78.7960388 C48.4955448,80.9090306 49.2266073,83.7710306 49.7489823,86.9654851 C50.8422948,93.6513694 50.4616698,95.2374272 48.9286698,98.7433115" id="Fill-335" fill="#66C8CE"></path>
                        <path d="M44.6394198,103.918039 C44.3204823,106.705138 43.4660448,113.844369 42.6864198,118.526328 C42.3228573,120.726047 41.3004198,126.340981 40.1572323,132.52884 C40.5365448,127.827171 41.0313573,122.011188 41.5537323,116.773386 C42.4541073,107.677535 42.8964198,96.397733 43.0276698,92.1086752 C43.4135448,92.0166917 43.7862948,91.9010553 44.1406698,91.7749066 C44.0553573,92.6434934 43.9739823,93.4923694 43.8939198,94.3083942 C43.3439823,99.7341049 42.7428573,105.37532 42.7428573,105.37532 C42.7428573,105.37532 43.5710448,104.818163 44.6394198,103.918039" id="Fill-336" fill="#E18726"></path>
                        <path d="M34.9111698,155.907097 L34.8639198,155.942576 C34.8639198,155.942576 31.1416698,143.013642 31.1416698,136.992667 C31.1416698,130.958551 33.6590448,127.891559 33.6590448,127.891559 C33.6590448,127.891559 33.4411698,123.841659 33.2206698,118.85484 C33.0027948,113.865394 32.7311073,107.785287 32.7311073,107.785287 C31.1416698,109.97975 20.1389823,126.35675 16.8039198,131.78246 C13.4688573,137.213427 4.37848234,151.507659 4.37848234,151.507659 L3.66841984,149.428832 C3.66841984,149.428832 4.08841984,144.702196 5.00454484,139.543237 C8.38554484,136.201609 14.0017323,130.417163 18.3894198,124.77332 C25.1172948,116.113733 33.0657948,107.349022 33.0657948,107.349022 L35.6291073,128.936229 C35.6291073,128.936229 33.3309198,135.290973 33.0841698,141.756097 C32.8846698,147.122675 34.3901073,153.787535 34.9111698,155.907097" id="Fill-337" fill="#E18726"></path>
                        <path d="M28.7345448,104.992931 C24.8810448,108.358212 19.9211073,107.790543 18.2437323,107.475171 C18.7569198,105.991609 19.2556698,104.78794 19.5536073,104.123031 C21.2034198,104.543526 24.4912323,105.178212 28.7345448,104.992931" id="Fill-338" fill="#E18726"></path>
                        <path d="M34.2798573,92.6921132 C34.2798573,92.6921132 33.4411698,100.883898 28.7384823,104.990303 C28.8434823,104.793196 32.3202948,98.4949562 34.2798573,92.6921132" id="Fill-339" fill="#E18726"></path>
                        <polygon id="Fill-340" fill="#A0D0C5" points="70.3617948 150.686378 73.8635448 150.686378 73.8635448 8.18295617 70.3617948 8.18295617"></polygon>
                        <polygon id="Fill-341" fill="#A0D0C5" points="143.32892 150.686378 146.83067 150.686378 146.83067 8.18295617 143.32892 8.18295617"></polygon>
                        <polygon id="Fill-342" fill="#A0D0C5" points="71.1755448 59.8408735 145.955232 59.8408735 145.955232 56.5886008 71.1755448 56.5886008"></polygon>
                        <polygon id="Fill-343" fill="#A0D0C5" points="71.1755448 11.1527082 146.612795 11.1527082 146.612795 7.90306361 71.1755448 7.90306361"></polygon>
                        <polygon id="Fill-344" fill="#A0D0C5" points="71.1755448 105.714345 145.079795 105.714345 145.079795 102.4647 71.1755448 102.4647"></polygon>
                        <polygon id="Fill-345" fill="#A0D0C5" points="72.1126698 150.686378 145.955232 150.686378 145.955232 147.440675 72.1126698 147.440675"></polygon>
                        <polyline id="Fill-346" fill="#B5BE9F" points="143.95367 155.255328 74.4896073 155.255328 73.6154823 150.686378 144.83042 150.686378 143.95367 155.255328"></polyline>
                        <polyline id="Fill-347" fill="#8ED5E7" points="99.6581073 41.8239396 99.6581073 56.5886008 74.5932948 56.5886008 74.5932948 41.0723033 99.6581073 41.8239396"></polyline>
                        <polygon id="Fill-348" fill="#E78837" points="102.285732 56.5886008 111.260607 56.5886008 111.260607 26.8161793 102.285732 26.8161793"></polygon>
                        <polyline id="Fill-349" fill="#263B7F" points="103.489295 52.0932372 103.489295 55.3034603 109.66067 55.3034603 109.66067 52.1747082 103.489295 52.0932372"></polyline>
                        <polygon id="Fill-350" fill="#E78837" points="112.28042 56.5886008 121.255295 56.5886008 121.255295 26.8161793 112.28042 26.8161793"></polygon>
                        <polyline id="Fill-351" fill="#263B7F" points="113.485295 52.0932372 113.485295 55.3034603 119.65667 55.3034603 119.65667 52.1747082 113.485295 52.0932372"></polyline>
                        <polygon id="Fill-352" fill="#E78837" points="122.277732 56.5886008 131.252607 56.5886008 131.252607 26.8161793 122.277732 26.8161793"></polygon>
                        <polyline id="Fill-353" fill="#263B7F" points="123.482607 52.0932372 123.482607 55.3034603 129.65267 55.3034603 129.65267 52.1747082 123.482607 52.0932372"></polyline>
                        <polygon id="Fill-354" fill="#E78837" points="132.273732 56.5886008 141.248607 56.5886008 141.248607 26.8161793 132.273732 26.8161793"></polygon>
                        <polyline id="Fill-355" fill="#263B7F" points="133.477295 52.0932372 133.477295 55.3034603 139.64867 55.3034603 139.64867 52.1747082 133.477295 52.0932372"></polyline>
                        <path d="M140.264232,79.435981 L138.783732,89.162576 L138.73517,89.4910884 L137.777045,95.7945843 L137.725857,96.1178405 L136.76117,102.4647 L107.757545,102.4647 C107.757545,102.4647 107.332295,99.7157082 106.79417,96.1178405 L106.745607,95.7945843 C106.448982,93.8208818 106.123482,91.6185347 105.81242,89.4910884 L105.769107,89.162576 C105.47117,87.1152868 105.194232,85.1415843 104.985545,83.5213611 L104.94092,83.1849644 C104.656107,81.0088983 104.49992,79.5227082 104.582607,79.435981 C104.656107,79.3558239 106.47917,79.3124603 109.268232,79.2940636 L109.600295,79.2888074 C111.575607,79.276981 113.995857,79.2717248 116.605107,79.2822372 L116.934545,79.2822372 C119.822045,79.2848653 122.930045,79.304576 125.900232,79.3203446 L126.228357,79.3203446 C128.750982,79.3387413 131.168607,79.3558239 133.25942,79.3742206 L133.591482,79.3742206 C137.535545,79.4097 140.264232,79.435981 140.264232,79.435981" id="Fill-356" fill="#BD8346"></path>
                        <polyline id="Fill-357" fill="#D55527" points="90.4640448 76.5608405 98.5634823 102.092824 105.020982 99.7695843 96.7023573 75.0339149 90.4640448 76.5608405"></polyline>
                        <polyline id="Fill-358" fill="#9FDBED" points="88.4939823 75.0339149 96.7023573 98.9535595 90.0269823 102.092824 82.0364823 76.5608405 88.4939823 75.0339149"></polyline>
                        <polyline id="Fill-359" fill="#D55527" points="81.4891698 76.5608405 88.8221073 100.119121 82.0364823 102.092824 74.5932948 77.6541297 81.4891698 76.5608405"></polyline>
                        <polygon id="Fill-360" fill="#9FDBED" points="111.874857 147.440675 119.209107 147.440675 119.209107 115.020444 111.874857 115.020444"></polygon>
                        <polygon id="Fill-361" fill="#E79548" points="113.07842 146.579973 118.004232 146.579973 118.004232 144.142411 113.07842 144.142411"></polygon>
                        <polygon id="Fill-362" fill="#9FDBED" points="103.926357 147.440675 111.260607 147.440675 111.260607 115.020444 103.926357 115.020444"></polygon>
                        <polygon id="Fill-363" fill="#E79548" points="105.131232 146.579973 110.057045 146.579973 110.057045 144.142411 105.131232 144.142411"></polygon>
                        <polygon id="Fill-364" fill="#9FDBED" points="119.82467 147.440675 127.156295 147.440675 127.156295 115.020444 119.82467 115.020444"></polygon>
                        <polygon id="Fill-365" fill="#E79548" points="121.028232 146.579973 125.952732 146.579973 125.952732 144.142411 121.028232 144.142411"></polygon>
                        <polygon id="Fill-366" fill="#9FDBED" points="127.774482 147.440675 135.106107 147.440675 135.106107 115.020444 127.774482 115.020444"></polygon>
                        <polygon id="Fill-367" fill="#E79548" points="128.976732 146.579973 133.902545 146.579973 133.902545 144.142411 128.976732 144.142411"></polygon>
                        <polygon id="Fill-368" fill="#9FDBED" points="135.720357 147.440675 143.054607 147.440675 143.054607 115.020444 135.720357 115.020444"></polygon>
                        <polygon id="Fill-369" fill="#E79548" points="136.925232 146.579973 141.849732 146.579973 141.849732 144.142411 136.925232 144.142411"></polygon>
                        <polygon id="Fill-370" fill="#E7863D" points="74.4843573 147.440675 103.246482 147.440675 103.246482 120.281898 74.4843573 120.281898"></polygon>
                        <polygon id="Fill-371" fill="#DCAC57" points="81.7083573 138.363221 95.3898573 138.363221 95.3898573 133.861287 81.7083573 133.861287"></polygon>
                        <polyline id="Fill-372" fill="#DCAC57" points="103.246482 124.485543 103.246482 124.808799 74.4843573 124.405386 74.4843573 124.08213 103.246482 124.485543"></polyline>
                        <polyline id="Fill-373" fill="#B6A4A4" points="139.694607 83.1849644 139.64342 83.5213611 104.985545 83.5213611 104.94092 83.1849644 139.694607 83.1849644"></polyline>
                        <polyline id="Fill-374" fill="#B6A4A4" points="138.783732 89.162576 138.73517 89.4910884 105.81242 89.4910884 105.769107 89.162576 138.783732 89.162576"></polyline>
                        <polyline id="Fill-375" fill="#B6A4A4" points="137.777045 95.7945843 137.725857 96.1178405 106.79417 96.1178405 106.745607 95.7945843 137.777045 95.7945843"></polyline>
                        <polyline id="Fill-376" fill="#B6A4A4" points="111.97067 102.4647 111.641232 102.4647 110.991545 96.1178405 110.95742 95.7945843 110.312982 89.4910884 110.278857 89.162576 109.70267 83.5213611 109.66592 83.1849644 109.268232 79.2940636 109.600295 79.2888074 109.999295 83.1849644 110.034732 83.5213611 110.606982 89.162576 110.64242 89.4910884 111.285545 95.7945843 111.320982 96.1178405 111.97067 102.4647"></polyline>
                        <polygon id="Fill-377" fill="#B6A4A4" points="116.605107 102.4647 116.934545 102.4647 116.934545 79.2822372 116.605107 79.2822372"></polygon>
                        <path d="M126.228357,79.3203446 C126.16667,80.5266421 126.101045,81.8301793 126.03542,83.1849644 L126.020982,83.5213611 C125.93042,85.3439479 125.838545,87.2611463 125.750607,89.162576 L125.738795,89.4910884 C125.633795,91.6750388 125.53142,93.826138 125.443482,95.7945843 L125.429045,96.1178405 C125.308295,98.6946917 125.212482,100.935146 125.154732,102.4647 L124.826607,102.4647 C124.888295,100.910179 124.98542,98.6565843 125.094357,96.1178405 L125.110107,95.7945843 C125.203295,93.7854025 125.303045,91.6159066 125.40542,89.4910884 L125.418545,89.162576 C125.513045,87.1809892 125.606232,85.2467082 125.69417,83.5213611 L125.707295,83.1849644 C125.782107,81.6922041 125.847732,80.365014 125.900232,79.3203446 L126.228357,79.3203446" id="Fill-378" fill="#B6A4A4"></path>
                        <path d="M133.591482,79.3742206 C133.477295,80.548981 133.347357,81.8380636 133.216107,83.1849644 L133.18067,83.5213611 C133.006107,85.3334355 132.815795,87.2506339 132.633357,89.162576 L132.59792,89.4910884 C132.38792,91.6645264 132.17792,93.8208818 131.992857,95.7945843 L131.960045,96.1178405 C131.718545,98.6894355 131.51117,100.935146 131.381232,102.4647 L131.053107,102.4647 C131.183045,100.904923 131.39042,98.6408157 131.63192,96.1178405 L131.662107,95.7945843 C131.848482,93.772262 132.059795,91.6040801 132.265857,89.4910884 L132.296045,89.162576 C132.49292,87.1507661 132.68717,85.2020306 132.852545,83.5213611 L132.882732,83.1849644 C133.040232,81.609419 133.172795,80.2874851 133.25942,79.3742206 L133.591482,79.3742206" id="Fill-379" fill="#B6A4A4"></path>
                        <path d="M93.3003573,78.429419 L99.7631073,98.7354272 L102.078357,97.9351711 L95.5001073,77.8525512 L93.3003573,78.429419 Z M99.6581073,99.1086173 L99.5846073,99.0928487 L99.5019198,98.9956091 L92.9341698,78.3624025 L92.9472948,78.2349396 L93.0496698,78.1521545 L95.5670448,77.4977578 L95.7639198,77.6055099 L102.44192,97.986419 L102.339545,98.1914107 L99.7119198,99.100733 L99.6581073,99.1086173 L99.6581073,99.1086173 Z" id="Fill-380" fill="#E78837"></path>
                        <path d="M84.7743573,79.3821049 L87.2261073,85.2493363 L89.6476698,84.764452 L87.6224823,78.5174603 L84.7743573,79.3821049 Z M87.1263573,85.6001876 L86.9754198,85.5003198 L84.4016073,79.3413694 L84.4055448,79.2073363 L84.5052948,79.1206091 L87.6789198,78.1547826 L87.8836698,78.2625347 L90.0191073,84.8354107 L90.0033573,84.9720719 L89.8944198,85.0482868 L87.1578573,85.5975595 L87.1263573,85.6001876 L87.1263573,85.6001876 Z" id="Fill-381" fill="#E37826"></path>
                        <path d="M88.0529823,87.0890058 L89.9652948,92.5738487 L91.7804823,92.0140636 L89.7605448,86.7118735 L88.0529823,87.0890058 Z M89.8629198,92.9430967 L89.7067323,92.8300884 L87.6815448,87.0246173 L87.6946698,86.8892702 L87.8022948,86.8091132 L89.8274823,86.3597082 L90.0164823,86.4608901 L92.1492948,92.0600553 L92.1440448,92.1940884 L92.0456073,92.2755595 L89.9114823,92.9325843 L89.8629198,92.9430967 L89.8629198,92.9430967 Z" id="Fill-382" fill="#E37826"></path>
                        <path d="M90.3905448,94.5133859 L92.1033573,98.9364768 L94.1692323,98.7262289 L92.2004823,93.798543 L90.3905448,94.5133859 Z M91.9957323,99.2741876 L91.8434823,99.1716917 L90.0269823,94.4805347 L90.1188573,94.2676587 L92.2319823,93.4306091 L92.4446073,93.5239066 L94.5564198,98.8050719 L94.5459198,98.9509314 L94.4212323,99.0284603 L92.0127948,99.2741876 L91.9957323,99.2741876 L91.9957323,99.2741876 Z" id="Fill-383" fill="#E37826"></path>
                        <polyline id="Fill-384" fill="#EBF7FD" points="99.6581073 44.0801628 99.6581073 44.4086752 74.5932948 43.5203777 74.5932948 43.1918653 99.6581073 44.0801628"></polyline>
                        <path d="M92.9289198,52.0157082 L80.3394198,52.0157082 L80.3394198,48.9855099 L92.9289198,48.1786834 L92.9289198,52.0157082 Z M93.2032323,47.8869644 L93.0824823,47.8396587 L80.1674823,48.6688239 L80.0139198,48.8330801 L80.0139198,52.1747082 L80.1753573,52.3442206 L93.0903573,52.3442206 L93.2544198,52.1747082 L93.2544198,48.0039149 L93.2032323,47.8869644 L93.2032323,47.8869644 Z" id="Fill-385" fill="#EBF7FD"></path>
                        <path d="M76.0344198,79.3926173 L76.8035448,81.0167826 L81.5062323,79.9983942 L81.0416073,78.2191711 L76.0344198,79.3926173 Z M76.7090448,81.370262 L76.5620448,81.2756504 L75.6485448,79.3479396 L75.6485448,79.2073363 L75.7614198,79.117981 L81.1242948,77.8604355 L81.3185448,77.980014 L81.8671698,80.0824934 L81.8487948,80.2086421 L81.7424823,80.284857 L76.7457948,81.3663198 L76.7090448,81.370262 L76.7090448,81.370262 Z" id="Fill-386" fill="#E78837"></path>
                        <path d="M82.2464823,99.8339727 L82.6507323,100.981138 L87.6172323,99.6237248 L87.0318573,98.1717 L82.2464823,99.8339727 Z M82.5483573,101.343816 L82.3921698,101.233436 L81.8816073,99.787981 L81.8894823,99.6618322 L81.9826698,99.577733 L87.0712323,97.8090223 L87.2786073,97.9049479 L87.9886698,99.6723446 L87.9834198,99.8090058 L87.8810448,99.8931049 L82.5903573,101.338559 L82.5483573,101.343816 L82.5483573,101.343816 Z" id="Fill-387" fill="#E78837"></path>
                    </g>
                </g>
            </g>
        </g>
    </g>
</svg>