<?xml version="1.0" encoding="UTF-8"?>
<svg width="237px" height="165px" viewBox="0 0 237 165" version="1.1" xmlns="http://www.w3.org/2000/svg" xmlns:xlink="http://www.w3.org/1999/xlink">
    <!-- Generator: Sketch 63.1 (92452) - https://sketch.com -->
    <title>vacuming </title>
    <desc>Created with Sketch.</desc>
    <g id="Home" stroke="none" stroke-width="1" fill="none" fill-rule="evenodd">
        <g id="Desktop-Protopy" transform="translate(-622.000000, -1260.000000)">
            <g id="service-2" transform="translate(584.000000, 1260.000000)">
                <g id="vacuming-" transform="translate(38.000000, 0.000000)">
                    <g>
                        <path d="M198.669403,143.104149 L98.6472705,143.104149 C98.4021382,150.271702 97.8038293,155.969468 97.7259911,156.700851 L199.074859,156.700851 C198.762344,151.920532 198.642682,147.357872 198.669403,143.104149" id="Fill-169" fill="#98D8EA"></path>
                        <path d="M204.571168,93.0939362 C204.571168,95.4917021 203.034153,107.006596 201.800359,115.716489 L201.624932,115.735213 C200.917418,117.879043 200.219197,121.363936 199.674329,125.869255 L98.2290352,125.869255 C97.7933735,121.773511 97.0498441,118.035851 95.8427705,115.258936 C94.0501676,105.351915 91.4152852,92.895 91.4152852,92.895 C92.9836676,91.1396809 137.947447,92.2981915 150.014697,92.1682979 L150.319079,92.163617 C150.506123,92.163617 150.678065,92.1612766 150.843035,92.1565957 C161.499903,91.9553191 204.571168,93.0939362 204.571168,93.0939362" id="Fill-170" fill="#C6E8EF"></path>
                        <path d="M95.7451823,115.860426 C95.7091676,115.695426 95.6812852,115.531596 95.6382999,115.366596 C95.484947,114.767447 95.2816382,114.196383 95.0376676,113.659255 C93.3287117,109.901702 89.5634323,107.721596 85.9677705,108.663617 C84.4330793,109.06266 83.1446823,109.980106 82.2013293,111.213511 C80.6120352,113.287128 79.9858441,116.265319 80.7572558,119.256383 C81.4903293,122.104681 83.3235941,124.319894 85.5541823,125.416383 C87.0702852,126.164149 88.7652999,126.394681 90.428947,125.960532 C94.3952117,124.922553 96.6955058,120.466383 95.7451823,115.860426" id="Fill-171" fill="#C6E8EF"></path>
                        <path d="M85.9677705,108.663617 C89.5634323,107.721596 93.3287117,109.901702 95.0376676,113.659255 C95.3222999,114.141383 95.5883441,114.667979 95.8334764,115.232021 L94.122197,106.189787 C83.9590793,104.186383 82.1990058,111.213511 82.1990058,111.213511 L82.2013293,111.213511 C83.1446823,109.980106 84.4330793,109.06266 85.9677705,108.663617" id="Fill-172" fill="#98D8EA"></path>
                        <path d="M98.2267117,125.871596 C98.3951676,127.444362 98.5159911,129.068617 98.5973146,130.713936 L199.191035,130.713936 C199.331609,129.004255 199.493094,127.395213 199.672006,125.898511 C191.689521,126.088085 107.229226,125.89383 98.2267117,125.871596" id="Fill-173" fill="#9DD9E1"></path>
                        <path d="M98.5973146,130.713936 C98.8099176,134.905638 98.7808735,139.221383 98.6472705,143.104149 L198.669403,143.104149 C198.696123,138.581277 198.8913,134.412979 199.191035,130.713936 L98.5973146,130.713936" id="Fill-174" fill="#98D8EA"></path>
                        <path d="M98.5973146,130.713936 C98.5159911,129.068617 98.3951676,127.444362 98.2267117,125.871596 C97.7190205,125.869255 98.2267117,125.869255 98.2267117,125.869255 C97.7933735,121.773511 97.0498441,118.035851 95.8450941,115.258936 C95.8857558,115.483617 95.8334764,115.232021 95.8334764,115.232021 C95.5883441,114.667979 95.3222999,114.141383 95.0376676,113.659255 C95.2816382,114.196383 95.484947,114.767447 95.6382999,115.366596 C95.6812852,115.531596 95.7091676,115.695426 95.7451823,115.860426 C96.6955058,120.466383 94.3952117,124.922553 90.428947,125.960532 C88.7652999,126.394681 87.0702852,126.164149 85.5541823,125.416383 C85.5541823,125.416383 90.2082117,139.600532 88.8675352,156.781596 L97.716697,156.781596 L97.7259911,156.700851 C97.8038293,155.969468 98.4021382,150.271702 98.6472705,143.104149 C98.7808735,139.221383 98.8099176,134.905638 98.5973146,130.713936" id="Fill-175" fill="#98D8EA"></path>
                        <path d="M215.616065,122.001702 C213.682888,124.993936 210.237094,126.543298 206.980668,125.586064 C203.077138,124.433404 200.877918,120.090745 201.867741,115.711809 L201.798035,115.716489 L201.624932,115.732872 C200.920903,117.879043 200.219197,121.363936 199.676653,125.869255 C199.676653,125.869255 200.064682,125.891489 199.672006,125.898511 C199.491932,127.395213 199.331609,129.005426 199.191035,130.713936 C198.8913,134.412979 198.696123,138.581277 198.668241,143.104149 C198.642682,147.357872 198.761182,151.919362 199.074859,156.700851 L209.385521,156.700851 C209.385521,156.700851 207.354756,135.945957 215.616065,122.001702" id="Fill-176" fill="#98D8EA"></path>
                        <path d="M211.789212,109.038085 C213.394771,109.510851 214.708726,110.527766 215.636976,111.865319 C213.746785,108.419043 209.610903,103.026702 203.1573,105.829362 L201.623771,115.732872 L201.624932,115.732872 C201.945579,114.761596 202.265065,114.057128 202.571771,113.661596 C204.32255,110 208.176123,107.970851 211.789212,109.038085" id="Fill-177" fill="#98D8EA"></path>
                        <path d="M216.827785,114.429255 L216.820815,114.40234 C216.758079,114.23266 216.365403,113.193511 215.636976,111.865319 C214.708726,110.527766 213.394771,109.510851 211.789212,109.038085 C208.176123,107.970851 204.32255,110 202.571771,113.661596 C202.34755,114.128511 202.155859,114.62 202.007153,115.136064 C201.95255,115.327979 201.911888,115.519894 201.867741,115.711809 C200.877918,120.090745 203.077138,124.433404 206.980668,125.586064 C210.237094,126.543298 213.682888,124.993936 215.616065,122.001702 C216.104006,121.248085 216.495521,120.406702 216.762726,119.488085 C217.266932,117.750319 217.257638,115.999681 216.827785,114.429255" id="Fill-178" fill="#C6E8EF"></path>
                        <polyline id="Fill-179" fill="#3883C4" points="151.075388 125.869255 150.771006 125.869255 150.014697 92.1682979 150.319079 92.163617 151.075388 125.869255"></polyline>
                        <polyline id="Fill-180" fill="#3883C4" points="151.038212 142.849043 150.889506 142.700426 150.791918 130.716277 150.941785 130.561809 151.092815 130.713936 151.189241 142.698085 151.040535 142.849043 151.038212 142.849043"></polyline>
                        <polyline id="Fill-181" fill="#3883C4" points="198.622932 143.120532 98.6519176 143.120532 98.5020499 142.969574 98.6519176 142.818617 198.622932 142.818617 198.775123 142.969574 198.622932 143.120532"></polyline>
                        <path d="M209.653888,114.51234 C208.087829,114.51234 207.064315,116.507553 206.897021,118.383404 C206.769226,119.828617 207.152609,121.613191 208.657094,121.885851 C208.774432,121.908085 208.892932,121.919787 209.007947,121.919787 C210.565873,121.919787 211.597521,119.963191 211.781079,118.123617 C211.922815,116.667872 211.553373,114.857553 210.039594,114.553298 C209.909476,114.525213 209.780521,114.51234 209.653888,114.51234 Z M209.007947,122.224043 L209.007947,122.224043 C208.875506,122.224043 208.739579,122.21 208.602491,122.184255 C206.899344,121.876489 206.457873,119.929255 206.597285,118.356489 C206.775035,116.344894 207.907756,114.208085 209.653888,114.208085 C209.801432,114.208085 209.950138,114.224468 210.097682,114.253723 C211.811285,114.601277 212.236491,116.569574 212.080815,118.152872 C211.884476,120.128191 210.742462,122.224043 209.007947,122.224043 L209.007947,122.224043 Z" id="Fill-182" fill="#3883C4"></path>
                        <path d="M87.051697,113.172447 C86.8751088,113.172447 86.6985205,113.193511 86.5254176,113.239149 C85.1231676,113.593723 84.6363882,115.783191 84.8803588,117.762021 C85.1394323,119.878936 86.2779617,122.018085 88.236697,122.018085 L88.2390205,122.018085 C88.4771823,122.018085 88.7269617,121.985319 88.9813882,121.924468 C91.2166235,121.377979 91.2026823,119.165106 91.0934764,118.237128 C90.8100058,115.846383 89.0220499,113.172447 87.051697,113.172447 Z M88.2390205,122.32234 L88.236697,122.32234 C85.9491823,122.32234 84.8350499,119.885957 84.5794617,117.800638 C84.3203882,115.689574 84.8803588,113.342128 86.4510646,112.944255 C86.6485646,112.893936 86.8507117,112.868191 87.051697,112.868191 C89.1742411,112.868191 91.0934764,115.684894 91.3932117,118.203191 C91.6406676,120.299043 90.7670205,121.800426 89.0534176,122.219362 C88.7745941,122.284894 88.4992558,122.32234 88.2390205,122.32234 L88.2390205,122.32234 Z" id="Fill-183" fill="#3883C4"></path>
                        <path d="M97.7259911,156.851809 L97.7074029,156.851809 L97.5749617,156.683298 C99.3664029,140.814043 97.9641529,125.334468 97.7991823,123.620106 C97.4332264,119.835638 96.5479617,117.200319 95.9357117,115.752766 C96.5026529,119.155745 95.4187264,123.919681 91.8974176,125.553298 C87.8521529,127.435 85.5541823,125.612979 85.4589176,125.533404 L85.4391676,125.322766 L85.649447,125.298191 C85.6726823,125.318085 87.9067558,127.075745 91.7696235,125.279468 C95.6731529,123.464468 96.4550205,117.632128 95.2793146,114.414043 L95.3559911,114.224468 L95.5500058,114.279468 C95.5685941,114.311064 97.5075793,117.474149 98.1000793,123.592021 C98.2662117,125.308723 99.6707852,140.816383 97.8758588,156.717234 L97.7259911,156.851809" id="Fill-184" fill="#3883C4"></path>
                        <path d="M199.074859,156.851809 L198.923829,156.712553 C198.913373,156.592021 197.915418,144.398404 198.933123,132.11117 C199.953153,119.807553 201.579623,116.203298 201.648168,116.057021 L201.831726,115.977447 L201.931638,116.150638 C201.928153,116.171702 201.565682,118.038191 202.016447,120.111809 C202.617079,122.86766 204.300476,124.660426 207.023653,125.439787 C213.515594,127.298085 215.986668,121.10766 216.087741,120.843191 L216.284079,120.758936 L216.368888,120.955532 C216.344491,121.021064 213.701476,127.667872 206.940006,125.73234 C201.900271,124.287128 201.418138,119.68234 201.505271,117.400426 C200.9453,119.302021 199.934565,123.675106 199.234021,132.135745 C198.217476,144.398404 199.215432,156.563936 199.224726,156.687979 L199.0888,156.851809 L199.074859,156.851809" id="Fill-185" fill="#3883C4"></path>
                        <path d="M199.672006,125.898511 L199.676653,125.869255 L98.2267117,125.869255 L98.2267117,125.871596 C107.229226,125.89383 191.689521,126.088085 199.672006,125.898511" id="Fill-186" fill="#938B8B"></path>
                        <polyline id="Fill-187" fill="#3883C4" points="199.208462 130.867234 98.5973146 130.867234 98.447447 130.713936 98.5973146 130.561809 199.208462 130.561809 199.358329 130.713936 199.208462 130.867234"></polyline>
                        <path d="M234.937373,159.309255 C234.937373,160.956915 230.516859,162.356489 224.444315,162.812872 C223.079241,162.915851 221.628197,162.970851 220.123712,162.970851 C211.942565,162.970851 205.31005,161.330213 205.31005,159.309255 L205.337932,157.638191 L205.350712,157.185319 L205.777079,133.48266 C205.777079,135.439255 212.199315,137.027234 220.123712,137.027234 C222.935182,137.027234 225.557285,136.828298 227.769285,136.480745 C231.795962,135.85234 234.470344,134.746489 234.470344,133.48266 L234.889741,156.700851 L234.897873,157.13383 L234.937373,159.309255" id="Fill-188" fill="#F79738"></path>
                        <path d="M234.937373,159.309255 C234.937373,160.956915 230.518021,162.355319 224.444315,162.812872 C226.594741,155.078936 227.424241,144.336383 227.769285,136.480745 C231.795962,135.85234 234.470344,134.746489 234.470344,133.48266 L234.889741,156.700851 L234.897873,157.13383 L234.937373,159.309255" id="Fill-189" fill="#E4822F"></path>
                        <path d="M194.2303,150.347766 L193.376403,150.597021 C193.376403,150.597021 187.794123,143.71266 184.728226,139.911809 C181.664653,136.115638 177.389359,131.658298 175.277271,127.099149 C173.439359,123.135638 169.473094,112.431702 168.471653,109.709787 C171.584021,108.674149 173.511388,107.081489 174.371094,104.819468 C175.832594,100.969468 174.423373,96.6139362 173.164021,94.1319149 C172.694668,93.2039362 172.083579,92.0079787 171.505021,90.876383 C171.408594,90.6844681 171.315653,90.4995745 171.219226,90.3170213 C170.804476,89.5084043 170.421094,88.7606383 170.144594,88.2141489 L170.03655,88.0081915 C169.919212,87.7776596 169.826271,87.5951064 169.762373,87.4710638 L169.690344,87.3364894 L169.665947,87.2931915 L169.665947,87.2885106 C169.778638,87.1995745 169.887844,87.1059574 169.992403,87.01 C170.103932,86.916383 170.211976,86.8180851 170.317697,86.7221277 C170.961315,86.1417021 171.539873,85.5565957 172.023168,84.9820213 L172.035947,84.9738298 L172.044079,84.9773404 L172.152123,85.0803191 C174.586021,87.2791489 176.262447,91.8851064 177.360315,96.4606383 L177.360315,96.4629787 C178.184006,99.8952128 178.691697,103.309894 178.949609,105.678404 C179.551403,111.253298 180.807271,124.975213 180.807271,124.975213 C185.582123,126.339681 187.794123,129.077979 188.952403,132.521915 C189.188241,133.231064 189.587888,134.514787 190.057241,136.085213 C191.691844,141.51617 194.2303,150.347766 194.2303,150.347766" id="Fill-190" fill="#D64E27"></path>
                        <path d="M159.893182,129.934574 C163.057829,134.035 162.205094,139.003723 160.59605,144.367979 C159.079947,149.429149 156.2708,157.332766 156.2708,157.332766 L155.330932,157.13383 L154.6118,156.980532 C154.6118,156.980532 153.605712,136.519362 153.405888,130.291489 C153.228138,124.725957 152.729741,113.394787 152.692565,110.891702 C153.415182,111.054362 154.530476,111.191277 156.235947,111.21117 C157.294315,111.222872 158.58155,111.193617 160.145285,111.09766 C160.977109,111.045 161.770594,110.980638 162.526903,110.898723 L159.893182,129.934574" id="Fill-191" fill="#D64E27"></path>
                        <path d="M194.2303,150.347766 L193.376403,150.597021 C193.376403,150.597021 187.794123,143.71266 184.728226,139.911809 C181.664653,136.115638 177.389359,131.658298 175.277271,127.099149 C173.439359,123.135638 169.473094,112.431702 168.471653,109.709787 C171.584021,108.674149 173.511388,107.081489 174.371094,104.819468 C175.832594,100.969468 174.423373,96.6139362 173.164021,94.1319149 C172.694668,93.2039362 172.083579,92.0079787 171.505021,90.876383 C171.408594,90.6844681 171.315653,90.4995745 171.219226,90.3170213 C170.804476,89.5084043 170.421094,88.7606383 170.144594,88.2141489 L170.03655,88.0081915 C169.919212,87.7776596 169.826271,87.5951064 169.762373,87.4710638 L169.690344,87.3364894 L169.665947,87.2931915 L169.665947,87.2885106 C169.778638,87.1995745 169.887844,87.1059574 169.992403,87.01 C170.103932,86.916383 170.211976,86.8180851 170.317697,86.7221277 C170.961315,86.1417021 171.539873,85.5565957 172.023168,84.9820213 L172.035947,84.9738298 L172.044079,84.9773404 L172.152123,85.0803191 C174.586021,87.2791489 176.262447,91.8851064 177.360315,96.4606383 L177.360315,96.4629787 C176.646991,99.7173404 175.601403,104.426277 175.377182,109.982447 C175.075123,117.378191 177.910991,127.200957 177.910991,127.200957 C177.910991,127.200957 183.747697,135.013298 190.057241,136.085213 C191.691844,141.51617 194.2303,150.347766 194.2303,150.347766" id="Fill-192" fill="#C23F27"></path>
                        <path d="M162.526903,110.898723 L159.893182,129.934574 C163.057829,134.035 162.205094,139.003723 160.59605,144.367979 C159.079947,149.429149 156.2708,157.332766 156.2708,157.332766 L155.330932,157.13383 C156.417182,153.542447 159.197285,144.231064 159.613197,139.154681 C160.140638,132.77117 158.440976,131.253404 158.440976,131.253404 C158.248123,126.712979 156.891182,115.839362 156.235947,111.21117 C157.294315,111.222872 158.58155,111.193617 160.145285,111.09766 C160.977109,111.045 161.770594,110.980638 162.526903,110.898723" id="Fill-193" fill="#C23F27"></path>
                        <path d="M173.164021,61.8246809 C173.164021,61.8246809 172.219506,62.9948936 171.608418,64.4576596 C171.403947,64.9491489 171.14255,65.4909574 170.888123,65.9894681 C170.385079,66.9841489 169.907594,67.8196809 169.907594,67.8196809 L168.945653,67.2123404 L168.77255,67.1023404 L166.91605,65.9274468 L166.830079,65.8771277 L166.759212,65.9461702 C164.891094,67.7834043 163.862932,71.1255319 163.862932,73.8720213 C163.862932,76.6606383 165.121123,79.3415957 166.428109,80.2578723 C167.545726,81.037234 169.955226,83.0780851 170.623241,83.6456383 C170.478021,83.8621277 170.301432,84.111383 170.084182,84.386383 C169.150123,85.5858511 167.496932,87.2428723 164.771432,88.7126596 C162.921903,89.7108511 160.862094,90.3170213 159.007918,90.6821277 L158.801123,90.7242553 C155.758462,91.3070213 153.3083,91.2496809 153.3083,91.2496809 C153.154947,90.5931915 151.949035,85.7297872 151.646976,82.1302128 C151.558682,81.07 151.449476,79.9957447 151.344918,79.0057447 C151.127668,76.9871277 150.916226,75.327766 150.8593,74.8982979 L150.843035,74.7882979 C150.532844,74.6876596 150.242403,74.5858511 149.969388,74.4781915 L149.965903,74.4781915 C148.835506,74.0440426 148.026918,73.5771277 147.451844,73.1043617 C146.419035,72.253617 146.123947,71.3806383 146.068182,70.6340426 C145.964785,69.3678723 147.878212,65.9730851 148.506726,64.1019149 C148.987697,62.6754255 149.5953,59.6808511 149.992623,58.1151064 C150.115771,57.6306383 150.219168,57.2830851 150.291197,57.1648936 C150.439903,56.9109574 150.931329,56.4674468 151.470388,55.9829787 L151.78755,55.6997872 C152.230182,55.297234 152.668168,54.8888298 152.953962,54.543617 L153.001594,54.812766 C153.063168,55.3908511 153.159594,56.9753191 153.360579,58.2801064 C153.498829,59.1788298 153.687035,59.9418085 153.947271,60.1430851 L153.958888,60.1501064 L154.032079,60.1840426 L154.156388,60.1501064 L154.213315,60.1068085 L154.265594,60.0401064 C154.507241,59.7019149 154.739594,58.8055319 155.017256,57.882234 C155.110197,57.5732979 155.211271,57.2585106 155.320476,56.963617 C155.869991,55.4411702 156.975991,53.4143617 156.928359,53.1147872 C156.928359,53.1147872 157.160712,53.1171277 157.5348,53.1311702 C158.451432,53.1557447 160.210344,53.2060638 161.46505,53.2996809 C161.979712,53.3406383 162.406079,53.3839362 162.655859,53.4342553 C163.766506,53.6519149 164.971256,54.5798936 167.184418,56.3562766 C168.612226,57.4984043 170.683653,59.4409574 171.977859,60.6778723 L172.123079,60.8147872 C172.756241,61.4232979 173.164021,61.8246809 173.164021,61.8246809" id="Fill-194" fill="#F79738"></path>
                        <path d="M153.001594,54.812766 C153.063168,55.3908511 153.159594,56.9753191 153.360579,58.2801064 C151.800329,58.5434043 150.725697,58.3971277 149.992623,58.1151064 C150.115771,57.6306383 150.219168,57.2830851 150.291197,57.1648936 C150.439903,56.9109574 150.931329,56.4674468 151.470388,55.9829787 L151.78755,55.6997872 C152.230182,55.297234 152.668168,54.8888298 152.953962,54.543617 L153.001594,54.812766" id="Fill-195" fill="#E18726"></path>
                        <path d="M161.46505,53.2996809 C160.355565,54.6395745 158.055271,56.9015957 155.017256,57.882234 C155.110197,57.5732979 155.211271,57.2585106 155.320476,56.963617 C155.869991,55.4411702 156.975991,53.4143617 156.928359,53.1147872 C156.928359,53.1147872 157.160712,53.1171277 157.5348,53.1311702 C158.451432,53.1557447 160.210344,53.2060638 161.46505,53.2996809" id="Fill-196" fill="#E18726"></path>
                        <path d="M166.428109,80.2578723 C167.545726,81.037234 169.955226,83.0780851 170.623241,83.6456383 C170.478021,83.8621277 170.301432,84.111383 170.084182,84.386383 C168.166109,83.0219149 164.006991,79.8974468 163.169359,77.9244681 C162.071491,75.3441489 162.710462,72.7614894 162.710462,72.7614894 C160.855123,73.9270213 158.440976,73.1640426 158.440976,73.1640426 C162.565241,72.5578723 164.223079,70.8985106 164.284653,67.6464894 C164.345065,64.3944681 163.564359,63.0405319 163.564359,63.0405319 C163.564359,63.0405319 162.705815,62.0739362 164.745873,62.5818085 C166.511756,63.0206383 169.430109,64.8719149 170.888123,65.9894681 C170.385079,66.9841489 169.907594,67.8196809 169.907594,67.8196809 L168.945653,67.2123404 L168.77255,67.1023404 L166.91605,65.9274468 L166.830079,65.8771277 L166.759212,65.9461702 C164.891094,67.7834043 163.862932,71.1255319 163.862932,73.8720213 C163.862932,76.6606383 165.121123,79.3415957 166.428109,80.2578723" id="Fill-197" fill="#E18726"></path>
                        <path d="M155.211271,47.2543617 C155.278653,46.1005319 155.200815,45.2404255 155.200815,45.2404255 C158.303888,42.6881915 156.180182,39.4010638 155.200815,39.6643617 C154.215638,39.9264894 154.263271,41.6958511 154.263271,41.6958511 C154.263271,41.6958511 154.263271,41.6958511 152.922594,39.4010638 C152.579873,38.8206383 152.073344,38.3935106 151.473873,38.1009574 C149.705668,37.2303191 147.142815,37.5041489 145.676668,38.3595745 C143.710962,39.506383 141.5373,41.9041489 141.227109,43.4698936 C140.347653,43.2955319 138.804829,42.2119149 138.322697,40.2354255 C137.756918,37.8926596 139.722623,33.4634043 142.414432,32.103617 C145.048153,30.7824468 148.859903,32.048617 149.019065,32.1012766 C148.927285,31.9959574 147.611006,30.4898936 149.02255,30.4348936 C150.310947,30.3915957 153.875241,32.5120213 154.727976,33.0362766 C154.8488,33.1041489 154.912697,33.1451064 154.912697,33.1451064 C154.912697,33.1451064 158.353844,36.3819149 159.132226,39.7193617 C159.905962,43.0556383 159.004432,47.7505319 155.211271,47.2543617" id="Fill-198" fill="#B75349"></path>
                        <path d="M155.211271,47.2543617 C155.278653,46.1005319 155.200815,45.2404255 155.200815,45.2404255 C158.303888,42.6881915 156.180182,39.4010638 155.200815,39.6643617 C154.215638,39.9264894 154.263271,41.6958511 154.263271,41.6958511 C154.263271,41.6958511 154.263271,41.6958511 152.922594,39.4010638 C152.579873,38.8206383 152.073344,38.3935106 151.473873,38.1009574 C155.889741,37.6761702 155.346035,35.9267021 154.727976,33.0362766 C154.8488,33.1041489 154.912697,33.1451064 154.912697,33.1451064 C154.912697,33.1451064 158.353844,36.3819149 159.132226,39.7193617 C159.905962,43.0556383 159.004432,47.7505319 155.211271,47.2543617" id="Fill-199" fill="#A03E37"></path>
                        <path d="M168.706329,40.9141489 C168.448418,43.3645745 167.049653,45.7120213 164.930594,46.4410638 C164.930594,46.4410638 165.757771,44.1029787 165.186182,42.8976596 C164.741226,41.9638298 164.461241,42.0644681 162.907962,42.3219149 C161.355844,42.5828723 160.321873,42.0644681 159.960565,39.9264894 C159.60855,37.8634043 158.963771,34.3504255 156.360256,33.5932979 C156.798241,32.2791489 156.396271,31.0726596 155.486609,30.981383 C155.577226,30.4103191 155.817712,29.5478723 156.305653,28.7439362 C156.972506,27.6462766 158.106388,26.6574468 159.960565,26.6820213 C163.322712,26.7346809 164.357844,28.9264894 164.875991,31.427234 C165.352315,33.7348936 164.292785,36.5738298 164.122006,37.0032979 C164.238182,36.7751064 164.748197,35.8974468 165.964565,36.173617 C167.128653,36.432234 168.435638,37.8540426 168.688903,39.7392553 L168.688903,39.7415957 C168.737697,40.1184043 168.746991,40.5115957 168.706329,40.9141489" id="Fill-200" fill="#B75349"></path>
                        <path d="M168.706329,40.9141489 C168.448418,43.3645745 167.049653,45.7120213 164.930594,46.4410638 C164.930594,46.4410638 165.757771,44.1029787 165.186182,42.8976596 C164.741226,41.9638298 164.461241,42.0644681 162.907962,42.3219149 C161.355844,42.5828723 160.321873,42.0644681 159.960565,39.9264894 C159.60855,37.8634043 158.963771,34.3504255 156.360256,33.5932979 C156.798241,32.2791489 156.396271,31.0726596 155.486609,30.981383 C155.577226,30.4103191 155.817712,29.5478723 156.305653,28.7439362 C159.517932,28.0757447 162.250403,28.5215957 163.164712,31.2985106 C164.253285,34.6043617 162.860329,37.8423404 163.426109,37.9476596 C163.915212,38.0389362 167.476021,36.0214894 168.688903,39.7392553 L168.688903,39.7415957 C168.737697,40.1184043 168.746991,40.5115957 168.706329,40.9141489" id="Fill-201" fill="#A03E37"></path>
                        <path d="M155.200815,45.2404255 C155.200815,45.2404255 155.237991,45.666383 155.237991,46.3193617 C155.237991,46.5967021 155.233344,46.9138298 155.211271,47.2543617 C155.129947,48.7171277 154.813947,50.6620213 153.799726,51.9129787 L153.749771,51.9714894 C153.378006,52.431383 153.006241,52.8339362 152.620535,53.1873404 C151.159035,54.5295745 149.543021,55.0865957 147.226462,54.6781915 C144.276741,54.1574468 142.932579,51.865 142.364476,48.7838298 C141.792888,45.7120213 141.222462,43.4745745 141.222462,43.4745745 L141.227109,43.4698936 C141.5373,41.9041489 143.710962,39.506383 145.676668,38.3595745 C147.04755,37.5614894 149.382697,37.2665957 151.123021,37.9476596 C151.874682,38.2402128 152.517138,38.7106383 152.922594,39.4010638 C154.263271,41.6958511 154.263271,41.6958511 154.263271,41.6958511 C154.263271,41.6958511 154.215638,39.9264894 155.200815,39.6643617 C156.180182,39.4010638 158.303888,42.6881915 155.200815,45.2404255" id="Fill-202" fill="#F1B5AB"></path>
                        <path d="M155.200815,45.2404255 C155.200815,45.2404255 155.237991,45.666383 155.237991,46.3193617 C155.237991,46.5967021 155.233344,46.9138298 155.211271,47.2543617 C155.129947,48.7171277 154.813947,50.6620213 153.799726,51.9129787 L153.749771,51.9714894 C155.157829,45.3457447 152.534565,40.1441489 151.123021,37.9476596 C151.874682,38.2402128 152.517138,38.7106383 152.922594,39.4010638 C154.263271,41.6958511 154.263271,41.6958511 154.263271,41.6958511 C154.263271,41.6958511 154.215638,39.9264894 155.200815,39.6643617 C156.180182,39.4010638 158.303888,42.6881915 155.200815,45.2404255" id="Fill-203" fill="#F5948D"></path>
                        <path d="M155.484285,30.981383 L155.444785,30.9767021 C154.331815,30.9053191 154.560682,32.9332979 154.560682,32.9332979 C155.297241,33.3674468 156.027991,34.3293617 156.027991,34.3293617 C156.170888,34.0847872 156.276609,33.8355319 156.360256,33.5932979 C156.799403,32.2791489 156.398594,31.0726596 155.484285,30.981383" id="Fill-204" fill="#5F1D16"></path>
                        <polyline id="Fill-205" fill="#F1B5AB" points="175.870932 89.1304255 175.930182 88.9665957 175.870932 89.1304255"></polyline>
                        <path d="M147.900285,43.3669149 C147.900285,43.3669149 147.644697,41.9591489 148.808785,41.8011702 C149.971712,41.6455319 151.626065,42.5828723 151.626065,42.5828723 C151.626065,42.5828723 148.521829,42.4798936 147.900285,43.3669149" id="Fill-206" fill="#B75349"></path>
                        <path d="M144.532329,44.0269149 C144.532329,44.0269149 143.721418,43.4102128 142.808271,44.0269149 C141.893962,44.6518085 141.996197,45.8419149 141.996197,45.8419149 C141.996197,45.8419149 142.656079,45.2275532 143.417035,44.7980851 C144.176829,44.3674468 144.532329,44.0269149 144.532329,44.0269149" id="Fill-207" fill="#B75349"></path>
                        <path d="M169.654329,87.2955319 C170.568638,86.5337234 171.378388,85.7485106 172.025491,84.9843617 L169.647359,87.3002128 L169.654329,87.2955319" id="Fill-208" fill="#5F1D16"></path>
                        <path d="M173.164021,94.1319149 C172.694668,93.2039362 172.083579,92.0079787 171.505021,90.876383 C171.408594,90.6844681 171.311006,90.4995745 171.219226,90.3170213 C170.804476,89.5084043 170.421094,88.7606383 170.144594,88.2141489 L170.03655,88.0081915 C169.919212,87.7776596 169.826271,87.5951064 169.762373,87.4710638 L169.690344,87.3364894 L169.665947,87.2931915 L169.665947,87.2885106 L171.778035,85.2195745 L172.023168,84.9820213 L171.998771,84.9574468 L170.623241,83.6456383 C169.847182,84.8228723 168.118476,86.9070213 164.771432,88.7126596 C159.792109,91.4006383 153.3083,91.2496809 153.3083,91.2496809 L153.3083,92.6644681 L153.271123,92.8973404 C152.980682,95.0201064 151.344918,108.697553 151.344918,110.285532 C151.344918,110.285532 151.490138,110.622553 152.692565,110.891702 C153.871756,111.155 156.067491,111.351596 160.145285,111.09766 C160.977109,111.045 161.770594,110.980638 162.526903,110.898723 C164.855079,110.647128 166.830079,110.258617 168.471653,109.709787 C171.584021,108.674149 173.511388,107.081489 174.371094,104.819468 C175.832594,100.969468 174.423373,96.6139362 173.164021,94.1319149 L173.164021,94.1319149 Z" id="Fill-209" fill="#263B7F"></path>
                        <polyline id="Fill-210" fill="#5F1D16" points="170.652285 83.6023404 170.661579 83.5859574 170.652285 83.6023404"></polyline>
                        <path d="M172.044079,84.9773404 C171.987153,85.0510638 171.930226,85.1154255 172.023168,84.9820213 C172.143991,84.8404255 172.095197,84.9141489 172.044079,84.9773404" id="Fill-211" fill="#5F1D16"></path>
                        <polyline id="Fill-212" fill="#5F1D16" points="169.640388 87.307234 169.654329 87.2955319 169.647359 87.3002128 169.640388 87.307234"></polyline>
                        <path d="M156.2708,157.333936 C156.2708,157.333936 154.6908,156.47266 152.691403,156.879894 C150.690844,157.282447 148.628712,159.309255 148.628712,159.309255 L156.2708,159.309255 L156.2708,157.333936" id="Fill-213" fill="#263B7F"></path>
                        <path d="M193.247447,150.439043 C193.376403,150.597021 192.823403,155.901596 192.320359,156.769894 C191.818476,157.638191 190.007285,158.29 189.908535,158.671489 C189.8063,159.055319 193.275329,159.402872 194.2303,158.671489 C195.185271,157.942447 197.197447,152.777128 197.197447,152.777128 L194.101344,149.796596 L193.247447,150.439043" id="Fill-214" fill="#263B7F"></path>
                        <path d="M153.947271,60.1430851 C153.778815,60.0307447 152.098903,58.9342553 150.843035,59.51 C150.843035,59.51 151.156712,57.3064894 151.78755,55.6997872 C152.230182,55.297234 152.668168,54.8888298 152.953962,54.543617 L153.001594,54.812766 C153.107315,55.7887234 153.303653,59.6445745 153.947271,60.1430851" id="Fill-215" fill="#263B7F"></path>
                        <path d="M158.987006,57.7195745 C157.170006,57.8143617 154.615285,59.7861702 154.213315,60.1068085 C154.558359,59.7381915 154.867388,58.1958511 155.320476,56.963617 C155.869991,55.4411702 156.975991,53.4143617 156.928359,53.1147872 C156.928359,53.1147872 157.160712,53.1171277 157.5348,53.1311702 L158.987006,57.7195745" id="Fill-216" fill="#263B7F"></path>
                        <path d="M155.299565,43.4675532 L155.220565,43.4242553 C154.439859,42.3359574 154.866226,41.0101064 155.190359,40.3173404 L155.206623,40.2810638 L155.335579,40.2237234 L155.397153,40.3501064 L155.372756,40.4051064 C155.067212,41.0580851 154.665241,42.2996809 155.383212,43.3048936 L155.358815,43.4488298 L155.299565,43.4675532" id="Fill-217" fill="#983222"></path>
                        <path d="M155.048623,42.5547872 L154.955682,42.4869149 L155.013771,42.3581915 C155.032359,42.3523404 155.444785,42.1967021 155.385535,41.8585106 C155.365785,41.7461702 155.313506,41.7239362 155.298403,41.7145745 C155.192682,41.6595745 155.003315,41.7321277 154.946388,41.7602128 L154.810462,41.7169149 L154.853447,41.58 C154.885976,41.563617 155.172932,41.4243617 155.387859,41.5320213 C155.458726,41.5682979 155.551668,41.6478723 155.584197,41.8234043 C155.653903,42.2306383 155.286785,42.4752128 155.082315,42.5512766 L155.048623,42.5547872" id="Fill-218" fill="#983222"></path>
                        <path d="M141.093506,41.36 L140.992432,41.2640426 C140.986623,41.1973404 140.864638,39.6760638 141.327021,39.1518085 L141.474565,39.1424468 L141.482697,39.2910638 C141.145785,39.6690426 141.163212,40.8298936 141.198065,41.2453191 L141.105123,41.36 L141.093506,41.36" id="Fill-219" fill="#993E3A"></path>
                        <path d="M143.061535,35.7558511 L143.015065,35.7418085 L142.969756,35.6048936 C143.030168,35.4796809 144.007212,34.1035106 144.628756,33.8612766 L144.762359,33.918617 L144.703109,34.0531915 C144.147785,34.2720213 143.214888,35.5803191 143.154476,35.6985106 L143.061535,35.7558511" id="Fill-220" fill="#993E3A"></path>
                        <path d="M150.773329,35.8834043 L150.707109,35.8635106 C149.690565,35.012766 146.954609,35.2830851 146.926726,35.2854255 L146.814035,35.1906383 L146.906976,35.0771277 C147.021991,35.0654255 149.756785,34.7962766 150.83955,35.6985106 L150.852329,35.8471277 L150.773329,35.8834043" id="Fill-221" fill="#993E3A"></path>
                        <path d="M152.402123,35.5639362 L152.313829,35.513617 C151.942065,34.8758511 150.850006,34.0485106 150.840712,34.0414894 L150.818638,33.8928723 L150.965021,33.8729787 C151.010329,33.9069149 152.098903,34.7365957 152.492741,35.4059574 L152.454403,35.5475532 L152.402123,35.5639362" id="Fill-222" fill="#993E3A"></path>
                        <path d="M140.086256,41.36 L140.010741,41.3284043 C139.324138,40.6075532 139.668021,38.7012766 139.741212,38.5901064 L139.885271,38.5596809 L139.9178,38.7001064 C139.849256,38.8779787 139.586697,40.5829787 140.160609,41.1844681 L140.157123,41.3307447 L140.086256,41.36" id="Fill-223" fill="#993E3A"></path>
                        <path d="M162.390976,33.643617 L162.291065,33.5640426 C162.284094,33.5347872 161.58355,30.6935106 159.694521,30.0674468 C157.846153,29.4565957 157.39655,30.667766 157.391903,30.6794681 L157.2583,30.7461702 L157.195565,30.6115957 C157.200212,30.5975532 157.718359,29.1932979 159.758418,29.8708511 C161.757815,30.5308511 162.463006,33.3943617 162.493212,33.5137234 L162.415373,33.6412766 L162.390976,33.643617" id="Fill-224" fill="#5F1D16"></path>
                        <path d="M163.322712,32.1305319 L163.319226,32.1305319 L163.219315,32.0240426 C163.269271,30.6385106 162.3143,29.0470213 162.302682,29.0318085 L162.336373,28.8902128 L162.479271,28.9241489 C162.519932,28.9908511 163.478388,30.5811702 163.426109,32.032234 L163.322712,32.1305319" id="Fill-225" fill="#5F1D16"></path>
                        <path d="M157.294315,32.4441489 L157.245521,32.4324468 L157.202535,32.2931915 C157.224609,32.2498936 157.7323,31.2692553 158.409609,31.2985106 L158.509521,31.4061702 L158.401476,31.5044681 C157.948388,31.482234 157.513888,32.1352128 157.384932,32.3891489 L157.294315,32.4441489" id="Fill-226" fill="#5F1D16"></path>
                        <path d="M160.891138,37.5298936 L160.787741,37.4374468 C160.612315,36.0846809 158.891741,34.6078723 158.367785,34.1901064 L158.334094,34.1608511 L158.334094,34.0145745 L158.474668,34.0098936 L158.496741,34.0274468 C159.034638,34.4580851 160.807491,35.9793617 160.993373,37.4105319 L160.905079,37.5275532 L160.891138,37.5298936" id="Fill-227" fill="#5F1D16"></path>
                        <path d="M166.686021,43.472234 L166.673241,43.4698936 L166.583785,43.3505319 C166.734815,42.2645745 165.705491,40.0364894 165.559109,39.9019149 L165.549815,39.7532979 L165.693873,39.7415957 C165.92855,39.9452128 166.947418,42.24 166.788256,43.3809574 L166.686021,43.472234" id="Fill-228" fill="#5F1D16"></path>
                        <path d="M167.541079,42.1276596 L167.530623,42.1253191 L167.437682,42.0118085 C167.530623,41.1587234 167.302918,40.3173404 166.766182,39.5157447 L166.726682,39.4560638 L166.763859,39.3144681 L166.904432,39.3507447 L166.9358,39.3987234 C167.642153,40.4530851 167.709535,41.4126596 167.643315,42.0340426 L167.541079,42.1276596" id="Fill-229" fill="#5F1D16"></path>
                        <path d="M147.537815,51.865 C147.537815,51.865 150.592094,50.3764894 151.213638,49.335 C151.213638,49.335 151.342594,51.2108511 150.228462,52.4629787 C149.116653,53.7162766 147.537815,51.865 147.537815,51.865" id="Fill-230" fill="#FFFFFF"></path>
                        <path d="M145.626712,50.5543617 C145.178271,50.5543617 144.789079,50.4291489 144.764682,50.4221277 L144.6973,50.2992553 C144.699623,50.2898936 144.957535,49.2998936 145.163168,48.1682979 C145.364153,47.0484043 145.34905,46.3837234 144.71705,45.6207447 L144.730991,45.4791489 L144.873888,45.4896809 C145.552359,46.31 145.568623,47.0460638 145.359506,48.2057447 C145.19105,49.1395745 144.987741,49.9762766 144.916873,50.253617 C145.150388,50.3168085 145.785873,50.4478723 146.251741,50.2348936 C146.825653,49.9692553 146.976682,49.5901064 146.977844,49.5854255 L147.109123,49.5257447 L147.16605,49.6568085 C147.160241,49.6767021 146.9883,50.1155319 146.33655,50.4174468 C146.112329,50.5180851 145.860226,50.5543617 145.626712,50.5543617" id="Fill-231" fill="#983222"></path>
                        <path d="M159.007918,90.6821277 L158.801123,90.7242553 C157.857771,88.7103191 156.204579,82.8838298 155.504035,80.1642553 C155.009123,78.2357447 154.482844,76.6793617 154.015815,75.3008511 C153.630109,74.1552128 153.296682,73.1687234 153.058521,72.2056383 C152.532241,70.1015957 152.813388,68.4855319 153.167726,66.4376596 L153.256021,65.9075532 C153.489535,64.5384043 153.646373,63.2371277 153.7823,62.0926596 C153.871756,61.3589362 153.951918,60.7001064 154.032079,60.1840426 L154.156388,60.1501064 L154.213315,60.1068085 L154.265594,60.0401064 C154.168006,60.577234 154.084359,61.3015957 153.984447,62.1148936 C153.847359,63.2652128 153.690521,64.5723404 153.458168,65.9414894 L153.364065,66.4715957 C153.014373,68.497234 152.736712,70.0945745 153.252535,72.16 C153.489535,73.1137234 153.822962,74.0967021 154.205182,75.2341489 C154.67105,76.615 155.201976,78.1807447 155.700373,80.1115957 C156.486888,83.1564894 158.122653,88.8355319 159.007918,90.6821277" id="Fill-232" fill="#993E3A"></path>
                        <path d="M158.7988,73.1815957 C158.588521,73.1815957 158.459565,73.1687234 158.440976,73.166383 L158.351521,73.0540426 L158.461888,72.9651064 C158.481638,72.9674468 160.391579,73.1640426 162.145844,71.8861702 C163.890815,70.6153191 164.312535,69.1794681 164.485638,68.0689362 L164.600653,67.9846809 L164.6843,68.1017021 C164.505388,69.2508511 164.069726,70.7346809 162.264344,72.0488298 C160.886491,73.0517021 159.452873,73.1815957 158.7988,73.1815957" id="Fill-233" fill="#993E3A"></path>
                        <path d="M151.478521,74.9825532 C151.243844,74.9825532 150.761712,74.9310638 150.018182,74.6151064 L149.964741,74.4828723 L150.094859,74.4278723 C151.109079,74.8573404 151.602829,74.7730851 151.6098,74.7707447 L151.725976,74.8503191 L151.646976,74.9696809 C151.640006,74.9720213 151.585403,74.9825532 151.478521,74.9825532" id="Fill-234" fill="#993E3A"></path>
                        <polyline id="Fill-235" fill="#993E3A" points="166.91605 65.9274468 166.830079 65.8771277 166.759212 65.9461702 164.316021 63.8046809 164.307888 63.6654255 164.448462 63.6560638 166.895138 65.7975532 166.91605 65.9274468"></polyline>
                        <path d="M172.123079,60.8147872 C169.670594,63.2242553 168.968888,67.1362766 168.961918,67.1760638 L168.945653,67.2123404 L168.77255,67.1023404 C168.852712,66.6869149 169.613668,63.0042553 171.977859,60.6778723 L172.123079,60.8147872" id="Fill-236" fill="#993E3A"></path>
                        <path d="M172.152123,85.0803191 C171.539873,85.8491489 170.716182,86.6671277 169.762373,87.4710638 C168.777197,88.3030851 167.6468,89.1257447 166.452506,89.8618085 L166.275918,89.9764894 C164.621565,90.986383 162.849873,91.8347872 161.158344,92.3356383 L160.962006,92.3964894 C160.677373,92.4795745 160.393903,92.5497872 160.117403,92.6094681 C158.460726,92.9745745 157.003873,93.0939362 155.810741,93.0939362 C155.665521,93.0939362 155.524947,93.0939362 155.387859,93.0892553 L155.186873,93.0798936 C154.396873,93.0529787 153.749771,92.9745745 153.271123,92.8973404 L153.303653,92.6937234 C154.539771,92.8973404 156.936491,93.0962766 160.076741,92.4128723 C160.367182,92.3461702 160.659947,92.2759574 160.958521,92.1893617 L161.054947,92.1612766 L161.058432,92.1612766 C164.022094,91.2789362 167.255285,89.3293617 169.64155,87.307234 L169.665947,87.2931915 L169.665947,87.2885106 C169.778638,87.1995745 169.887844,87.1059574 169.992403,87.01 C170.103932,86.916383 170.211976,86.8180851 170.317697,86.7221277 C170.873021,86.2095745 171.363285,85.7075532 171.778035,85.2195745 L171.998771,84.9574468 L172.023168,84.9820213 C172.143991,84.8404255 172.095197,84.9141489 172.044079,84.9773404 L172.152123,85.0803191" id="Fill-237" fill="#A6DDEB"></path>
                        <path d="M154.496785,97.8637234 L154.478197,97.861383 L154.396873,97.7431915 C154.563006,96.8081915 155.195006,93.0167021 155.201976,92.9769149 L155.315829,92.895 L155.399476,93.0120213 C155.393668,93.0506383 154.760506,96.8444681 154.594373,97.7794681 L154.496785,97.8637234" id="Fill-238" fill="#A6DDEB"></path>
                        <path d="M161.971579,97.8637234 L161.870506,97.7654255 C161.803123,95.6075532 160.943418,92.3192553 160.934123,92.2853191 L161.006153,92.1612766 L161.1293,92.2326596 C161.137432,92.2642553 162.004109,95.5782979 162.071491,97.7584043 L161.973903,97.8637234 L161.971579,97.8637234" id="Fill-239" fill="#A6DDEB"></path>
                        <path d="M169.043241,97.6601064 L168.951462,97.6039362 C168.944491,97.5828723 168.035991,95.6531915 167.173962,93.7176596 C166.304962,91.7634043 166.277079,89.9507447 166.277079,89.9378723 L166.375829,89.8348936 L166.378153,89.8348936 L166.478065,89.9355319 C166.478065,89.9484043 166.507109,91.7201064 167.357521,93.6357447 C168.21955,95.5689362 169.125726,97.4962766 169.133859,97.5161702 L169.086226,97.6495745 L169.043241,97.6601064" id="Fill-240" fill="#A6DDEB"></path>
                        <path d="M144.067623,47.096383 C144.288359,47.7481915 144.216329,48.3648936 143.904976,48.4725532 C143.593623,48.5802128 143.162609,48.1390426 142.940712,47.4848936 C142.717653,46.8342553 142.792006,46.2187234 143.103359,46.112234 C143.414712,46.0045745 143.845726,46.4457447 144.067623,47.096383" id="Fill-241" fill="#1E1724"></path>
                        <path d="M149.586006,44.9502128 C149.809065,45.6020213 149.735873,46.2187234 149.424521,46.3240426 C149.113168,46.4317021 148.683315,45.9905319 148.461418,45.3387234 C148.238359,44.6880851 148.31155,44.0725532 148.621741,43.9660638 C148.933094,43.8560638 149.364109,44.297234 149.586006,44.9502128" id="Fill-242" fill="#1E1724"></path>
                        <path d="M151.344918,79.0057447 L151.344918,79.7991489 C151.344918,79.7991489 149.735873,83.4993617 148.427726,85.7754255 C147.121903,88.0514894 144.004888,90.1297872 144.004888,90.1297872 C143.203271,91.0320213 142.364476,91.9740426 141.928815,91.7201064 L141.844006,91.652234 C141.443197,91.1970213 142.294771,90.0314894 142.294771,90.0314894 L140.886712,90.6844681 C140.886712,90.6844681 140.686888,92.5088298 140.183844,92.3602128 C139.679638,92.2115957 139.781873,89.9285106 140.183844,89.2696809 C140.584653,88.6120213 142.545712,88.0514894 142.545712,88.0514894 C142.545712,88.0514894 143.751623,85.4711702 145.110888,81.9265957 C146.470153,78.3820213 147.321726,73.0634043 147.321726,73.0634043 L147.451844,73.1043617 C148.050153,73.5935106 148.891271,74.0803191 150.090212,74.5261702 C150.327212,74.6151064 150.575829,74.7040426 150.843035,74.7882979 C150.843035,74.7882979 151.090491,76.653617 151.344918,79.0057447" id="Fill-243" fill="#F1B5AB"></path>
                        <path d="M151.344918,79.0057447 L151.344918,79.7991489 C151.344918,79.7991489 149.735873,83.4993617 148.427726,85.7754255 C147.121903,88.0514894 144.004888,90.1297872 144.004888,90.1297872 C143.203271,91.0320213 142.364476,91.9740426 141.928815,91.7201064 C142.472521,91.1256383 143.252065,90.2643617 143.655197,89.8325532 C144.306947,89.1304255 148.730947,83.1424468 149.382697,80.7610638 C149.828815,79.1496809 150.018182,76.2288298 150.090212,74.5261702 C150.327212,74.6151064 150.575829,74.7040426 150.843035,74.7882979 C150.843035,74.7882979 151.090491,76.653617 151.344918,79.0057447" id="Fill-244" fill="#F5948D"></path>
                        <path d="M205.415771,144.875851 C198.600859,144.875851 194.426638,132.026915 190.933212,118.08383 C187.559447,104.615851 182.319888,97.02 173.832035,87.7132979 C165.641594,78.7354255 160.269594,79.4012766 154.094815,81.2045745 C148.299932,82.8978723 144.016506,90.0701064 143.595947,91.0343617 C143.460021,91.5562766 142.989506,91.9401064 142.428373,91.9401064 C141.762682,91.9401064 141.222462,91.3959574 141.222462,90.7242553 C141.222462,89.4346809 146.582844,80.8687234 153.422153,78.8711702 C160.169682,76.8981915 166.496653,76.0802128 175.608373,86.0679787 C184.364594,95.6695745 189.773771,103.520532 193.273006,117.488191 C195.153903,124.998617 199.526785,142.444149 205.426226,142.444149 L205.678329,142.434787 C206.349829,142.370426 206.926065,142.875957 206.980668,143.542979 C207.037594,144.21117 206.542682,144.800957 205.879315,144.854787 C205.723638,144.86883 205.569123,144.875851 205.415771,144.875851" id="Fill-245" fill="#A6D6B4"></path>
                        <path d="M156.928359,53.1147872 C156.975991,53.4143617 155.869991,55.4411702 155.320476,56.963617 C154.765153,58.4767021 154.422432,60.4765957 153.958888,60.1501064 C153.3083,59.6925532 153.107315,55.7957447 153.001594,54.812766 L152.953962,54.543617 C152.917947,54.4020213 152.870315,54.2662766 152.804094,54.1340426 C152.640285,53.7619149 152.395153,53.4459574 152.209271,53.2353191 C152.599623,52.8748936 152.977197,52.4653191 153.355932,51.9948936 C154.342271,50.781383 154.647815,48.8914894 154.727976,47.4720213 C155.182226,48.306383 155.677138,49.5257447 156.087241,50.6257447 C156.554271,51.887234 156.903962,52.9778723 156.928359,53.1147872" id="Fill-246" fill="#F1B5AB"></path>
                        <path d="M156.087241,50.6257447 C155.097418,52.4384043 153.620815,53.5746809 152.804094,54.1340426 C152.640285,53.7619149 152.395153,53.4459574 152.209271,53.2353191 C152.599623,52.8748936 152.977197,52.4653191 153.355932,51.9948936 C154.342271,50.781383 154.647815,48.8914894 154.727976,47.4720213 C155.182226,48.306383 155.677138,49.5257447 156.087241,50.6257447" id="Fill-247" fill="#F5948D"></path>
                        <path d="M178.848535,87.5997872 C179.198226,89.672234 178.494197,91.0437234 178.044594,91.0437234 C177.775065,91.0437234 177.827344,90.5019149 177.910991,90.0701064 L177.910991,90.0654255 C177.963271,89.8021277 178.028329,89.578617 178.041109,89.5306383 L177.948168,89.7026596 L177.944682,89.7108511 C177.686771,90.1707447 176.999006,91.3269149 176.636535,91.245 C176.404182,91.1946809 176.406506,90.8635106 176.472726,90.5569149 L176.472726,90.552234 C176.511065,90.3334043 176.584256,90.1274468 176.615623,90.0314894 C176.584256,90.0993617 176.522682,90.2234043 176.443682,90.3720213 L176.436712,90.387234 C176.234565,90.7441489 175.927859,91.1806383 175.678079,90.9934043 C175.517756,90.8728723 175.52705,90.5276596 175.594432,90.1543617 C175.656006,89.798617 175.772182,89.4206383 175.852344,89.1924468 L175.768697,89.3960638 C175.581653,89.8161702 175.284241,90.3626596 175.027491,90.1297872 C174.625521,89.7705319 175.324903,86.5384043 175.324903,86.5384043 C175.324903,86.5384043 174.120153,87.4464894 173.667065,86.8356383 C173.599682,86.7443617 173.583418,86.6285106 173.606653,86.4974468 C173.744903,85.7754255 175.058859,84.6215957 174.975212,84.4062766 C174.8753,84.1546809 174.520962,78.7857447 173.768138,75.1405319 C173.016476,71.4953191 173.313888,70.5837234 173.265094,70.3801064 C173.220947,70.202234 170.495447,68.5147872 169.907594,67.8196809 C169.907594,67.8196809 170.399021,66.9584043 170.909035,65.9485106 C171.158815,65.4570213 171.408594,64.9362766 171.608418,64.4576596 C172.219506,62.9948936 173.164021,61.8246809 173.164021,61.8246809 C174.922932,63.2418085 178.141021,67.1865957 178.141021,67.1865957 C178.141021,67.1865957 178.848535,68.051383 178.941476,71.3923404 C179.037903,74.7368085 178.044594,84.1546809 178.044594,84.1546809 C178.044594,84.1546809 178.494197,85.5261702 178.848535,87.5997872" id="Fill-248" fill="#F1B5AB"></path>
                        <path d="M175.377182,79.2456383 C175.377182,83.3940426 174.991476,84.9024468 174.991476,84.9024468 C174.991476,84.9024468 174.504697,85.6197872 173.606653,86.4974468 C173.744903,85.7754255 175.058859,84.6215957 174.975212,84.4062766 C174.8753,84.1546809 174.520962,78.7857447 173.768138,75.1405319 C173.016476,71.4953191 173.313888,70.5837234 173.265094,70.3801064 C173.220947,70.202234 170.495447,68.5147872 169.907594,67.8196809 C169.907594,67.8196809 170.399021,66.9584043 170.909035,65.9485106 C172.723712,67.5247872 173.699594,69.2391489 174.070197,70.1308511 C174.471006,71.0904255 175.377182,75.0878723 175.377182,79.2456383" id="Fill-249" fill="#F5948D"></path>
                        <path d="M175.594432,90.1543617 C175.656006,89.798617 175.772182,89.4206383 175.852344,89.1924468 L175.768697,89.3960638 C175.904623,88.9139362 175.980138,88.3381915 176.005697,87.67 L176.057976,87.6243617 L176.105609,87.6770213 C176.068432,88.7267021 175.896491,89.5598936 175.594432,90.1543617" id="Fill-250" fill="#993E3A"></path>
                        <path d="M176.472726,90.552234 C176.511065,90.3334043 176.584256,90.1274468 176.615623,90.0314894 C176.584256,90.0993617 176.522682,90.2234043 176.443682,90.3720213 C176.623756,89.9285106 176.834035,89.3024468 177.015271,88.4751064 L177.072197,88.4376596 L177.110535,88.4926596 C176.906065,89.43 176.669065,90.1040426 176.472726,90.552234" id="Fill-251" fill="#993E3A"></path>
                        <path d="M177.910991,90.0654255 C177.963271,89.8021277 178.028329,89.578617 178.041109,89.5306383 L177.948168,89.7026596 C178.151476,89.1304255 178.260682,88.6284043 178.269976,88.2071277 L178.322256,88.1591489 L178.369888,88.2071277 C178.358271,88.7220213 178.206079,89.3457447 177.910991,90.0654255" id="Fill-252" fill="#993E3A"></path>
                        <path d="M220.123712,129.936915 C212.201638,129.936915 205.778241,131.523723 205.778241,133.48266 C205.778241,135.439255 212.201638,137.027234 220.123712,137.027234 C228.046947,137.027234 234.470344,135.439255 234.470344,133.48266 C234.470344,131.523723 228.046947,129.936915 220.123712,129.936915" id="Fill-253" fill="#FFC40C"></path>
                        <path d="M220.123712,131.310745 C215.275668,131.310745 211.341932,132.284362 211.341932,133.48266 C211.341932,134.679787 215.275668,135.651064 220.123712,135.651064 C224.974079,135.651064 228.906653,134.679787 228.906653,133.48266 C228.906653,132.284362 224.974079,131.310745 220.123712,131.310745" id="Fill-254" fill="#F79738"></path>
                        <path d="M206.363771,161.896596 C206.726241,160.611702 207.944932,159.834681 209.083462,160.16117 C210.221991,160.486489 210.851668,161.793617 210.488035,163.078511 C210.125565,164.364574 208.908035,165.139255 207.770668,164.815106 C206.630976,164.490957 206.000138,163.18383 206.363771,161.896596" id="Fill-255" fill="#5F1D16"></path>
                        <path d="M208.299271,163.674149 L208.100609,163.644894 C207.809006,163.562979 207.654491,163.320745 207.588271,163.185 C207.453506,162.904149 207.430271,162.563617 207.525535,162.230106 C207.696315,161.620426 208.171476,161.302128 208.553697,161.302128 L208.752359,161.330213 C209.043962,161.412128 209.197315,161.656702 209.263535,161.791277 C209.399462,162.072128 209.421535,162.41266 209.327432,162.74617 C209.156653,163.354681 208.680329,163.674149 208.299271,163.674149" id="Fill-256" fill="#9FD8D4"></path>
                        <path d="M234.897873,157.13383 C232.343153,158.256064 227.206991,160.067553 220.131844,160.390532 C219.545153,160.415106 218.970079,160.426809 218.411271,160.426809 C213.866447,160.426809 210.40555,159.597128 208.219109,158.847021 C206.976021,158.426915 206.018726,157.988085 205.337932,157.638191 L205.350712,157.186489 C207.366373,158.244362 212.401462,160.335532 220.115579,159.985638 C227.283668,159.656809 232.431447,157.798511 234.889741,156.700851 L234.897873,157.13383" id="Fill-257" fill="#CE615A"></path>
                        <path d="M228.838109,140.221915 C228.583682,140.221915 228.418712,140.218404 228.389668,140.218404 L228.242123,140.062766 L228.395476,139.914149 C228.428006,139.914149 231.601947,139.975 232.901962,139.518617 L233.092491,139.612234 L233.001873,139.801809 C231.938859,140.176277 229.777976,140.221915 228.838109,140.221915" id="Fill-258" fill="#CE615A"></path>
                        <path d="M228.843918,141.724468 C228.586006,141.724468 228.418712,141.722128 228.389668,141.722128 L228.242123,141.566489 L228.395476,141.417872 C228.428006,141.417872 231.601947,141.479894 232.901962,141.02 L233.092491,141.113617 L233.001873,141.307872 C231.941182,141.68117 229.787271,141.724468 228.843918,141.724468" id="Fill-259" fill="#CE615A"></path>
                        <path d="M228.843918,143.259787 C228.586006,143.259787 228.418712,143.255106 228.389668,143.255106 L228.242123,143.097128 L228.395476,142.950851 C228.428006,142.950851 231.601947,143.012872 232.901962,142.554149 L233.092491,142.647766 L233.001873,142.839681 C231.941182,143.214149 229.787271,143.259787 228.843918,143.259787" id="Fill-260" fill="#CE615A"></path>
                        <path d="M228.838109,144.765851 C228.583682,144.765851 228.418712,144.763511 228.389668,144.763511 L228.242123,144.607872 L228.395476,144.460426 C228.428006,144.461596 231.601947,144.521277 232.901962,144.064894 L233.092491,144.15617 L233.001873,144.350426 C231.938859,144.724894 229.777976,144.765851 228.838109,144.765851" id="Fill-261" fill="#CE615A"></path>
                        <path d="M228.843918,146.288298 C228.586006,146.288298 228.418712,146.285957 228.389668,146.283617 L228.242123,146.127979 L228.395476,145.979362 C228.428006,145.979362 231.601947,146.041383 232.901962,145.58266 L233.092491,145.676277 L233.001873,145.870532 C231.941182,146.245 229.787271,146.288298 228.843918,146.288298" id="Fill-262" fill="#CE615A"></path>
                        <path d="M228.843918,147.662128 C228.586006,147.662128 228.418712,147.659787 228.389668,147.657447 L228.242123,147.501809 L228.395476,147.353191 C228.428006,147.353191 231.601947,147.415213 232.901962,146.955319 L233.092491,147.048936 L233.001873,147.243191 C231.941182,147.61883 229.787271,147.662128 228.843918,147.662128" id="Fill-263" fill="#CE615A"></path>
                        <path d="M228.843918,149.053511 C228.586006,149.053511 228.418712,149.05117 228.389668,149.05117 L228.242123,148.896702 L228.395476,148.748085 C228.428006,148.750426 231.601947,148.808936 232.901962,148.352553 L233.092491,148.44383 L233.001873,148.638085 C231.941182,149.012553 229.787271,149.053511 228.843918,149.053511" id="Fill-264" fill="#CE615A"></path>
                        <path d="M228.838109,150.357128 C228.583682,150.357128 228.418712,150.354787 228.389668,150.352447 L228.242123,150.199149 L228.395476,150.048191 C228.428006,150.048191 231.601947,150.112553 232.901962,149.65266 L233.092491,149.746277 L233.001873,149.940532 C231.938859,150.315 229.777976,150.357128 228.838109,150.357128" id="Fill-265" fill="#CE615A"></path>
                        <path d="M228.843918,152.146383 C228.586006,152.146383 228.418712,152.141702 228.389668,152.141702 L228.242123,151.986064 L228.395476,151.837447 C228.428006,151.837447 231.601947,151.897128 232.901962,151.439574 L233.092491,151.533191 L233.001873,151.726277 C231.941182,152.100745 229.787271,152.146383 228.843918,152.146383" id="Fill-266" fill="#CE615A"></path>
                        <polyline id="Fill-267" fill="#4D4263" points="143.879418 90.4925532 135.176638 109.748404 132.151403 116.43383 114.542535 155.391383 111.254741 155.865319 129.396859 116.43383 132.468565 109.748404 141.220138 90.7242553 143.879418 90.4925532"></polyline>
                        <polyline id="Fill-268" fill="#F79738" points="111.257065 155.865319 100.330668 159.647447 119.503271 159.985638 117.693241 158.671489 114.620373 155.220532 111.257065 155.865319"></polyline>
                        <polyline id="Fill-269" fill="#CA6428" points="100.330668 159.647447 100.330668 161.673085 119.503271 161.673085 119.503271 159.985638 100.330668 159.647447"></polyline>
                        <polyline id="Fill-270" fill="#263B7F" points="135.176638 109.748404 132.151403 116.43383 129.396859 116.43383 132.468565 109.748404 135.176638 109.748404"></polyline>
                        <polyline id="Fill-271" fill="#263B7F" points="117.077506 149.787234 114.542535 155.391383 111.254741 155.865319 114.052271 149.787234 117.077506 149.787234"></polyline>
                        <path d="M153.001594,62.5338298 C153.001594,62.7667021 152.897035,62.9539362 152.768079,62.9539362 C152.637962,62.9539362 152.532241,62.7667021 152.532241,62.5338298 C152.532241,62.3032979 152.637962,62.1148936 152.768079,62.1148936 C152.897035,62.1148936 153.001594,62.3032979 153.001594,62.5338298" id="Fill-272" fill="#993E3A"></path>
                        <path d="M152.445109,69.9412766 C152.445109,70.1741489 152.34055,70.361383 152.209271,70.361383 C152.080315,70.361383 151.975756,70.1741489 151.975756,69.9412766 C151.975756,69.7107447 152.080315,69.5223404 152.209271,69.5223404 C152.34055,69.5223404 152.445109,69.7107447 152.445109,69.9412766" id="Fill-273" fill="#993E3A"></path>
                        <path d="M153.924035,76.505 C153.954241,76.7355319 153.874079,76.9368085 153.745123,76.9531915 C153.616168,76.9695745 153.489535,76.7975532 153.459329,76.5670213 C153.429123,76.3364894 153.508123,76.1375532 153.639403,76.1211702 C153.766035,76.1047872 153.893829,76.2768085 153.924035,76.505" id="Fill-274" fill="#993E3A"></path>
                        <path d="M155.634153,82.6848936 C155.663197,82.9142553 155.584197,83.1155319 155.454079,83.1307447 C155.326285,83.1494681 155.198491,82.9762766 155.168285,82.7445745 C155.139241,82.516383 155.218241,82.3174468 155.347197,82.2987234 C155.476153,82.2811702 155.603947,82.4543617 155.634153,82.6848936" id="Fill-275" fill="#993E3A"></path>
                        <path d="M156.806373,87.2791489 C156.836579,87.5085106 156.756418,87.7062766 156.627462,87.725 C156.500829,87.741383 156.370712,87.5670213 156.341668,87.3388298 C156.312623,87.1106383 156.391623,86.9093617 156.520579,86.8929787 C156.648373,86.8754255 156.777329,87.0462766 156.806373,87.2791489" id="Fill-276" fill="#993E3A"></path>
                        <path d="M227.080359,159.081064 C227.783226,156.585 230.147418,155.076596 232.358256,155.709681 C234.570256,156.342766 235.793594,158.879787 235.087241,161.375851 C234.384373,163.868404 232.020182,165.377979 229.809344,164.744894 C227.597344,164.110638 226.376329,161.574787 227.080359,159.081064" id="Fill-277" fill="#5F1D16"></path>
                        <path d="M230.836344,163.674149 C230.601668,163.674149 230.365829,163.640213 230.138123,163.575851 C229.403888,163.366383 228.799771,162.836277 228.4373,162.079149 C228.051594,161.279894 227.980726,160.330851 228.242123,159.412234 C228.677785,157.862872 229.948756,156.781596 231.332418,156.781596 C231.568256,156.781596 231.802932,156.815532 232.029476,156.879894 C232.763712,157.089362 233.367829,157.620638 233.7303,158.371915 C234.117168,159.177021 234.186873,160.122553 233.926638,161.04117 C233.489815,162.591702 232.218844,163.674149 230.836344,163.674149" id="Fill-278" fill="#9FD8D4"></path>
                        <path d="M211.420932,133.775213 C211.209491,133.729574 211.050329,133.54117 211.050329,133.310638 C211.050329,133.050851 211.261771,132.840213 211.520844,132.840213 L211.733447,132.840213 C211.479021,133.04266 211.341932,133.259149 211.341932,133.48266 C211.341932,133.582128 211.368653,133.679255 211.420932,133.775213" id="Fill-279" fill="#E68708"></path>
                        <path d="M226.410021,133.785745 L211.520844,133.785745 C211.487153,133.785745 211.453462,133.782234 211.420932,133.775213 C211.368653,133.679255 211.341932,133.582128 211.341932,133.48266 C211.341932,133.259149 211.479021,133.04266 211.733447,132.840213 L226.410021,132.840213 C226.670256,132.840213 226.880535,133.050851 226.880535,133.310638 C226.880535,133.576277 226.670256,133.785745 226.410021,133.785745" id="Fill-280" fill="#DF6826"></path>
                        <path d="M226.882859,133.48266 L225.019388,133.48266 L224.479168,130.070319 C224.479168,130.070319 217.039226,128.993723 213.151962,130.410851 L213.016035,133.48266 L211.006182,133.48266 L211.230403,130.156915 L211.344256,128.517447 C211.344256,128.517447 221.464388,127.233723 226.426285,128.517447 L226.540138,129.735638 L226.882859,133.48266" id="Fill-281" fill="#9B3C36"></path>
                        <path d="M226.882859,133.48266 L225.019388,133.48266 L224.479168,130.070319 C224.479168,130.070319 217.039226,128.993723 213.151962,130.410851 L213.016035,133.48266 L211.006182,133.48266 L211.230403,130.156915 C212.453741,129.706383 215.341888,128.821702 218.965432,128.92234 C222.333388,129.015957 225.140212,129.46883 226.540138,129.735638 L226.882859,133.48266" id="Fill-282" fill="#872D2B"></path>
                        <path d="M95.8334764,115.232021 L95.9670793,115.936489 C95.9264176,115.711809 95.8869176,115.485957 95.8450941,115.258936 L95.8334764,115.232021" id="Fill-283" fill="#A89E9E"></path>
                        <path d="M98.2267117,125.869255 L97.4471676,125.869255 C97.4471676,125.869255 97.7190205,125.869255 98.2267117,125.871596 L98.2267117,125.869255" id="Fill-284" fill="#A89E9E"></path>
                        <path d="M199.672006,125.898511 C200.064682,125.891489 200.274962,125.880957 200.280771,125.869255 L199.676653,125.869255 L199.672006,125.898511" id="Fill-285" fill="#A89E9E"></path>
                        <polyline id="Fill-286" fill="#A89E9E" points="216.830109 114.429255 216.820815 114.40234 216.827785 114.429255 216.830109 114.429255"></polyline>
                        <path d="M202.007153,115.136064 C202.155859,114.62 202.34755,114.128511 202.571771,113.661596 C202.265065,114.057128 201.945579,114.761596 201.624932,115.732872 L201.867741,115.711809 C201.911888,115.519894 201.95255,115.327979 202.007153,115.136064" id="Fill-287" fill="#A89E9E"></path>
                        <path d="M215.636976,111.865319 C216.365403,113.193511 216.758079,114.23266 216.820815,114.40234 C216.565226,113.479043 216.163256,112.623617 215.636976,111.865319" id="Fill-288" fill="#B9B0B0"></path>
                        <polyline id="Fill-289" fill="#FFC10D" points="208.630373 138.578936 213.286726 139.120745 211.341932 158.561489 208.630373 157.332766 208.630373 138.578936"></polyline>
                        <path d="M236.178138,41.7578723 L235.959726,41.7192553 C235.649535,40.3934043 234.708506,36.6791489 233.635035,34.9741489 L233.667565,34.8348936 L233.804653,34.8641489 C234.933888,36.6580851 235.88305,40.4940426 236.178138,41.7578723" id="Fill-506" fill="#044738"></path>
                        <path d="M26.873447,28.7334043 C26.7967705,29.7784043 24.4197999,32.6618085 23.614697,33.456383 L23.6112117,33.4528723 C23.6030793,33.4318085 22.9397117,31.3734043 22.1961823,30.0089362 C21.9893882,29.6321277 21.7814323,29.3032979 21.5711529,29.0938298 C20.7346823,28.2255319 19.1337705,27.8124468 17.8116823,27.6217021 C17.6014029,27.593617 17.4004176,27.5690426 17.2122117,27.5491489 C16.9089911,27.516383 16.6324911,27.4918085 16.4082705,27.4847872 C15.9772558,27.4555319 15.7112117,27.4602128 15.6995941,27.4637234 C15.6670646,27.4882979 14.1997558,27.3502128 13.1320941,30.1142553 C12.0586235,32.8771277 11.3150941,38.2975532 11.3150941,38.2975532 C11.3150941,38.2975532 4.34102052,31.427234 4.52457935,29.7409574 C4.70232935,28.1038298 6.53327052,29.6684043 6.64131464,29.7655319 C6.57393229,29.6438298 5.27856464,27.4730851 5.59107935,26.7908511 C5.91985876,26.086383 7.73569699,26.9289362 7.73569699,26.9289362 C7.73569699,26.9289362 5.96516758,23.4171277 6.99100582,22.7571277 C8.01219699,22.1041489 9.08218229,23.9788298 9.08218229,23.9788298 C9.08218229,23.9788298 8.94160876,18.6368085 11.5486088,18.4448936 C14.1497999,18.26 14.3844764,20.6051064 14.3844764,20.6051064 C14.3844764,20.6051064 16.6685058,17.2793617 17.5491235,17.5590426 C18.4088293,17.8340426 17.9441235,21.2487234 17.9232117,21.395 C18.0312558,21.3060638 19.7495058,19.8397872 21.2749029,18.9328723 C21.6455058,18.7128723 22.0010058,18.5268085 22.3193293,18.4004255 C22.7294323,18.2354255 23.0802852,18.1698936 23.3172852,18.26 C24.3477705,18.661383 23.0512411,20.7338298 22.6620499,21.3306383 C22.9304176,20.9947872 23.5891382,20.2774468 24.0619764,20.7911702 C24.6637705,21.4429787 23.1767117,23.2790426 23.5391823,23.1409574 C24.9007705,22.6190426 25.5002411,22.8542553 25.6431382,23.9788298 C25.7837117,25.1010638 23.4102264,27.4637234 23.4102264,27.4637234 C24.8055058,27.0190426 26.5272411,27.7281915 26.8490499,28.5215957 L26.873447,28.7334043" id="Fill-643" fill="#6E1D14"></path>
                        <path d="M22.3193293,18.4004255 C20.494197,20.6343617 17.9987264,25.8429787 17.2122117,27.5491489 C16.9089911,27.516383 16.6324911,27.4918085 16.4082705,27.4847872 C15.9772558,27.4555319 15.7112117,27.4602128 15.6995941,27.4637234 C15.6670646,27.4882979 14.1997558,27.3502128 13.1320941,30.1142553 C12.0586235,32.8771277 11.3150941,38.2975532 11.3150941,38.2975532 C11.3150941,38.2975532 4.34102052,31.427234 4.52457935,29.7409574 C4.70232935,28.1038298 6.53327052,29.6684043 6.64131464,29.7655319 C6.57393229,29.6438298 5.27856464,27.4730851 5.59107935,26.7908511 C5.91985876,26.086383 7.73569699,26.9289362 7.73569699,26.9289362 C7.73569699,26.9289362 5.96516758,23.4171277 6.99100582,22.7571277 C8.01219699,22.1041489 9.08218229,23.9788298 9.08218229,23.9788298 C9.08218229,23.9788298 8.94160876,18.6368085 11.5486088,18.4448936 C14.1497999,18.26 14.3844764,20.6051064 14.3844764,20.6051064 C14.3844764,20.6051064 16.6685058,17.2793617 17.5491235,17.5590426 C18.4088293,17.8340426 17.9441235,21.2487234 17.9232117,21.395 C18.0312558,21.3060638 19.7495058,19.8397872 21.2749029,18.9328723 C21.6455058,18.7128723 22.0010058,18.5268085 22.3193293,18.4004255" id="Fill-644" fill="#5B1511"></path>
                        <path d="M23.7471382,46.4211702 C23.7320352,46.8295745 23.7157705,47.3479787 23.6867264,47.9365957 C23.5659029,50.9253191 23.3172852,55.7185106 22.9582999,57.2585106 L14.4483735,59.2151064 C14.4483735,59.2151064 13.2180646,52.47 12.3084029,48.5884043 C12.1759617,48.0091489 12.0481676,47.4942553 11.9308293,47.0764894 C13.6397852,46.4574468 15.1942264,46.1368085 16.1062117,45.9788298 C19.0652264,45.468617 21.7198588,45.8571277 23.7471382,46.4211702" id="Fill-645" fill="#7CC2C7"></path>
                        <path d="M25.1238293,46.8588298 C24.7787852,47.1981915 24.3082705,47.5796809 23.6867264,47.9365957 C22.528447,48.6129787 20.8473735,49.2203191 18.4657558,49.3584043 C15.7844029,49.5117021 13.739697,49.0904255 12.3084029,48.5884043 C11.4556676,48.2923404 10.8201823,47.96 10.3984617,47.7048936 C10.9131235,47.4661702 11.4277852,47.2590426 11.9308293,47.0764894 C13.6397852,46.4574468 15.1942264,46.1368085 16.1062117,45.9788298 C19.0652264,45.468617 21.7198588,45.8571277 23.7471382,46.4211702 C24.246697,46.5580851 24.7044323,46.7078723 25.1238293,46.8588298" id="Fill-646" fill="#449FA1"></path>
                        <path d="M21.6455058,43.8162766 C21.5630205,44.1848936 21.4480058,44.7231915 21.2911676,45.3317021 C20.7300352,47.5434043 19.6983882,50.7509574 18.4657558,50.7076596 C17.0112264,50.6585106 16.4431235,47.8394681 16.0411529,45.6347872 C15.9528588,45.1397872 15.872697,44.6775532 15.7902117,44.2855319 C17.0960352,44.3381915 18.6016823,44.2293617 19.9423588,44.1603191 C20.5011676,44.1275532 21.0762411,44.0023404 21.6455058,43.8162766" id="Fill-647" fill="#F1B5AB"></path>
                        <path d="M21.6455058,43.8162766 C21.5630205,44.1848936 21.4480058,44.7231915 21.2911676,45.3317021 C19.3672852,45.9659574 17.2412558,45.8091489 16.0411529,45.6347872 C15.9528588,45.1397872 15.872697,44.6775532 15.7902117,44.2855319 C17.0960352,44.3381915 18.6016823,44.2293617 19.9423588,44.1603191 C20.5011676,44.1275532 21.0762411,44.0023404 21.6455058,43.8162766" id="Fill-648" fill="#F5948D"></path>
                        <path d="M25.1482264,41.7531915 C24.8101529,42.7630851 23.0675058,44.1439362 21.1982264,44.7594681 C20.6754323,44.9303191 20.1433441,45.0473404 19.625197,45.0754255 C18.3867558,45.1397872 16.9903146,45.2415957 15.7844029,45.193617 C15.6717117,45.1889362 15.5590205,45.1807447 15.4463293,45.1725532 C14.5087852,45.1117021 13.7118146,44.9455319 13.2401382,44.5734043 C12.1225205,43.7015957 11.6880205,41.6396809 11.3150941,38.2975532 C11.3150941,38.2975532 11.7182264,32.747234 12.1225205,30.6537234 C12.5302999,28.5578723 13.8256676,27.7843617 15.1163882,27.4847872 C15.4707264,27.4040426 15.7228293,27.3619149 15.9087117,27.3548936 C16.4082705,27.3221277 16.4082705,27.4847872 16.4082705,27.4847872 C16.6487558,27.4964894 16.9380352,27.516383 17.2598441,27.5491489 C18.6562852,27.703617 20.6103735,28.0956383 21.5711529,29.0938298 C22.5237999,30.0732979 23.6030793,33.423617 23.6112117,33.4528723 C24.4755646,36.5597872 25.4502852,40.842766 25.1482264,41.7531915" id="Fill-649" fill="#F1B5AB"></path>
                        <path d="M26.873447,28.7310638 C26.794447,29.777234 24.4174764,32.6629787 23.6135352,33.4575532 L23.6100499,33.4540426 C23.6030793,33.4318085 22.9408735,31.3734043 22.1961823,30.0101064 C23.5810058,29.7432979 25.7198146,29.2787234 26.873447,28.7310638" id="Fill-650" fill="#5B1511"></path>
                        <path d="M15.4463293,45.1725532 C14.5087852,45.1117021 13.7118146,44.9455319 13.2401382,44.5734043 C12.1225205,43.7015957 11.6880205,41.6396809 11.3150941,38.2975532 C11.3150941,38.2975532 11.7182264,32.747234 12.1225205,30.6537234 C12.5302999,28.5578723 13.8256676,27.7843617 15.1163882,27.4847872 C15.4707264,27.4040426 15.7228293,27.3619149 15.9087117,27.3548936 L16.4082705,27.4847872 C16.6487558,27.4964894 16.9380352,27.516383 17.2598441,27.5491489 C15.6322117,30.3611702 13.3470205,36.4860638 13.1762411,38.2132979 C13.0252117,39.7603191 14.0347852,43.5237234 15.4463293,45.1725532" id="Fill-651" fill="#F5948D"></path>
                        <path d="M10.2067705,73.512766 C10.1661088,73.7397872 10.1242852,73.9820213 10.0789764,74.2382979 C9.7629764,76.0848936 9.34938817,78.5680851 8.94625582,81.1331915 L8.90210876,81.1612766 C8.90210876,81.1612766 8.0447264,74.7812766 7.74266758,71.2355319 C7.44293229,67.6909574 5.22977052,64.6519149 4.0749764,62.1687234 C2.91669699,59.6890426 0.0541087572,53.5103191 0.000667580726,46.5709574 C-0.051611831,39.6351064 2.98407935,33.3545745 2.98407935,33.3545745 C3.39882935,34.407766 3.99481464,35.2152128 4.67444699,35.8342553 C7.06419699,38.021383 10.4588735,37.8809574 10.4588735,37.8809574 C8.54777052,40.6801064 8.29799111,48.8517021 8.29799111,48.8517021 C8.72203523,48.5720213 9.16002052,48.3251064 9.59800582,48.0934043 C10.0998882,49.4344681 11.4033882,53.0164894 11.5637117,57.2585106 C11.7658588,62.5244681 10.9131235,69.5141489 10.2067705,73.512766" id="Fill-652" fill="#7CC2C7"></path>
                        <path d="M46.8906529,37.9043617 C46.8906529,37.9043617 45.1979617,42.3687234 43.2380646,44.8004255 C41.2804911,47.2309574 37.8288882,51.1605319 35.5959764,53.5103191 C33.8266088,55.3744681 31.7238146,57.9664894 31.3659911,59.587234 C31.0767117,60.8885106 29.5071676,66.252766 28.8995646,68.3310638 C28.8995646,68.3310638 26.8362705,60.0939362 25.9719176,58.0682979 L27.0140205,47.6241489 C27.4403882,47.8137234 27.7052705,47.9401064 27.7831088,47.9401064 C27.9352999,47.9401064 29.0807999,46.9231915 30.5097705,45.6184043 C32.6880793,43.6255319 35.5274323,40.9551064 36.5033146,40.1932979 C38.1100352,38.9259574 41.6627117,36.0565957 41.6627117,36.0565957 C41.9392117,36.5632979 42.3295646,36.9401064 42.772197,37.2197872 C44.4521088,38.2811702 46.8906529,37.9043617 46.8906529,37.9043617" id="Fill-653" fill="#7CC2C7"></path>
                        <path d="M46.4886823,87.1703191 C46.0623146,88.4587234 45.3478293,90.8248936 44.5136823,93.6275532 C42.0797852,101.831915 38.6653588,113.824255 38.6653588,113.824255 L37.1132411,114.586064 L36.9726676,114.653936 C36.9726676,114.653936 34.7606676,109.792872 34.4899764,103.513511 C34.2808588,98.6793617 35.2706823,93.4403191 35.7365499,91.2894681 C35.8747999,90.6458511 35.9665793,90.277234 35.9665793,90.277234 C35.6296676,90.3743617 35.2637117,90.4808511 34.8768441,90.5931915 C29.8928735,92.0465957 21.3504176,94.6655319 21.3504176,94.6655319 C21.3504176,94.6655319 18.8340352,103.091064 16.7533146,110.707979 C15.8366823,114.061809 15.003697,117.263511 14.5134323,119.51617 C14.0870646,121.451702 13.4109176,124.730638 12.6429911,128.513936 L12.6395058,128.526809 C12.5953588,128.762021 12.5465646,128.996064 12.4977705,129.231277 C10.3577999,139.765532 7.6102264,153.681702 7.6102264,153.681702 C7.35812346,154.139255 6.41941758,154.175532 5.9744617,154.16383 C5.82924111,154.16383 5.73165287,154.155638 5.73165287,154.155638 C5.73165287,154.155638 1.10782935,137.071702 1.91060876,131.600957 C2.25332935,129.264043 2.9527117,127.274681 3.6404764,125.760426 C4.56059405,123.730106 5.46328523,122.555213 5.46328523,122.555213 C5.5759764,121.184894 5.73165287,118.863191 5.90591758,116.055851 C6.45659405,107.224255 7.22452052,93.6357447 7.64275582,90.1765957 C7.91693229,87.8946809 8.38628523,84.7304255 8.86957935,81.6317021 L8.86957935,81.6281915 L8.91488817,81.3239362 L8.94625582,81.1331915 C9.01479993,80.6955319 9.08218229,80.261383 9.15188817,79.8319149 L9.19952052,79.5335106 C9.56199111,77.2843617 9.91168229,75.201383 10.1765646,73.6707447 L10.1765646,73.6660638 L10.2067705,73.512766 C10.9131235,69.5141489 11.7658588,62.5244681 11.5637117,57.2585106 C11.4033882,53.0164894 10.0998882,49.4344681 9.59800582,48.0934043 C9.86404993,47.9564894 10.1324176,47.8265957 10.3984617,47.7048936 C10.9131235,47.4661702 11.4277852,47.2590426 11.9308293,47.0764894 C12.0481676,47.4942553 12.1759617,48.0091489 12.3084029,48.5884043 C13.2180646,52.47 14.4483735,59.2151064 14.4483735,59.2151064 L22.9582999,57.2585106 C23.3172852,55.7185106 23.5659029,50.9253191 23.6867264,47.9365957 C23.7157705,47.3479787 23.7320352,46.8295745 23.7471382,46.4211702 C24.246697,46.5580851 24.7044323,46.7078723 25.1238293,46.8588298 C25.9196382,47.1385106 26.5597705,47.4217021 27.0140205,47.6241489 L25.9719176,58.0682979 C26.8362705,60.0939362 28.8995646,68.3310638 28.8995646,68.3310638 L28.8995646,68.3345745 C28.4185941,69.9915957 27.5600499,76.3446809 27.1743441,79.2982979 C27.1592411,79.4270213 27.1429764,79.5487234 27.1290352,79.662234 C27.110447,79.8167021 27.090697,79.9582979 27.0779176,80.0835106 C27.0593293,80.2251064 27.0407411,80.3479787 27.0302852,80.448617 C26.9977558,80.6920213 26.9814911,80.8254255 26.9814911,80.8254255 C30.6689323,79.3743617 35.4949029,78.265 39.6877117,77.5804255 C44.4811529,76.7987234 48.440447,76.5752128 48.9016676,77.0409574 C49.7741529,77.9209574 48.1662705,82.1056383 46.4886823,87.1703191" id="Fill-654" fill="#EE7123"></path>
                        <polyline id="Fill-655" fill="#A45B52" points="23.120947 18.6321277 23.0953882 18.6684043 23.120947 18.6321277"></polyline>
                        <path d="M51.5167999,16.8779787 C51.3158146,17.0160638 51.3158146,24.1052128 50.5804176,28.4244681 C49.842697,32.747234 46.8906529,37.9043617 46.8906529,37.9043617 C45.0527411,38.3139362 43.7573735,37.8762766 42.9209029,37.3297872 C42.0437705,36.7552128 41.6627117,36.0565957 41.6627117,36.0565957 C41.6627117,36.0565957 41.9299176,33.627234 43.3391382,27.7515957 C44.7460352,21.8771277 48.1662705,16.0026596 48.1662705,16.0026596 C47.4947705,13.8389362 47.4785058,9.98191489 47.630697,9.78765957 L47.6841382,9.73031915 C48.4067558,9.00244681 49.2397411,12.4908511 49.2397411,12.4908511 C49.2397411,12.4908511 50.9126823,7.55957447 51.7166235,8.10255319 C52.5228882,8.64085106 50.8476235,11.0725532 50.711697,11.275 L50.711697,11.2785106 C50.8325205,11.1369149 52.6181529,8.7262766 53.0607852,8.97787234 C53.4708882,9.21659574 51.8130499,11.8507447 51.2681823,12.6242553 C51.837447,11.9303191 53.6846529,9.78765957 54.0657117,9.78765957 C54.5211235,9.78765957 52.3207411,13.6774468 52.1917852,13.9009574 C52.3404911,13.733617 54.6140646,11.1696809 54.9347117,12.0157447 C55.273947,12.8957447 51.7166235,16.7445745 51.5167999,16.8779787" id="Fill-656" fill="#F1B5AB"></path>
                        <path d="M13.8732999,31.1440426 C15.0989617,30.9345745 17.0844176,30.8643617 16.7103293,30.4898936 C16.3397264,30.1142553 15.734447,29.7397872 14.4321088,29.9270213 C13.1297705,30.1142553 12.4327117,31.4260638 12.4327117,31.4260638 C12.4327117,31.4260638 12.9950058,31.2961702 13.8732999,31.1440426" id="Fill-657" fill="#6E1D14"></path>
                        <path d="M19.407947,30.2862766 C18.9490499,30.2043617 18.6260793,29.1956383 20.3849911,29.2342553 C22.1439029,29.2728723 22.7317558,30.5214894 22.7317558,30.5214894 C22.7317558,30.5214894 20.0585352,30.4021277 19.407947,30.2862766" id="Fill-658" fill="#6E1D14"></path>
                        <path d="M5.73165287,154.154468 C5.73165287,154.154468 3.85540287,156.585 3.65325582,157.260213 L9.28549111,157.260213 C9.28549111,157.260213 7.84954993,154.567553 7.4952117,153.820957 L5.73165287,154.154468" id="Fill-659" fill="#272B6A"></path>
                        <path d="M36.9715058,114.652766 L37.5732999,116.273511 L44.8807999,116.273511 C44.8807999,116.273511 42.8035646,110.669362 36.9715058,114.652766" id="Fill-660" fill="#272B6A"></path>
                        <path d="M16.7533146,110.707979 C15.8366823,114.061809 15.003697,117.263511 14.5134323,119.51617 C14.0615058,121.574574 13.3261088,125.148404 12.4977705,129.231277 C10.8039176,130.555957 8.40719699,132.362766 7.89718229,132.362766 C7.30235876,132.362766 4.87194699,128.028298 3.6404764,125.760426 C4.56059405,123.730106 5.46328523,122.555213 5.46328523,122.555213 C5.5759764,121.184894 5.73165287,118.863191 5.90591758,116.055851 C7.00727052,115.654468 9.48879993,114.670319 12.5709617,112.965319 C14.3960941,111.953085 15.7797558,111.219362 16.7533146,110.707979" id="Fill-661" fill="#2B91BE"></path>
                        <path d="M46.4886823,87.1703191 C46.0623146,88.4587234 45.3478293,90.8248936 44.5136823,93.6275532 C40.6531382,91.613617 37.0690941,91.322234 35.7365499,91.2894681 C35.8747999,90.6458511 35.9665793,90.277234 35.9665793,90.277234 C35.6296676,90.3743617 35.2637117,90.4808511 34.8768441,90.5931915 C36.1919617,85.7637234 38.5038735,80.2578723 39.6877117,77.5804255 C44.4811529,76.7987234 48.440447,76.5752128 48.9016676,77.0409574 C49.7741529,77.9209574 48.1662705,82.1056383 46.4886823,87.1703191" id="Fill-662" fill="#2B91BE"></path>
                        <path d="M12.0400352,80.2660638 L12.337447,80.3187234 L12.3165352,80.6229787 L12.0191235,80.5738298 C10.7400205,80.3432979 9.7827264,80.0718085 9.15188817,79.8319149 L9.19952052,79.5335106 C9.79085876,79.7558511 10.7400205,80.0308511 12.0400352,80.2660638" id="Fill-663" fill="#6E2B28"></path>
                        <path d="M22.6887705,80.4614894 L22.6690205,80.7762766 L22.3646382,80.817234 C21.3097558,80.9506383 20.099197,81.0395745 18.7201823,81.0594681 C18.5017705,81.0641489 18.2868441,81.0641489 18.0719176,81.0641489 C16.3757411,81.0641489 14.8991382,80.9670213 13.6397852,80.8125532 L13.3423735,80.7762766 L13.3876823,80.4720213 L13.6874176,80.5094681 C15.0873441,80.6791489 16.7695793,80.7856383 18.7155352,80.756383 C20.1084911,80.7364894 21.3271823,80.6428723 22.3832264,80.5047872 C22.488947,80.4930851 22.5888588,80.4767021 22.6887705,80.4614894" id="Fill-664" fill="#6E2B28"></path>
                        <path d="M27.1743441,79.2982979 C27.1592411,79.4270213 27.1429764,79.5487234 27.1290352,79.662234 C26.3622705,79.9746809 25.2190941,80.3479787 23.6309617,80.6264894 L23.3289029,80.6791489 L23.3289029,80.3631915 L23.6309617,80.3105319 C25.2795058,80.0109574 26.4354617,79.617766 27.1743441,79.2982979" id="Fill-665" fill="#6E2B28"></path>
                        <path d="M12.199197,82.2589362 L12.1806088,82.5596809 L11.883197,82.4941489 L11.883197,82.4894681 C10.5959617,82.1945745 9.5492117,81.8669149 8.86957935,81.6317021 L8.86957935,81.6281915 L8.91488817,81.3239362 C9.57825582,81.5591489 10.6145499,81.8856383 11.9075941,82.186383 L11.9075941,82.1898936 L12.199197,82.2589362" id="Fill-666" fill="#6E2B28"></path>
                        <path d="M22.2589176,82.406383 C22.3646382,82.3771277 22.469197,82.3478723 22.5691088,82.3162766 L22.5458735,82.6357447 L22.2391676,82.7211702 C21.1134176,83.017234 19.8064323,83.2231915 18.3298293,83.2360638 L18.1160646,83.2395745 C16.4036235,83.2395745 14.7713441,83.05 13.3377264,82.7937234 L13.0403146,82.736383 L13.0891088,82.4414894 L13.3830352,82.4941489 L13.3876823,82.4941489 C14.8596382,82.7656383 16.5511676,82.956383 18.3251823,82.9353191 C19.8180499,82.923617 21.1320058,82.7094681 22.2589176,82.406383" id="Fill-667" fill="#6E2B28"></path>
                        <path d="M27.0779176,80.0835106 L27.0302852,80.448617 C26.6596823,80.7435106 25.4897852,81.5989362 23.6309617,82.2835106 L23.3289029,82.3888298 L23.3289029,82.0728723 L23.6309617,81.9640426 C25.7744176,81.157766 26.9373441,80.1314894 26.9570941,80.1162766 L27.0779176,80.0835106" id="Fill-668" fill="#6E2B28"></path>
                        <path d="M13.3423735,80.7762766 L13.0891088,82.4414894 L13.0403146,82.736383 L12.8474617,84.0130851 L12.0923146,83.8270213 L12.1806088,82.5596809 L12.199197,82.2589362 L12.3165352,80.6229787 L12.337447,80.3187234 L12.3560352,80.0519149 L13.4515793,80.0519149 L13.3876823,80.4720213 L13.3423735,80.7762766 Z M13.739697,79.8003191 L13.6235205,79.7476596 L12.2154617,79.7476596 L12.0667558,79.8857447 L12.0400352,80.2660638 L12.0191235,80.5738298 L11.9075941,82.186383 L11.9075941,82.1898936 L11.883197,82.4894681 L11.883197,82.4941489 L11.7809617,83.9370213 L11.8936529,84.095 L12.9357558,84.3454255 L12.9729323,84.353617 L13.0565793,84.3255319 L13.1216382,84.2237234 L13.3830352,82.4941489 L13.3876823,82.4941489 L13.6397852,80.8125532 L13.6874176,80.5094681 L13.7757117,79.9220213 L13.739697,79.8003191 L13.739697,79.8003191 Z" id="Fill-669" fill="#6E2B28"></path>
                        <path d="M23.3289029,83.3179787 L22.488947,83.5028723 L22.5458735,82.6357447 L22.5691088,82.3162766 L22.6690205,80.7762766 L22.6887705,80.4614894 L22.7178146,80.0519149 L23.3289029,80.0519149 L23.3289029,83.3179787 Z M23.4787705,79.7476596 L22.5772411,79.7476596 L22.4227264,79.8892553 L22.3832264,80.5047872 L22.3646382,80.817234 L22.2589176,82.406383 L22.2391676,82.7211702 L22.1764323,83.6807447 L22.2240646,83.8059574 L22.3239764,83.8434043 L22.3565058,83.8434043 L23.5101382,83.5882979 L23.6309617,83.4373404 L23.6309617,79.8974468 L23.4787705,79.7476596 Z M22.3646382,80.817234 L22.2589176,82.406383 C22.3646382,82.3771277 22.469197,82.3478723 22.5691088,82.3162766 L22.6690205,80.7762766 L22.3646382,80.817234 L22.3646382,80.817234 Z" id="Fill-670" fill="#6E2B28"></path>
                        <path d="M16.9519764,38.4110638 L16.8555499,38.3373404 L16.9415205,38.2273404 L16.9403588,38.2132979 L17.0019323,38.1980851 L17.0042558,38.2039362 C17.1785205,38.1430851 17.5409911,38.0506383 18.282197,37.8587234 C19.3823882,37.5743617 19.9423588,37.5895745 20.2235058,37.6609574 C19.4021382,35.5007447 18.1137411,31.9128723 18.2938146,31.0621277 L18.4134764,30.9837234 L18.4901529,31.1042553 C18.3658441,31.6928723 19.1035646,34.1678723 20.4651529,37.7264894 L20.5011676,37.8247872 L20.4558588,37.9488298 L20.3292264,37.9230851 C20.3269029,37.9230851 20.000447,37.6246809 18.3321529,38.0553191 C17.4770941,38.2764894 17.1622558,38.3595745 17.0484029,38.39 L17.0495646,38.3958511 L16.9519764,38.4110638" id="Fill-671" fill="#6E2B28"></path>
                        <path d="M16.7870058,40.6871277 C17.7512705,40.5747872 17.7512705,40.5747872 20.9925941,40.1359574 C20.9925941,40.1359574 20.8566676,42.091383 18.9490499,42.278617 C17.0425941,42.4658511 16.7870058,40.6871277 16.7870058,40.6871277" id="Fill-672" fill="#FFFFFF"></path>
                        <path d="M16.2781529,33.4575532 C16.2781529,34.1748936 16.0202411,34.7553191 15.6972705,34.7553191 C15.3777852,34.7553191 15.1175499,34.1748936 15.1175499,33.4575532 C15.1175499,32.7402128 15.3777852,32.1597872 15.6972705,32.1597872 C16.0202411,32.1597872 16.2781529,32.7402128 16.2781529,33.4575532" id="Fill-673" fill="#1E1724"></path>
                        <path d="M21.4270941,32.8794681 C21.4270941,33.5418085 21.1866088,34.0812766 20.889197,34.0812766 C20.5917852,34.0812766 20.3512999,33.5418085 20.3512999,32.8794681 C20.3512999,32.2159574 20.5917852,31.6788298 20.889197,31.6788298 C21.1866088,31.6788298 21.4270941,32.2159574 21.4270941,32.8794681" id="Fill-674" fill="#1E1724"></path>
                        <path d="M24.9716382,9.11478723 L24.9216823,9.18031915 C24.2838735,10.0193617 21.4875058,11.7489362 21.4875058,11.7489362 C21.4875058,11.7489362 21.3295058,12.2544681 21.0657852,13.073617 L21.0657852,13.0771277 C20.4128735,15.0746809 19.1233146,18.9328723 17.9325058,21.8080851 C16.2584029,25.8593617 10.4588735,37.8809574 10.4588735,37.8809574 C7.25240287,38.0588298 5.3227117,36.8148936 4.22368229,35.5838298 C3.27103523,34.5095745 2.9527117,33.4481915 2.98407935,33.3545745 C3.04913817,33.1521277 5.80019699,27.208617 9.08218229,22.4856383 C12.3688146,17.7568085 17.2633293,12.0847872 17.2633293,12.0847872 C15.9877117,8.10957447 16.8299911,3.5562766 17.6711088,3.30585106 L17.9325058,3.37489362 C18.2008735,3.60542553 18.2729029,4.36255319 18.2508293,5.01904255 C18.4785352,4.24202128 18.8677264,3.33042553 19.2743441,3.35734043 C19.9516529,3.40297872 19.7820352,6.23489362 19.7495058,6.68893617 C19.8134029,6.27234043 20.2165352,3.92957447 20.948447,4.1156383 C21.7523882,4.31808511 20.948447,7.90010638 21.0169911,8.91234043 C21.0843735,9.92574468 22.5574911,9.04691489 22.5574911,9.04691489 C24.5673441,7.55957447 24.9716382,9.11478723 24.9716382,9.11478723" id="Fill-675" fill="#F1B5AB"></path>
                        <path d="M18.2589617,38.3139362 C16.5081823,38.5655319 14.5250499,40.0938298 13.6874176,41.0311702 C13.6874176,41.0311702 17.7036382,40.6052128 19.6867705,40.3278723 C21.9220058,40.0154255 23.1767117,39.7614894 23.1767117,39.7614894 C23.1767117,39.7614894 22.1671382,37.7498936 18.2589617,38.3139362" id="Fill-676" fill="#6E1D14"></path>
                        <path d="M18.0486823,12.7939362 C17.6989911,13.348617 12.1190352,19.6291489 9.3517117,24.5428723 C7.34534405,28.1085106 5.23441758,33.1076596 4.22368229,35.5838298 C3.27103523,34.5095745 2.9527117,33.4481915 2.98407935,33.3545745 C3.04913817,33.1521277 5.80019699,27.208617 9.08218229,22.4856383 C12.3688146,17.7568085 17.2633293,12.0847872 17.2633293,12.0847872 C15.9877117,8.10957447 16.8299911,3.5562766 17.6711088,3.30585106 C17.4004176,4.57319149 16.9542999,7.19095745 17.3957705,8.79414894 C17.9987264,10.9707447 18.4030205,12.2392553 18.0486823,12.7939362" id="Fill-677" fill="#F5948D"></path>
                        <path d="M24.9216823,9.18031915 C24.2838735,10.0193617 21.4875058,11.7489362 21.4875058,11.7489362 C21.4875058,11.7489362 21.3295058,12.2544681 21.0657852,13.073617 C21.1773146,11.9993617 21.2865205,10.9508511 21.3097558,10.8701064 C21.3469323,10.7367021 23.6077264,9.96202128 24.9216823,9.18031915" id="Fill-678" fill="#F5948D"></path>
                        <path d="M49.1479617,16.3396809 C49.1479617,16.3396809 46.2551676,21.6571277 45.3025205,26.5158511 C44.687947,29.6520213 43.6539764,34.6230851 42.9209029,37.3297872 C42.0437705,36.7552128 41.6627117,36.0565957 41.6627117,36.0565957 C41.6627117,36.0565957 41.9299176,33.627234 43.3391382,27.7515957 C44.7460352,21.8771277 48.1662705,16.0026596 48.1662705,16.0026596 C47.4947705,13.8389362 47.4785058,9.98191489 47.630697,9.78765957 L47.6841382,9.73031915 C47.8839617,11.4809574 48.4671676,15.0910638 49.1479617,16.3396809" id="Fill-679" fill="#F5948D"></path>
                        <path d="M10.0789764,74.2382979 C9.7629764,76.0848936 9.34938817,78.5680851 8.94625582,81.1331915 L8.90210876,81.1612766 C8.90210876,81.1612766 8.0447264,74.7812766 7.74266758,71.2355319 C7.44293229,67.6909574 5.22977052,64.6519149 4.0749764,62.1687234 C2.91669699,59.6890426 0.0541087572,53.5103191 0.000667580726,46.5709574 C-0.051611831,39.6351064 2.98407935,33.3545745 2.98407935,33.3545745 C3.39882935,34.407766 3.99481464,35.2152128 4.67444699,35.8342553 C3.01777052,40.3185106 2.05234405,46.4246809 2.24403523,49.8967021 C2.44618229,53.5430851 6.2672264,61.6456383 7.94481464,66.1720213 C8.9334764,68.8365957 9.65260876,72.05 10.0789764,74.2382979" id="Fill-680" fill="#449FA1"></path>
                        <path d="M42.772197,37.2197872 C40.9865646,39.3226596 34.4539617,43.472234 30.5097705,45.6184043 C32.6880793,43.6255319 35.5274323,40.9551064 36.5033146,40.1932979 C38.1100352,38.9259574 41.6627117,36.0565957 41.6627117,36.0565957 C41.9392117,36.5632979 42.3295646,36.9401064 42.772197,37.2197872" id="Fill-681" fill="#449FA1"></path>
                        <path d="M10.0789764,87.1703191 C10.0789764,87.1703191 8.6802117,97.2341489 7.8112117,105.603511 C6.9387264,113.977553 6.33577052,124.916702 6.33577052,124.916702 C6.33577052,124.916702 3.65325582,130.114787 3.65325582,136.532234 C3.65325582,142.187872 5.52950582,151.943936 5.9744617,154.16383 C5.82924111,154.16383 5.73165287,154.155638 5.73165287,154.155638 C5.73165287,154.155638 1.10782935,137.071702 1.91060876,131.600957 C2.25332935,129.264043 2.9527117,127.274681 3.6404764,125.760426 C4.56059405,123.730106 5.46328523,122.555213 5.46328523,122.555213 C5.5759764,121.184894 5.73165287,118.863191 5.90591758,116.055851 C6.45659405,107.224255 7.22452052,93.6357447 7.64275582,90.1765957 C7.91693229,87.8946809 8.38628523,84.7304255 8.86957935,81.6317021 L8.86957935,81.6281915 L8.91488817,81.3239362 L8.94625582,81.1331915 C9.01479993,80.6955319 9.08218229,80.261383 9.15188817,79.8319149 L9.19952052,79.5335106 C9.56199111,77.2843617 9.91168229,75.201383 10.1765646,73.6707447 C10.3577999,76.307234 10.3380499,84.402766 10.0789764,87.1703191" id="Fill-682" fill="#D15C27"></path>
                        <path d="M37.1132411,114.586064 L36.9726676,114.653936 C36.9726676,114.653936 34.7606676,109.792872 34.4899764,103.513511 C34.2808588,98.6793617 35.2706823,93.4403191 35.7365499,91.2894681 C35.8747999,90.6458511 35.9665793,90.277234 35.9665793,90.277234 C35.6296676,90.3743617 35.2637117,90.4808511 34.8768441,90.5931915 C29.8928735,92.0465957 21.3504176,94.6655319 21.3504176,94.6655319 C21.3504176,94.6655319 18.8340352,103.091064 16.7533146,110.707979 C15.8366823,114.061809 15.003697,117.263511 14.5134323,119.51617 C14.0870646,121.451702 13.4109176,124.730638 12.6429911,128.513936 C13.0774911,123.113404 13.6850941,117.635638 14.5134323,113.775106 C16.7939764,103.172979 19.9423588,93.6275532 19.9423588,93.6275532 C24.9054176,92.6551064 38.782697,86.6998936 38.782697,86.6998936 C38.782697,86.6998936 37.7080646,92.8423404 36.7019764,100.296596 C35.899197,106.256489 36.6659617,112.170745 37.1132411,114.586064" id="Fill-683" fill="#D15C27"></path>
                        <path d="M18.3275058,71.6544681 L18.1416235,71.7293617 L18.3275058,71.6544681 Z M4.32359405,157.867553 C3.99132935,157.867553 3.72063817,157.596064 3.72063817,157.260213 L3.75781464,157.050745 C3.97390287,156.097021 6.12665287,142.189043 8.40254993,127.472447 C10.3264323,115.035426 12.5070646,100.939043 14.2450646,89.947234 C15.1919029,83.9534043 15.9063882,79.5147872 16.4280205,76.378617 C17.3864764,70.6457447 17.3864764,70.6457447 17.8941676,70.5392553 C18.2217852,70.4702128 18.5401088,70.6820213 18.6063293,71.0108511 C18.6365352,71.1559574 18.6132999,71.2998936 18.5482411,71.4215957 C18.0161529,73.2424468 13.1541676,104.66617 9.59452052,127.660851 C8.33632935,135.789149 7.18850582,143.212979 6.34506464,148.605319 C5.92218229,151.301489 5.5759764,153.489787 5.33084405,155.005213 C5.20769699,155.764681 5.11010876,156.355638 5.03924111,156.755851 C4.91028523,157.496596 4.84754993,157.867553 4.32359405,157.867553 L4.32359405,157.867553 Z" id="Fill-684" fill="#90584D"></path>
                        <path d="M49.5731676,157.867553 C49.2409029,157.867553 48.9690499,157.596064 48.9690499,157.260213 L48.9690499,71.1337234 C48.9690499,70.7990426 49.2409029,70.526383 49.5731676,70.526383 C49.9065941,70.526383 50.1772852,70.7990426 50.1772852,71.1337234 L50.1772852,157.260213 C50.1772852,157.596064 49.9065941,157.867553 49.5731676,157.867553" id="Fill-685" fill="#90584D"></path>
                        <path d="M29.2167264,157.867835 C28.9681088,157.867835 28.7357558,157.714255 28.6497852,157.465 C28.492947,157.02734 23.8667999,118.52734 21.1215499,95.6169149 C21.1006382,95.4437234 21.1552411,95.2705319 21.2679323,95.1406383 C21.3841088,95.0107447 21.5479176,94.9370213 21.7198588,94.9370213 L50.0436823,94.9370213 C50.3283146,94.9370213 50.5757705,95.1382979 50.6338588,95.4203191 L63.4376676,157.13617 C63.5050499,157.46383 63.2970941,157.786809 62.9694764,157.854681 C62.6476676,157.923723 62.324697,157.714255 62.2561529,157.384255 L49.5534176,96.1517021 L22.4018146,96.1517021 C24.9147117,117.134787 29.5780352,155.880532 29.8022558,157.113936 C29.8766088,157.41234 29.7139617,157.725957 29.4188735,157.832447 L29.2167264,157.867835" id="Fill-686" fill="#90584D"></path>
                        <polygon id="Fill-687" fill="#A1D0C0" points="12.337447 98.9882979 50.0436823 98.9882979 50.0436823 95.5443617 12.337447 95.5443617"></polygon>
                        <polygon id="Fill-688" fill="#A1D0C0" points="9.28549111 120.460532 49.1479617 120.460532 49.1479617 117.827553 9.28549111 117.827553"></polygon>
                        <polygon id="Fill-689" fill="#A1D0C0" points="6.04068229 145.478511 50.0436823 145.478511 50.0436823 142.844362 6.04068229 142.844362"></polygon>
                        <polygon id="Fill-690" fill="#A1D0C0" points="17.1947852 71.9107447 50.3108882 71.9107447 50.3108882 69.5480851 17.1947852 69.5480851"></polygon>
                        <path d="M52.5612264,5.26712766 C52.5612264,6.72053191 48.9051529,7.98904255 43.4797117,8.66074468 C40.8378588,8.99425532 37.775447,9.18031915 34.5155352,9.18031915 C24.5452705,9.18031915 16.465197,7.42617021 16.465197,5.26712766 C16.465197,3.10340426 24.5452705,1.34925532 34.5155352,1.34925532 C36.9331676,1.34925532 39.236947,1.44989362 41.3409029,1.6406383 C47.9257852,2.22457447 52.5612264,3.62531915 52.5612264,5.26712766" id="Fill-691" fill="#97D8E9"></path>
                        <path d="M38.8489176,5.16297872 C38.8489176,6.00319149 36.7612264,6.68308511 34.1879176,6.68308511 C31.6169323,6.68308511 29.5304029,6.00319149 29.5304029,5.16297872 C29.5304029,4.32510638 31.6169323,3.64404255 34.1879176,3.64404255 C36.7612264,3.64404255 38.8489176,4.32510638 38.8489176,5.16297872" id="Fill-692" fill="#68B4D6"></path>
                        <path d="M52.5612264,2.90095745 L52.5612264,5.26712766 C52.5612264,3.63468085 47.9606382,2.23510638 41.4210646,1.64882979 L41.4210646,1.64414894 C39.2938735,1.45340426 36.9598882,1.34925532 34.5155352,1.34925532 C24.5452705,1.34925532 16.465197,3.10340426 16.465197,5.26712766 L16.465197,2.63297872 C16.465197,2.63297872 21.0843735,0 34.891947,0 C37.0040352,0 38.8791235,0.0690425532 40.5474176,0.181382979 C49.7904176,0.817978723 52.5612264,2.90095745 52.5612264,2.90095745" id="Fill-693" fill="#68B4D6"></path>
                        <path d="M52.5612264,2.90095745 L52.5612264,5.26712766 C52.5612264,3.63468085 47.9606382,2.23510638 41.4210646,1.64882979 L41.4210646,1.64414894 C41.1155205,1.12574468 40.8099764,0.603829787 40.5474176,0.181382979 C49.7904176,0.817978723 52.5612264,2.90095745 52.5612264,2.90095745" id="Fill-694" fill="#3485BA"></path>
                        <path d="M52.5612264,5.26712766 C52.5612264,6.72053191 48.9051529,7.98904255 43.4797117,8.66074468 C43.2601382,6.29106383 41.8869323,2.91617021 41.3409029,1.6406383 C47.9257852,2.22457447 52.5612264,3.62531915 52.5612264,5.26712766" id="Fill-695" fill="#BDE4E8"></path>
                    </g>
                </g>
            </g>
        </g>
    </g>
</svg>