<?xml version="1.0" encoding="UTF-8"?>
<svg width="1098px" height="342px" viewBox="0 0 1098 342" version="1.1" xmlns="http://www.w3.org/2000/svg" xmlns:xlink="http://www.w3.org/1999/xlink">
    <!-- Generator: Sketch 63.1 (92452) - https://sketch.com -->
    <title>wavy-footer</title>
    <desc>Created with Sketch.</desc>
    <g id="wavy-footer" stroke="none" stroke-width="1" fill="none" fill-rule="evenodd">
        <path d="M0,74.4371787 C69.8388915,6.76903304 169.722826,4.17757674 292.689829,6.76903304 C510.407015,6.71574991 718.87906,174.360756 916.330769,81.9061723 C1057.75285,15.686842 1093.53369,-14.582117 1099.82413,6.76903304 C1102.76323,16.7449872 1114.38588,50.9274433 1099.82413,74.4371787 L1099.82413,342 L759.532501,342 L0,342 L0,74.4371787 Z" id="Rectangle" fill-opacity="0.0705583479" fill="#03045E"></path>
        <path d="M0,88.5194325 C69.8388915,24.4127681 169.722826,21.9577043 292.689829,24.4127681 C510.407015,24.3622894 718.87906,183.183874 916.330769,95.5953211 C1057.75285,32.8612188 1093.53369,4.18536284 1099.82413,24.4127681 C1102.76323,33.8636721 1114.38588,66.2470515 1099.82413,88.5194325 L1099.82413,342 L759.532501,342 L0,342 L0,88.5194325 Z" id="Rectangle" fill-opacity="0.411522072" fill="#03045E"></path>
        <path d="M0,104.948729 C69.8388915,44.9971258 169.722826,42.7011864 292.689829,44.9971258 C510.407015,44.9499188 718.87906,193.477512 916.330769,111.565995 C1057.75285,52.8979916 1093.53369,26.080756 1099.82413,44.9971258 C1102.76323,53.8354712 1114.38588,84.1199278 1099.82413,104.948729 L1099.82413,342 L759.532501,342 L0,342 L0,104.948729 Z" id="Rectangle" fill-opacity="0.810915647" fill="#03045E"></path>
    </g>
</svg>